<?xml version="1.0" encoding="utf-8"?>
<!-- Generator: Adobe Illustrator 27.3.1, SVG Export Plug-In . SVG Version: 6.00 Build 0)  -->
<svg version="1.1" id="Calque_1" xmlns="http://www.w3.org/2000/svg" xmlns:xlink="http://www.w3.org/1999/xlink" x="0px" y="0px"
	 viewBox="0 0 2097 164.5" style="enable-background:new 0 0 2097 164.5;" xml:space="preserve">
<style type="text/css">
	.st0{fill:none;stroke:#000000;stroke-width:3;stroke-linecap:square;stroke-linejoin:bevel;}
</style>
<polyline class="st0" points="187.6,2.5 130.7,59 68.1,121.8 27.3,162.6 "/>
<polyline class="st0" points="2095.1,3.5 2037.7,61.2 1975.4,123.5 1937.2,161.6 1924.5,123.8 1903.6,61.2 1883,2.5 1881.1,2.5 
	1823.7,60.2 1761.4,122.5 1723.2,160.6 1710.5,122.8 1689.6,60.2 1670,2.5 1612.6,60.2 1550,122.8 1512,160.6 1499.7,122.8 
	1478.7,60.2 1459.5,2.5 1456.6,2.5 1399.2,60.2 1336.8,122.5 1298.6,160.6 1286,122.8 1265,60.2 1245.5,2.5 1188,60.2 1125.4,122.8 
	1087.5,160.6 "/>
<line class="st0" x1="161.9" y1="2.5" x2="1.8" y2="162.1"/>
<line class="st0" x1="1063.2" y1="160.7" x2="1221.4" y2="2.5"/>
<line class="st0" x1="1293.6" y1="141.2" x2="1432.4" y2="2.5"/>
<line class="st0" x1="1508.1" y1="143.2" x2="1648.9" y2="2.5"/>
<line class="st0" x1="1719.1" y1="143.2" x2="1859.9" y2="2.5"/>
<line class="st0" x1="1933.1" y1="144.2" x2="2073.9" y2="3.5"/>
<g>
	<path d="M331.6,127V37.6h15c11.9,0,19.8,6,19.8,20.6c0,12.8-7.4,19.5-15.3,20.6c7.9,0.5,18.6,5.5,18.6,23.5
		c0,17-8.4,24.8-22.8,24.8L331.6,127L331.6,127z M334,77.6h11.7c12.6,0,18.1-8.7,18.1-19.4c0-13-6.9-18.1-17.2-18.1H334V77.6z
		 M334,124.5h12.9c12.8,0,20.2-6.9,20.2-22.3c0-15.1-7.4-22.2-21.7-22.2H334V124.5z"/>
	<path d="M388.7,100.9c0.2,0-6.2,26.1-6.2,26.1h-2.4l21.5-89.8h2.9L426,127h-2.6l-6.2-26.1C417.3,100.9,388.7,100.9,388.7,100.9z
		 M416.7,98.5c0.2,0-13.7-58-13.7-58l-13.7,58H416.7z"/>
	<path d="M455.6,128.1c-9.1,0-15.3-5-19-16.1l2.3-0.8c3.5,9.8,8.7,14.6,16.8,14.6c9.3,0,15.9-6.4,15.9-18.4c0-10.2-4-17.2-17-26.7
		c-12.9-9.4-16.9-15.4-16.9-25.3c0-11.1,6.5-19,17.7-19c10,0,15,6,18.1,13.5l-2.3,0.9c-2.9-6.5-7.1-12.1-15.9-12.1
		c-9.7,0-15.1,7.1-15.1,16.8c0,9.2,4.2,14.8,15.9,23.2c14.3,10.4,18,17.7,18,28.7C474.2,121.2,466.1,128.1,455.6,128.1z"/>
	<path d="M490.9,127V37.6h2.6V127H490.9z"/>
	<path d="M532.9,128.1c-14.2,0-22.8-14.3-22.8-45.8c0-31.4,8.9-45.8,23-45.8c8.9,0,14.4,6.5,17,16.8l-2.4,0.7
		c-2.3-9.3-6.9-15.2-14.6-15.2c-12.8,0-20.4,14.2-20.4,43.6c0,29.5,7.5,43.6,20.3,43.6c7.8,0,12.3-6.2,15.2-15.9l2.4,0.7
		C547.5,121,542.4,128.1,532.9,128.1z"/>
	<path d="M591.6,127V37.6h2.6V127H591.6z"/>
	<path d="M613,127V37.6h2.6l35.6,83.4V37.6h2.3V127h-2.2l-36-84.3v84.2L613,127L613,127z"/>
	<path d="M687.5,128.1c-9.1,0-15.3-5-19-16.1l2.3-0.8c3.5,9.8,8.7,14.6,16.8,14.6c9.3,0,15.9-6.4,15.9-18.4c0-10.2-4-17.2-17-26.7
		c-12.9-9.2-16.8-15.2-16.8-25.2c0-11.1,6.5-19,17.7-19c10,0,15,6,18.1,13.5l-2.3,0.9c-2.9-6.5-7.1-12.1-15.9-12.1
		c-9.7,0-15.1,7.1-15.1,16.8c0,9.2,4.2,14.8,15.9,23.2c14.3,10.4,18,17.7,18,28.7C706.1,121.2,698,128.1,687.5,128.1z"/>
	<path d="M734,127V40h-19.2v-2.4h40.9V40h-19.2v87H734z"/>
	<path d="M769.6,127V37.6h2.6V127H769.6z"/>
	<path d="M791,127V37.6h2.6l35.6,83.4V37.6h2.3V127h-2.2l-36-84.3v84.2L791,127L791,127z"/>
	<path d="M870.5,128.1c-14.2,0-22.8-14.3-22.8-45.8c0-31.4,8.9-45.8,23-45.8c8.9,0,14.4,6.5,17,16.8l-2.4,0.7
		c-2.3-9.3-6.9-15.2-14.6-15.2c-12.8,0-20.4,14.2-20.4,43.6c0,29.5,7.5,43.6,20.3,43.6c7.8,0,12.3-6.2,15.2-15.9l2.4,0.7
		C885.1,121,880,128.1,870.5,128.1z"/>
	<path d="M915.8,127V40h-19.1v-2.4h40.9V40h-19.2v87H915.8z"/>
</g>
</svg>
