<?xml version="1.0" encoding="utf-8"?>
<!-- Generator: Adobe Illustrator 28.2.0, SVG Export Plug-In . SVG Version: 6.00 Build 0)  -->
<svg version="1.1" id="Calque_1" xmlns="http://www.w3.org/2000/svg" xmlns:xlink="http://www.w3.org/1999/xlink" x="0px" y="0px"
	 viewBox="0 0 2097 164.5" style="enable-background:new 0 0 2097 164.5;" xml:space="preserve">
<style type="text/css">
	.st0{fill:none;stroke:#000000;stroke-width:3;stroke-linecap:square;stroke-linejoin:bevel;}
</style>
<polyline class="st0" points="664.1,160.4 651.5,122.4 630.5,59.8 611.3,2.1 609.3,2.1 551.8,59.8 489.2,122.2 451.3,160.4 
	438.3,122.4 417.4,59.8 398.1,2.1 340.7,59.8 278.1,122.4 240.1,160.4 227.5,122.4 206.6,59.8 187.6,2.1 130.7,58.7 68.1,121.6 
	27.3,162.4 "/>
<polyline class="st0" points="2095.1,3.1 2037.7,60.8 1975.4,123.2 1937.2,161.4 1924.5,123.4 1903.6,60.8 1883,2.1 1881.1,2.1 
	1823.7,59.8 1761.4,122.2 1723.2,160.4 1710.5,122.4 1689.6,59.8 1670,2.1 1612.6,59.8 1550,122.4 1512,160.4 1499.7,122.4 
	1478.7,59.8 1459.5,2.1 "/>
<line class="st0" x1="161.9" y1="2.1" x2="1.8" y2="161.9"/>
<line class="st0" x1="234.8" y1="140.9" x2="373.6" y2="2.1"/>
<line class="st0" x1="445.8" y1="140.9" x2="584.6" y2="2.1"/>
<line class="st0" x1="1508.1" y1="142.9" x2="1648.9" y2="2.1"/>
<line class="st0" x1="1719.1" y1="142.9" x2="1859.9" y2="2.1"/>
<line class="st0" x1="1933.1" y1="143.9" x2="2073.9" y2="3.1"/>
<g>
	<g>
		<path d="M802.3,37.7h17.3c14.6,0,19.8,9.8,19.8,20.2c0,14.2-6.5,18.7-12.2,20.3c6.2,1.6,14.8,7.2,14.8,22.3
			c0,14.2-5.6,26.4-22.9,26.4h-16.8V37.7z M819.3,77.2c13,0,17.6-7.1,17.6-19.1c0-10-5-18-17.6-18h-14.4v37.2H819.3z M804.8,124.6
			h14.3c13.3,0,20.3-8.4,20.3-23.9c0-15.3-8.9-21.1-20.2-21.1h-14.4V124.6z"/>
		<path d="M899.4,81.6c0,29.3-5.8,46.5-23.3,46.5c-16.2,0-23.1-14.5-23.1-46.4c0-32,8.4-45.2,23.5-45.2
			C891.6,36.5,899.4,49.6,899.4,81.6z M855.5,81.6c0,31,6.6,44.2,20.6,44.2c16.1,0,20.8-17.4,20.8-44.1c0-28.4-6-42.7-20.6-42.7
			C862.9,38.9,855.5,51.1,855.5,81.6z"/>
		<path d="M917.4,37.7v63.6c0,13.2,3.5,24.4,18.2,24.4c14.7,0,18.4-9.9,18.4-24.4V37.7h2.5v63.7c0,16.4-4.9,26.7-21.1,26.7
			c-15.1,0-20.6-9.9-20.6-26.3V37.7H917.4z"/>
		<path d="M975.5,37.7h2.5v87h33.3l-0.7,2.3h-35.1V37.7z"/>
		<path d="M1021.1,37.7h17.3c14.6,0,19.8,9.8,19.8,20.2c0,14.2-6.5,18.7-12.2,20.3c6.2,1.6,14.8,7.2,14.8,22.3
			c0,14.2-5.6,26.4-22.9,26.4h-16.8V37.7z M1038.1,77.2c13,0,17.6-7.1,17.6-19.1c0-10-5-18-17.6-18h-14.4v37.2H1038.1z
			 M1023.6,124.6h14.3c13.3,0,20.3-8.4,20.3-23.9c0-15.3-8.9-21.1-20.2-21.1h-14.4V124.6z"/>
		<path d="M1077.7,37.7v89.2h-2.5V37.7H1077.7z"/>
		<path d="M1112.3,126.9l-22.8-89.2h2.6l12.6,49.6c3.6,13.9,7.9,30.4,9.2,37h0.1c1.1-6.3,6.5-24.9,9.8-37.6l12.9-49.1h2.6
			l-23.8,89.2H1112.3z"/>
		<path d="M1184.8,80.5h-31.2v44.1h34.3l-0.5,2.3h-36.3V37.7h35.6V40h-33.1v38.3h31.2V80.5z"/>
		<path d="M1203.1,81.9v45.1h-2.5V37.7h18.2c12.4,0,20.2,7,20.2,21.5c0,12.2-5.3,19.5-13.8,21.5c9.8,2.3,13,9.3,13,22.5v4.5
			c0,7.1,0.4,15.3,1,19.1h-2.7c-0.6-4.1-0.9-12.6-0.9-19.1v-4.4c0-16.9-5.9-21.5-18.2-21.5H1203.1z M1203.1,79.6h14.7
			c11.1,0,18.6-5.8,18.6-20.4c0-11.5-5.3-19.3-17.8-19.3h-15.5V79.6z"/>
		<path d="M1251.9,106.1c0.5,12.1,7.3,19.7,18.1,19.7c11.4,0,17.6-7.8,17.6-20.3c0-11.9-4.8-18.3-17.4-24.5
			c-12.3-6-17.9-11.3-17.9-24.1c0-11.2,5.8-20.4,18.1-20.4c12.5,0,17.9,8.7,18.1,20.6h-2.4c-0.3-12-6-18.3-15.8-18.3
			c-11.1,0-15.4,8.4-15.4,18c0,11.3,4.2,15.9,16.3,21.9c14.2,7,19.1,13.9,19.1,26.8c0,12-5.4,22.6-20.3,22.6
			c-15,0-20.1-11.3-20.5-22H1251.9z"/>
		<path d="M1338.5,80.5h-31.2v44.1h34.3l-0.5,2.3h-36.3V37.7h35.6V40h-33.1v38.3h31.2V80.5z"/>
	</g>
</g>
</svg>
