<?xml version="1.0" encoding="UTF-8"?>
<svg id="Calque_1" data-name="Calque 1" xmlns="http://www.w3.org/2000/svg" viewBox="0 0 1257.62 58.57">
  <defs>
    <style>
      .cls-1 {
        letter-spacing: 0em;
      }

      .cls-2 {
        fill: none;
        stroke: #000;
        stroke-linecap: square;
        stroke-linejoin: bevel;
        stroke-width: 2px;
      }

      .cls-3 {
        font-family: Quicksand-Light, Quicksand;
        font-size: 55px;
        font-weight: 300;
      }
    </style>
  </defs>
  <polyline class="cls-2" points="65.73 13.26 68.35 21.12 75.75 43.32 80.36 57.16"/>
  <polyline class="cls-2" points="139.28 13.17 142.04 21.45 149.31 43.32 153.77 56.72"/>
  <line class="cls-2" x1="204.44" y1="1.41" x2="164.05" y2="41.82"/>
  <line class="cls-2" x1="90.38" y1="41.24" x2="130.23" y2="1.41"/>
  <line class="cls-2" x1="57.19" y1="1.41" x2="1.41" y2="57.14"/>
  <polyline class="cls-2" points="213.28 13.26 215.9 21.12 223.3 43.32 227.92 57.16"/>
  <polyline class="cls-2" points="286.84 13.17 289.59 21.45 296.87 43.32 301.32 56.72"/>
  <line class="cls-2" x1="352" y1="1.41" x2="311.61" y2="41.82"/>
  <line class="cls-2" x1="237.94" y1="41.24" x2="277.79" y2="1.41"/>
  <polyline class="cls-2" points="803.59 13.26 806.2 21.12 813.6 43.32 818.22 57.16"/>
  <polyline class="cls-2" points="877.14 13.17 879.89 21.45 887.16 43.32 891.62 56.72"/>
  <line class="cls-2" x1="942.29" y1="1.41" x2="901.91" y2="41.82"/>
  <line class="cls-2" x1="828.24" y1="41.24" x2="868.09" y2="1.41"/>
  <polyline class="cls-2" points="951.07 13.26 953.69 21.12 961.09 43.32 965.7 57.16"/>
  <polyline class="cls-2" points="1024.62 13.17 1027.38 21.45 1034.65 43.32 1039.11 56.72"/>
  <line class="cls-2" x1="1089.08" y1="1.41" x2="1048.7" y2="41.82"/>
  <line class="cls-2" x1="975.03" y1="41.24" x2="1014.87" y2="1.41"/>
  <polyline class="cls-2" points="1098.86 13.26 1101.48 21.12 1108.88 43.32 1113.49 57.16"/>
  <polyline class="cls-2" points="1172.41 13.17 1175.17 21.45 1182.44 43.32 1186.9 56.72"/>
  <line class="cls-2" x1="1237.57" y1="1.41" x2="1197.18" y2="41.82"/>
  <polyline class="cls-2" points="371.3 1.41 370.64 1.41 350.61 21.45 328.88 43.19 315.61 56.47 311.2 43.32 303.87 21.45 297.15 1.41 277.12 21.47 255.3 43.32 242.17 56.47 237.78 43.32 230.49 21.45 223.81 1.41 223.08 1.41 203.06 21.45 181.33 43.19 168.06 56.47 163.65 43.32 156.32 21.45 149.6 1.41 129.57 21.47 107.75 43.32 94.61 56.47 90.23 43.32 82.94 21.45 76.26 1.41 56.55 21.12 34.66 43.01 20.51 57.16"/>
  <polyline class="cls-2" points="1256.21 1.41 1236.19 21.45 1214.46 43.19 1201.19 56.47 1196.78 43.32 1189.45 21.45 1182.73 1.41 1162.7 21.47 1140.88 43.32 1127.74 56.47 1123.36 43.32 1116.07 21.45 1109.39 1.41 1108.42 1.41 1088.4 21.45 1066.67 43.19 1053.4 56.47 1048.99 43.32 1041.66 21.45 1034.94 1.41 1014.91 21.47 993.09 43.32 979.95 56.47 975.57 43.32 968.28 21.45 961.6 1.41 960.94 1.41 940.91 21.45 919.18 43.19 905.91 56.47 901.5 43.32 894.17 21.45 887.45 1.41 867.42 21.47 845.6 43.32 832.47 56.47 828.08 43.32 820.79 21.45 814.11 1.41 813.38 1.41"/>
  <line class="cls-2" x1="1123.51" y1="41.24" x2="1163.36" y2="1.41"/>
  <text class="cls-3" transform="translate(371.82 46.98)"><tspan x="0" y="0">CONST</tspan><tspan class="cls-1" x="181.55" y="0">R</tspan><tspan x="217.8" y="0">UCTION</tspan></text>
</svg>