<?xml version="1.0" encoding="utf-8"?>
<!-- Generator: Adobe Illustrator 28.2.0, SVG Export Plug-In . SVG Version: 6.00 Build 0)  -->
<svg version="1.1" id="Calque_1" xmlns="http://www.w3.org/2000/svg" xmlns:xlink="http://www.w3.org/1999/xlink" x="0px" y="0px"
	 viewBox="0 0 2097 164.5" style="enable-background:new 0 0 2097 164.5;" xml:space="preserve">
<style type="text/css">
	.st0{fill:none;stroke:#000000;stroke-width:3;stroke-linecap:square;stroke-linejoin:bevel;}
</style>
<line class="st0" x1="161.9" y1="2.5" x2="1.8" y2="162.2"/>
<line class="st0" x1="234.8" y1="141.3" x2="373.6" y2="2.5"/>
<line class="st0" x1="1275.6" y1="159.3" x2="1432.4" y2="2.5"/>
<line class="st0" x1="1508.1" y1="143.3" x2="1648.9" y2="2.5"/>
<line class="st0" x1="1719.1" y1="143.3" x2="1859.9" y2="2.5"/>
<line class="st0" x1="1933.1" y1="144.3" x2="2073.9" y2="3.5"/>
<line class="st0" x1="447.3" y1="142.8" x2="587.1" y2="3"/>
<g>
	<g>
		<path d="M875,36.7h15.7c18.5,0,28.2,10.8,28.2,42.9c0,30.6-7.4,46.4-28.8,46.4H875V36.7z M877.5,123.7h12.3
			c16.8,0,26.5-9.5,26.5-44c0-28.7-8-40.7-25.5-40.7h-13.4V123.7z"/>
		<path d="M968.5,79.5h-31.2v44.1h34.3l-0.5,2.3h-36.3V36.7h35.6V39h-33.1v38.3h31.2V79.5z"/>
		<path d="M984.2,36.7h15.7c18.5,0,28.2,10.8,28.2,42.9c0,30.6-7.4,46.4-28.8,46.4h-15.2V36.7z M986.7,123.7h12.3
			c16.8,0,26.5-9.5,26.5-44c0-28.7-8-40.7-25.5-40.7h-13.4V123.7z"/>
		<path d="M1087,80.6c0,29.3-5.8,46.5-23.3,46.5c-16.2,0-23.1-14.5-23.1-46.4c0-32,8.4-45.2,23.5-45.2
			C1079.2,35.5,1087,48.6,1087,80.6z M1043.2,80.6c0,31,6.6,44.2,20.6,44.2c16.1,0,20.8-17.4,20.8-44.1c0-28.4-6-42.7-20.6-42.7
			C1050.6,37.9,1043.2,50.1,1043.2,80.6z"/>
		<path d="M1105,36.7v63.6c0,13.2,3.5,24.4,18.2,24.4c14.7,0,18.4-9.9,18.4-24.4V36.7h2.5v63.7c0,16.4-4.9,26.7-21.1,26.7
			c-15.1,0-20.6-9.9-20.6-26.3V36.7H1105z"/>
		<path d="M1154.7,124.2l41.4-85.2h-37.5v-2.3h40.5v1.7l-41.2,85.2h41.4l-0.6,2.3h-44V124.2z"/>
		<path d="M1244.4,79.5h-31.2v44.1h34.3l-0.5,2.3h-36.3V36.7h35.6V39h-33.1v38.3h31.2V79.5z"/>
	</g>
</g>
<polyline class="st0" points="2095.1,3.5 2037.7,61.2 1975.4,123.5 1937.2,161.7 1924.5,123.8 1903.6,61.2 1883,2.5 1881.1,2.5 
	1823.7,60.2 1761.4,122.5 1723.2,160.7 1710.5,122.8 1689.6,60.2 1670,2.5 1612.6,60.2 1550,122.8 1512,160.7 1499.7,122.8 
	1478.7,60.2 1459.5,2.5 1456.6,2.5 1399.2,60.2 1336.8,122.5 1298.6,160.7 "/>
<polyline class="st0" points="827.6,2.9 770.1,60.7 707.5,123.3 669.6,161.2 667.3,160.7 654.3,122.8 633.4,60.2 614.1,2.5 
	611.6,2.9 554.1,60.7 491.5,123.3 453.6,161.2 451.3,160.7 438.3,122.8 417.4,60.2 398.1,2.5 340.7,60.2 278.1,122.8 240.1,160.7 
	227.5,122.8 206.6,60.2 187.6,2.5 130.7,59 68.1,121.9 27.3,162.7 "/>
<line class="st0" x1="663.3" y1="142.8" x2="803.1" y2="3"/>
</svg>
