<?xml version="1.0" encoding="UTF-8"?>
<svg id="Calque_1" data-name="Calque 1" xmlns="http://www.w3.org/2000/svg" viewBox="0 0 1257.62 58.57">
  <defs>
    <style>
      .cls-1 {
        fill: none;
        stroke: #000;
        stroke-linecap: square;
        stroke-linejoin: bevel;
        stroke-width: 2px;
      }
    </style>
  </defs>
  <polyline class="cls-1" points="65.73 13.26 68.35 21.12 75.75 43.32 80.36 57.16"/>
  <polyline class="cls-1" points="139.28 13.17 142.04 21.45 149.31 43.32 153.77 56.72"/>
  <line class="cls-1" x1="204.44" y1="1.41" x2="164.05" y2="41.82"/>
  <line class="cls-1" x1="90.38" y1="41.24" x2="130.23" y2="1.41"/>
  <line class="cls-1" x1="57.19" y1="1.41" x2="1.41" y2="57.14"/>
  <polyline class="cls-1" points="213.28 13.26 215.9 21.12 223.3 43.32 227.92 57.16"/>
  <polyline class="cls-1" points="286.84 13.17 289.59 21.45 296.87 43.32 301.32 56.72"/>
  <line class="cls-1" x1="352" y1="1.41" x2="311.61" y2="41.82"/>
  <line class="cls-1" x1="237.94" y1="41.24" x2="277.79" y2="1.41"/>
  <polyline class="cls-1" points="360.77 13.26 363.39 21.12 370.79 43.32 375.4 57.16"/>
  <polyline class="cls-1" points="434.32 13.17 437.08 21.45 444.35 43.32 448.81 56.72"/>
  <line class="cls-1" x1="498.78" y1="1.41" x2="458.4" y2="41.82"/>
  <line class="cls-1" x1="384.73" y1="41.24" x2="424.57" y2="1.41"/>
  <polyline class="cls-1" points="508.56 13.26 511.18 21.12 518.58 43.32 523.19 57.16"/>
  <polyline class="cls-1" points="582.11 13.17 584.87 21.45 592.14 43.32 596.6 56.72"/>
  <line class="cls-1" x1="647.27" y1="1.41" x2="606.88" y2="41.82"/>
  <line class="cls-1" x1="533.21" y1="41.24" x2="573.06" y2="1.41"/>
  <polyline class="cls-1" points="656.03 13.26 658.65 21.12 666.05 43.32 670.66 57.16"/>
  <polyline class="cls-1" points="729.58 13.17 732.34 21.45 739.61 43.32 744.07 56.72"/>
  <line class="cls-1" x1="680.68" y1="41.24" x2="720.53" y2="1.41"/>
  <line class="cls-1" x1="942.29" y1="1.41" x2="901.91" y2="41.82"/>
  <polyline class="cls-1" points="951.07 13.26 953.69 21.12 961.09 43.32 965.7 57.16"/>
  <polyline class="cls-1" points="1024.62 13.17 1027.38 21.45 1034.65 43.32 1039.11 56.72"/>
  <line class="cls-1" x1="1089.08" y1="1.41" x2="1048.7" y2="41.82"/>
  <line class="cls-1" x1="975.03" y1="41.24" x2="1014.87" y2="1.41"/>
  <polyline class="cls-1" points="1098.86 13.26 1101.48 21.12 1108.88 43.32 1113.49 57.16"/>
  <polyline class="cls-1" points="1172.41 13.17 1175.17 21.45 1182.44 43.32 1186.9 56.72"/>
  <line class="cls-1" x1="1237.57" y1="1.41" x2="1197.18" y2="41.82"/>
  <polyline class="cls-1" points="758.36 56.47 753.95 43.32 746.62 21.45 739.9 1.41 719.87 21.47 698.04 43.32 684.91 56.47 680.53 43.32 673.24 21.45 666.96 1.41 665.91 1.41 645.89 21.45 624.16 43.19 610.89 56.47 606.48 43.32 599.15 21.45 592.43 1.41 572.4 21.47 550.58 43.32 537.44 56.47 533.06 43.32 525.77 21.45 519.09 1.41 518.12 1.41 498.1 21.45 476.37 43.19 463.1 56.47 458.69 43.32 451.36 21.45 444.64 1.41 424.61 21.47 402.79 43.32 389.65 56.47 385.27 43.32 377.98 21.45 371.3 1.41 370.64 1.41 350.61 21.45 328.88 43.19 315.61 56.47 311.2 43.32 303.87 21.45 297.15 1.41 277.12 21.47 255.3 43.32 242.17 56.47 237.78 43.32 230.49 21.45 223.81 1.41 223.08 1.41 203.06 21.45 181.33 43.19 168.06 56.47 163.65 43.32 156.32 21.45 149.6 1.41 129.57 21.47 107.75 43.32 94.61 56.47 90.23 43.32 82.94 21.45 76.26 1.41 56.55 21.12 34.66 43.01 20.51 57.16"/>
  <polyline class="cls-1" points="1256.21 1.41 1236.19 21.45 1214.46 43.19 1201.19 56.47 1196.78 43.32 1189.45 21.45 1182.73 1.41 1162.7 21.47 1140.88 43.32 1127.74 56.47 1123.36 43.32 1116.07 21.45 1109.39 1.41 1108.42 1.41 1088.4 21.45 1066.67 43.19 1053.4 56.47 1048.99 43.32 1041.66 21.45 1034.94 1.41 1014.91 21.47 993.09 43.32 979.95 56.47 975.57 43.32 968.28 21.45 961.6 1.41 960.94 1.41 940.91 21.45 919.18 43.19 905.91 56.47 901.5 43.32 894.17 21.45 887.45 1.41"/>
  <line class="cls-1" x1="1123.51" y1="41.24" x2="1163.36" y2="1.41"/>
  <g>
    <path d="m815.58,45.83c.22.22.33.48.33.77,0,.33-.11.6-.33.8-.22.2-.48.3-.77.3h-20.74c-.29,0-.55-.11-.77-.33s-.33-.48-.33-.77V10.3c0-.29.11-.55.33-.77.22-.22.48-.33.77-.33h20.74c.29,0,.55.11.77.33.22.22.33.48.33.77,0,.33-.11.6-.33.8-.22.2-.48.3-.77.3h-19.53v15.34h17.05c.29,0,.55.11.77.33s.33.48.33.77c0,.33-.11.6-.33.8-.22.2-.48.3-.77.3h-17.05v16.55h19.53c.29,0,.55.11.77.33Z"/>
    <path d="m852.75,9.5c.18.2.28.45.28.74v36.25c0,.4-.11.71-.33.91-.22.2-.5.3-.83.3-.37,0-.66-.15-.88-.44l-24.75-33.82v33.33c0,.26-.1.48-.3.66-.2.18-.45.28-.74.28-.33,0-.59-.09-.77-.28-.18-.18-.28-.4-.28-.66V10.3c0-.37.1-.64.3-.83.2-.18.43-.27.69-.27.33,0,.6.13.83.38l24.97,34.04V10.24c0-.29.1-.54.3-.74.2-.2.45-.3.74-.3.33,0,.59.1.77.3Z"/>
  </g>
</svg>