<?xml version="1.0" encoding="utf-8"?>
<!-- Generator: Adobe Illustrator 27.3.1, SVG Export Plug-In . SVG Version: 6.00 Build 0)  -->
<svg version="1.1" id="Calque_1" xmlns="http://www.w3.org/2000/svg" xmlns:xlink="http://www.w3.org/1999/xlink" x="0px" y="0px"
	 viewBox="0 0 2097 164.5" style="enable-background:new 0 0 2097 164.5;" xml:space="preserve">
<style type="text/css">
	.st0{fill:none;stroke:#000000;stroke-width:3;stroke-linecap:square;stroke-linejoin:bevel;}
</style>
<polyline class="st0" points="398.1,2.1 340.7,59.9 278.1,122.5 240.1,160.4 227.5,122.5 206.6,59.9 187.6,2.1 130.7,58.7 
	68.1,121.6 27.3,162.4 "/>
<polyline class="st0" points="2095.1,3.1 2037.7,60.9 1975.4,123.2 1937.2,161.4 1924.5,123.5 1903.6,60.9 1883,2.1 1881.1,2.1 
	1823.7,59.9 1761.4,122.2 1723.2,160.4 "/>
<line class="st0" x1="161.9" y1="2.1" x2="1.8" y2="161.9"/>
<line class="st0" x1="234.8" y1="140.9" x2="373.6" y2="2.1"/>
<line class="st0" x1="1701.7" y1="160.4" x2="1859.9" y2="2.2"/>
<line class="st0" x1="1933.1" y1="144" x2="2073.9" y2="3.2"/>
<g>
	<path d="M686.6,127V37.6h2.5v87h28.3v2.4h-30.8V127z"/>
	<path d="M735.5,100.9c0.1,0-6.2,26-6.2,26h-2.4l21.4-89.7h2.9l21.4,89.8h-2.5l-6.2-26h-28.5v-0.1H735.5z M763.5,98.5
		c0.1,0-13.7-58-13.7-58l-13.7,58H763.5z"/>
	<path d="M813.2,127V37.6h32V40h-29.5v39.3h19.6v2.4h-19.6v45.4h-2.5V127z"/>
	<path d="M858.1,127V37.6h32.1V40h-29.6v38h19.2v2.5h-19.2v44.2h31.2v2.4h-33.7V127z"/>
	<path d="M904.9,127V37.6h14c14.1,0,23.3,5.8,23.3,22.5c0,13.4-6.5,20.4-16.1,22.7l16.1,44.2h-2.8l-16-43.8c-1,0.2-3.5,0.5-5.3,0.5
		h-10.7v43.4h-2.5V127z M907.4,81.3h10.7c12.7,0,21.5-5.9,21.5-21.2s-8.1-20.1-20.8-20.1h-11.5v41.4H907.4z"/>
	<path d="M983.9,127.9l-23.4-84.1V127h-2.3V37.6h2.9l23.1,83.2l23.2-83.2h2.9v89.4h-2.3V43.7l-23.4,84.1H983.9L983.9,127.9z"/>
	<path d="M1028.7,127V37.6h32.1V40h-29.6v38h19.2v2.5h-19.2v44.2h31.2v2.4h-33.7V127z"/>
	<path d="M1100.3,127V37.6h14.1c18.5,0,27.4,12.8,27.4,44.6s-9.2,44.9-27.7,44.9h-13.8V127z M1102.9,124.6h11.4
		c17.3,0,25.1-12,25.1-42.4s-7.6-42.2-24.9-42.2h-11.6V124.6L1102.9,124.6z"/>
	<path d="M1158.3,127V37.6h32.1V40h-29.6v38h19.2v2.5h-19.2v44.2h31.2v2.4h-33.7V127z"/>
	<path d="M1219.8,128.2c-9.1,0-15.3-5-19-16.1l2.3-0.7c3.5,9.8,8.7,14.5,16.7,14.5c9.3,0,16-6.4,16-18.4c0-10.2-4-17.3-16.9-26.7
		c-12.9-9.3-16.8-15.3-16.8-25.3c0-11.1,6.5-19,17.6-19c9.9,0,15,6,18.1,13.5l-2.3,0.9c-2.9-6.5-7.1-12.1-15.8-12.1
		c-9.7,0-15.1,7-15.1,16.7c0,9.2,4.2,14.8,15.8,23.2c14.3,10.4,18,17.8,18,28.8C1238.3,121.2,1230.3,128.2,1219.8,128.2z"/>
	<path d="M1285,100.9c0.1,0-6.2,26-6.2,26h-2.4l21.4-89.8h2.9l21.4,89.8h-2.5l-6.2-26H1285L1285,100.9z M1313,98.5
		c0.1,0-13.7-58-13.7-58l-13.7,58H1313L1313,98.5z"/>
	<path d="M1337.8,127V37.6h2.5l35.7,83.4V37.6h2.3v89.4h-2.2l-36-84.2v84.2h-2.3V127z"/>
	<path d="M1397.4,127V37.6h2.5v89.4h-2.5V127z"/>
	<path d="M1444.4,127.9l-23.3-84.1V127h-2.3V37.6h2.9l23.1,83.2l23.2-83.2h2.9v89.4h-2.3V43.7l-23.4,84.1H1444.4L1444.4,127.9z"/>
	<path d="M1495,100.9c0.1,0-6.2,26-6.2,26h-2.4l21.4-89.8h2.9l21.4,89.8h-2.5l-6.2-26H1495L1495,100.9z M1523,98.5
		c0.1,0-13.7-58-13.7-58l-13.7,58H1523L1523,98.5z"/>
	<path d="M1566.2,128.2c-13.4,0-20.7-8.5-20.7-24.9V37.6h2.5v65.7c0,15.1,6.4,22.6,18.1,22.6c11.7,0,18-7.5,18-22.6V37.6h2.5v65.7
		C1586.7,119.8,1579.6,128.2,1566.2,128.2z"/>
	<path d="M1600.1,127l19.2-46l-18-43.5h2.5l16.7,40.5l16.9-40.5h2.3l-18,43.1l19.2,46.4h-2.5l-18.1-43.4l-18.1,43.4L1600.1,127
		L1600.1,127z"/>
</g>
<polyline class="st0" points="609.7,1.7 552.2,59.4 489.6,122.1 451.7,160 439.1,122.1 418.1,59.4 399.1,1.7 "/>
<line class="st0" x1="446.4" y1="140.5" x2="585.2" y2="1.7"/>
</svg>
