<svg id="Calque_1" data-name="Calque 1" xmlns="http://www.w3.org/2000/svg" xmlns:xlink="http://www.w3.org/1999/xlink" viewBox="0 0 1918.61 151.93"><defs><style>.cls-1,.cls-6{fill:#fff;}.cls-1{stroke:#bd1622;}.cls-1,.cls-10,.cls-11,.cls-2,.cls-5,.cls-6,.cls-8,.cls-9{stroke-miterlimit:10;stroke-width:3px;}.cls-10,.cls-11,.cls-2,.cls-5,.cls-8,.cls-9{fill:none;}.cls-2,.cls-6{stroke:#fcea0d;}.cls-3{fill:#009540;}.cls-4{fill:url(#Dégradé_sans_nom_40);}.cls-11,.cls-5{stroke:#009ee2;}.cls-7{fill:url(#Dégradé_sans_nom_37);}.cls-8{stroke:url(#Dégradé_sans_nom_24);}.cls-9{stroke:#ffec00;}.cls-10{stroke:#009540;}.cls-11{opacity:0.65;}</style><linearGradient id="Dégradé_sans_nom_40" x1="0.89" y1="595.31" x2="355.25" y2="595.31" gradientUnits="userSpaceOnUse"><stop offset="0.82" stop-color="#009ee2"/><stop offset="0.84" stop-color="#009cc0"/><stop offset="0.86" stop-color="#009a99"/><stop offset="0.89" stop-color="#009879"/><stop offset="0.91" stop-color="#009760"/><stop offset="0.93" stop-color="#00964e"/><stop offset="0.96" stop-color="#009543"/><stop offset="0.99" stop-color="#009540"/></linearGradient><linearGradient id="Dégradé_sans_nom_37" x1="631.16" y1="555.48" x2="853.05" y2="555.48" gradientUnits="userSpaceOnUse"><stop offset="0.2" stop-color="#009540"/><stop offset="0.22" stop-color="#fcea0d"/></linearGradient><linearGradient id="Dégradé_sans_nom_24" x1="1278.85" y1="542.55" x2="1919.5" y2="542.55" gradientUnits="userSpaceOnUse"><stop offset="0" stop-color="#009ee2"/><stop offset="0.72" stop-color="#a2195b"/><stop offset="1" stop-color="#e20613"/></linearGradient></defs><line class="cls-1" x1="0.02" y1="28.44" x2="517.69" y2="28.44"/><path class="cls-2" d="M.89,599.46H251.35s55.4-.82,63.46-4.13" transform="translate(-0.89 -464.66)"/><path class="cls-2" d="M.89,590.73H251.35s44.33.33,51,3.69" transform="translate(-0.89 -464.66)"/><path class="cls-2" d="M.89,603.82H251.35s93.68-2.14,102.41-8.07" transform="translate(-0.89 -464.66)"/><path class="cls-2" d="M.89,586.36H251.35s75.21.73,83.77,7.44" transform="translate(-0.89 -464.66)"/><path class="cls-3" d="M639.79,552.62c-80.84,1-119.92-65.31-119.92-65.31C482.35,566.91,355.25,592,355.25,592v4.73s134.41-22.5,164.63-105.5c0,0,32.6,63.85,119.92,65.92Z" transform="translate(-0.89 -464.66)"/><path class="cls-4" d="M355.25,592c-12.09,3.33-341.7,2.61-354.36,2.68v1s337.73,5.91,354.35,1.1" transform="translate(-0.89 -464.66)"/><path class="cls-5" d="M679,553.2s.17-.43.52-1.17.9-1.67,1.65-3c.76.6,1.72-3.08,2.92-4.08,1.21-3.11,2.64-3.87,4.34-4.43.84,2.67,1.76-2.16,2.74-1.8,1-1.05,2,1.86,3.14-2.23,1.12-1.08,2.3.2,3.56-3.24a5.57,5.57,0,0,1,4,.37c.94-2,1.91,4.42,2.92-.94,1,1.82,2.06-.43,3.14-.69,1.07,5,2.19-.68,3.34.65.75,1.65,1.47,2.19,2.19,1.29.71,1.72,1.4-2.41,2.08-1.34a3.77,3.77,0,0,0,2,.55,3,3,0,0,0,1.89-.87c1.23,2.58,2.4,1.89,3.52-.55.84-2,1.65-1.85,2.43-.54.79,1.47,1.55,1.34,2.29-.63.73.58,1.45,1.09,2.14,0,.7-2.36,1.37.82,2-1.46.66-.33,1.3,0,1.93,0s1.24-.2,1.84-1.69c1.21,1.59,2.37-4.07,3.52-1.69.69-2.06,1.37-.83,2-1,.68-1.7,1.36-1.18,2.05-.93.68,3.61,1.37-.78,2.07.07.35,1.18.7.93,1.05.11s.71,1.09,1.07-1.74c.72,2.67,1.46-1.51,2.22-1.4s1.53-2.08,2.33.4c.4-.65.81-1.29,1.22-.92.42-.47.84-.79,1.27.08.85,1.15,1.74.62,2.67.62.59-2.86,1.15-1.26,1.69-1.42.54,1.39,1.05,3.53,1.53,1.9.49.39.95.22,1.38,1.39.44-.43.86,0,1.25-.56.79.64,1.49,4.84,2.12,1.34.64-2.64,1.21.5,1.73,1.5.51,3.67,1-1,1.42,2.34.43.42.83,1,1.22,1.43.38-.29.75.81,1.11,2.09.37,1.88.74,1.52,1.12,2,.38,2.27.78,1.34,1.21,1.66.44-.18.9-.9,1.42,2.09.51,2.78,1.07,1.61,1.7,2,.63,1.12,1.33-.62,2.11.83.78.81,1.64.08,2.61.62s2,.15,3.2.63c1.65,0,3,.07,4.23-.05,1.2-.63,2.18.06,3-1.2.83-.5,1.5-1.63,2.06-1.14.57-1.57,1-4.11,1.41-2.36.39-1,.73-3.26,1-3.34.32-2.33.63-.2,1-1,.34-2.4.71-3.61,1.17-2.72.45.06,1,.45,1.66-.94.67-3.3,1.47,1.73,2.45-.65,1-.34,2.14-1.46,3.53-.89,1.15,1,2.19.52,3.14.79.95.89,1.81,1.76,2.59.28.78,1.49,1.49,1.23,2.14,1.54a5.63,5.63,0,0,1,1.8,1.12c1.12,3.23,2.08,2.76,3,3.45.48.6,1,1.19,1.46,1.77a22.62,22.62,0,0,0,1.58,1.67c.74.38,1.55,1.65,2.47,1.89a27.47,27.47,0,0,0,3.14,1.29c1.18.5,2.52,1.22,4.06.45,1.39-.2,2.59.11,3.64-.25,1.05.6,2-.74,2.73-1.28.78,2.15,1.45-.17,2-.6.59-2.52,1.09-1.88,1.55-2.93.46-.36.88-1.45,1.28-1.82.4.21.79-2,1.21-2.34.41-1.6.85-1.52,1.35-1.43.5-2,1.05-.32,1.7-2,.65,0,1.39-2,2.25-1,.87-1.68,1.87-.58,3-.32a3,3,0,0,1,3,.59c.88-.81,1.64,2.43,2.31,1,.67-1.21,1.24-.82,1.76,1.07.52.08,1,2.37,1.42,2.43.43.83.84,2.49,1.26,2.07.41,1.35.84.29,1.3,2.07.3-.21.63.48,1,.91.35-.37.73,1.24,1.14,1.56.41-.4.86.17,1.36.62.5,1,1,1.49,1.63,1.17.6.23,1.25,1.77,2,.71.72.6,1.5-2.42,2.35,0,1.29,1.38,2.4-.34,3.37-.8,1,1.15,1.8,1.4,2.52-.58.72.28,1.33.3,1.87-1.55.53-.14,1,1.12,1.41-1.9.84-2.27,1.5-4.75,2.26-4.15.75-1.3,1.6-.89,2.8-3.49a6.4,6.4,0,0,0,2.09-.53c.81.82,1.74,1.68,2.82-.93,0-.44.91-.34,2.43,0,1.26.44,2.94-.47,4.87.07a4.5,4.5,0,0,1,3-1.33,5.16,5.16,0,0,1,3.29,1.43c1.12-.73,2.26-1.11,3.4-.2,1.13.53,2.26-.6,3.37.3,1.1-1.36,2.18-2.56,3.21-1.06,1,2.57,2,1,2.92,1.16,1.82-2.19,3.36-.52,4.45.07,1.09-.51,1.72.31,1.72,0,0-.77.57.29,1.5,0,.94.75,2.22-.3,3.64.68a13.44,13.44,0,0,1,4.45,2.42c3,2.43.58-9.48,4.7-14.45,0,0,1.61,10.6,15.71,11.1s28.6-.09,110.63.92" transform="translate(-0.89 -464.66)"/><polyline class="cls-2" points="680.35 89.1 852.03 90.32 1347.65 115.52"/><polyline class="cls-6" points="680.35 89.8 852.03 92.52 1348.13 118.7"/><path class="cls-7" d="M697.81,552.62H853.05v.57l-171.81.2s1.73-.49.47,5c-11.09,0-33.22-1.45-50.55-1.61,6.76-2.27,8.63-4.11,8.63-4.11h58Z" transform="translate(-0.89 -464.66)"/><line class="cls-2" x1="1347.65" y1="112.04" x2="852.16" y2="87.96"/><path class="cls-8" d="M1278.86,522.69s51.75-.24,58.08,7.55c5.67,7,10.12,20.42,12.14,53.85,0,0,3.24-43.7,10-53.42,6.68-9.57,13.8-24.18,132.76-21.66,0,0,435-5.15,426-6.63" transform="translate(-0.89 -464.66)"/><path class="cls-9" d="M680.81,556s257.31,18.64,662.25,30.1A49.73,49.73,0,0,0,1351,586c4.46.47,7.54.56,5.58-7.09,8.11,7.82,11.18,7.91,26.2-.49-8.89,8.57-5.83,8.66,7.39,2-7.1,6.86-4,7,5.79.41-3.75,6.71-.71,6.8,8,1.45-2.68,5.52.35,5.61,6.64,1.49-.24,4.29,2.78,4.37,8.13-2,.68,6.49,3.69,6.58,11.34-2-1.64,8.79,1.35,8.87,13,0-5.63,9-2.65,9.08,12.17.88-4.43,4.19-5.9,6.3-4.85,6.85a1.19,1.19,0,0,0,1.75-1c3.4.31,5.71-.46,6.94-6-.19,6-1.07,6.93-5.85,4.64,4.38,3.57,4.85,3.88-.31.69,6.93,3.46,8.22,3.41,8.39-5.42,2.06,9,3.18,9.08,12.68,3.58a24.88,24.88,0,0,0-4.18,3.93c-.5.77-.14,1.06.94.93a8.65,8.65,0,0,0,5.35-2.23c-1,2.18-1,2.73-1.17,1.5,2,1.82,3.75,1.87,5.41-.72,3.56,2.74,7,2.84,10.64,2.87,3.35.16,6.82.26,10.27.36l416.52,11.79" transform="translate(-0.89 -464.66)"/><path class="cls-9" d="M1917.67,606.37l-416.49-12.75c-3.46-.1-6.92-.21-9.91-.43-4,0-7.45-.1-11.1-2.9-1.57,2.64-3.29,2.59-6.45,1.22,1.6,1.56,1.77,1.81,1.36.82-.55,1.12-2.73.84-4.78.59a.69.69,0,0,0-.41,1c1.57.74,3.55,1.76,4,4.34-.28-2.22-2.62-3.1-4.74-3.6a5.36,5.36,0,0,0-3.7-.09c-1.83.87-2.21,3.77-2.45,9.59-2.47-11.73-4.39-11.79-11.62-10.69,6.48-1.42,7.66-1.67,8.27-10.24.51,8.25-1.79,8.37-8.49,8.68,3.1-.14,1.8-.1-.26,0,.59,0,.42-.05-.06-.07,1.42-.08,2.53-.16.28-.18,5.9-.21,8.43-.35,10.88-10.46-2.89,10-6.1,10.14-11,10.16a36,36,0,0,1-4.09-.15c-4.65-.46-4.26-2,1.39-5.69,1.88-1.25,4.35-2.74,7.41-4.54-4.06,1.77-7.52,3.23-10.44,4.4-14.56,5.82-15.35,4.09-7.59-5.89-15.32,11.8-18.33,11.71-14,2.31-10.32,9.21-13.34,9.12-8.72.78-10.67,8.15-13.7,8.06-5.32,1.2-14.45,6.68-17.5,6.58-5.17-1.2-18.42,7.6-21.47,7.5,0,0-27.54,7.35-30.6,7.25,0,0-36.73,7.06-39.8,7-53.85,6.54,7.9.24,4.82.15-.07,0l-7.45-.23c-404.93-12.4-662.22-32.13-662.22-32.13" transform="translate(-0.89 -464.66)"/><path class="cls-9" d="M681.19,557.33s257.19,20.67,662,33.87c3.09.1,6.17.2,7.51.65,4.83-.25,7.91-.15,5.54,7.86,8.52-7.81,11.59-7.71,27.59,4.64-9.87-12.15-6.81-12.05,12.85,2.43-13.55-14.28-10.5-14.18,37.49-2-41.9-11.93-38.86-11.83-8.6-23.6-24.18,12-21.15,12.07,0,0-15.13,12.27-12.11,12.37,8.6-1.84-13,12.81-12.13,14.31,16,10.09,3.51-.53,7.45-1.15,10.2-9.06-2.55,8-6.16,8.73-9.57,9.32-2.74.69-5.28,1.26-7.31,1.79-12.15,3.19-6,5,12,11.92-15-7.55-15.4-8.74-5.2-4.45a37.44,37.44,0,0,1,7.1,3.74c-2.54-2.4-4.45-3.81-5.58-4.8s-1.38-1.64-.94-1.92,1.6-.26,1.36,1.1c3.89-.8,6.37-.28,8.16,6.51-1.88-7.38-2.72-8-6.73-4.52,5-4,6.73-3.83,7.85,4.84,1.37-6.43,2.38-8.06,5.65-5.22a34.24,34.24,0,0,1,4,4.4,39.14,39.14,0,0,1-2.3-5.33c0-1,.52-1.36.92-1.08,1.89.15,3.67.9,3.8,3.48,1.12-3.06,1.4-3.82-.52-4a37.65,37.65,0,0,1,7.38-.4l11,.36,9.85.32,416.41,13.58" transform="translate(-0.89 -464.66)"/><path class="cls-9" d="M681.19,557.91s257.17,21.62,662,35.64a46.57,46.57,0,0,1,8.3.74c4-.31,7.12-.2,7.77,6.8,5.5-6.79,8.57-6.68,17.22,1.73-2.52-8.2.54-8.1,10.8,2.1-4.15-10-1.1-9.88,13.91,2.78-8.92-12.45-5.88-12.34,14.41.6-14.21-12.73-11.18-12.63,16.11-2.69-21.24-9.73-18.22-9.62,7.94.56-20.14-10-17.13-9.87,0,0-11.13-9.66-8.14-9.56,4,.33-6.21-9.68-3.22-9.58,7.17-2.06-3-4.87-2.62-6.45.62-5.7a12.67,12.67,0,0,1,6.44,4c-1-3.26-1.07-4.25-2.58-1.85,3-3.29,4.6-3.19,5.07,2.65,2.48-5.74,3.86-5.74,7.71.59a10.83,10.83,0,0,1-.14-4.27.94.94,0,0,1,1.51-.61,4.25,4.25,0,0,1,3.14,3c.9-2.44,1.77-3.25.77-2.25,3.58-1.75,5.31-1.69,7,1,3.54-2.54,7-2.42,10.87-2.19,3.1,0,6.56.13,10,.25l416.38,14.42" transform="translate(-0.89 -464.66)"/><path class="cls-10" d="M674.5,555s350.06,20.91,674.58,29.89c2.58.07,5.14.14,3.61-2.46,6.62,2.74,9.15,2.81,13.54-5.17.64,8.12,3.13,8.19,13.76.57-5.66,7.76-3.2,7.83,6.67,2.45-5,5.51-2.54,5.58,5.1.22-2.81,5.49-.41,5.56,5.66.3-1.31,5.39,1.06,5.46,6.77,1.55-1,4,1.3,4.1,5.24,1.33.68,2.9,3,3,5.93-1.31,1.59,4.4,3.84,4.46,8.22-.65.09,5.24,2.31,5.3,7.84-2.18-1.14,7.6,1,7.66,8.93,0-3.58,7.76-1.44,7.82,8.5.13-5.71,7.8-3.61,7.86,6,.84-1.83,2.38-2.82,4-3,4.88s.4,1.18.59.26c2.46.31,4.53-.55,5.92-5.06-.74,5.21-1.28,6.23-4.63,3.7,4.38,3.34,6,3.13,6.41-4,1.53,7.18,1.95,7.45,2.41-.23.94,8,1.92,8,7.85,1.43-.42,2.23-.31,3.73.2,4.73a2.27,2.27,0,0,0,2.21,1.4c1.44.56,2.81.52,3.63-.94,1.53,1.52,2.51,1.63,3.41-.29,1.17,2.08,2.26,2.14,4,.44.43,1.78,1.56,1.81,3.39,1,2.88.9,6.36,1,9.75,1.09l75.67,2.1" transform="translate(-0.89 -464.66)"/><path class="cls-11" d="M979.39,465.73c-44.22,43.7-47.61,63.7-55.84,74.78-2.31-1.29-4.73,1.68-7.16-.07a26.59,26.59,0,0,0-3.64.52,22.91,22.91,0,0,1-3.6-.59c-1.18,0-2.35,0-3.48,0a21,21,0,0,1-3.29-.11c-2.11-2.25-4.06,2.56-5.74,0-1-1.12-1.84-.19-2.61,0-.77,1.79-1.44-.26-2,0-1.1-1-1.71-.37-1.71,0-.91,1-1.7-1.24-2.4-.32-.71-.38-1.32-.8-1.86-.52-1.09,1.85-1.88-3.53-2.53-2.16-.66-1.12-1.17-.69-1.68-2.84-.39-1.93-.78-2.5-1.23-2.3-.45-1.16-1-1.11-1.6-1.8-.64,2.32-1.41-1.14-2.36-1.07-.95-.58-2.08.29-3.47-.91-.74,1.07-1.44.77-2.1.33-.67.83-1.3.51-1.9.19-.6-.67-1.17,1.42-1.72.88-.54,4-1.06.94-1.56.64-.5.07-1,.81-1.44,1.42-.46.19-.91-.13-1.35.74-.65.19-1.27,2.36-1.89,1.94-.62.54-1.23-.26-1.84,1.69-.61-.61-1.23-.21-1.87,1.23a5.12,5.12,0,0,1-2,1.75c-.7-.25-1.44.71-2.22.74a6.45,6.45,0,0,0-2.53.37c-.91.26-1.69.63-2.36-.44-.68-2-1.25-.36-1.75-1-.51.72-.94-1.79-1.33-1.48-.4.93-.75,3.11-1.09-1.49-.34,2.93-.68-.08-1-1.72-.35-2.62-.72-1.59-1.15-1.75s-.89,1.16-1.45-.51c-.55.13-1.19-2.33-1.93-2.37-.75-.44-1.6.17-2.6-.67-1,0-2.14-1.23-3.45-.52a2.79,2.79,0,0,0-4,.37c-1.23-.47-2.36-1.84-3.41,1-1.05.66-2,2.51-3,1.47-.69,2.06-1.35,0-2,1.29-.64.46-1.26.92-1.86,1.39a12,12,0,0,1-3.61,2.76c-1.21.35-2.46.41-3.83,2.26a1.56,1.56,0,0,0-2.15-.44c-.75-1.87-1.54.93-2.38,1.62-1,1-1.92-.82-2.76.7-.84-.49-1.6-1.1-2.31-1.57-.7.45-1.36.91-2-.88-.61-3-1.18-1.15-1.73-2-.55.18-1.09-2-1.62-1.64-.52-.36-1.05,1.42-1.59-2-.54.34-1.1-1.78-1.69-1.68-.59.86-1.22-1.37-1.9-1.4-.67-5.74-1.4-3.53-2.2-1.39-.8-1-1.67-1.22-2.63.09-.95-.47-1.87.05-2.76-.12-.89,1.05-1.75-1.59-2.59,1.09-.83,0-1.64,1.36-2.43,1.1-.79,2.51-1.56,1.34-2.32,1.31-.75-1.06-1.49-.72-2.23,1.2-.73,1.6-1.46-.51-2.18,1.9-.72-.77-1.44,1-2.17,1.41-.72,1.9-1.45.28-2.18,1.63s-1.48,1.93-2.24,1.25c-.37-1.79-.76,1.35-1.14-.4-.39,1.86-.78.89-1.18,1.35-1.26-2.27-2.5-.43-3.71-.11-1.21.05-2.37.18-3.46.32s-2.1.17-3-1c-.92-.81-1.72-2.79-2.39-1.2-1.34,1.69-2.14-1.49-2.14-1.43,0,2.08-.17-1.7-.54-.39-.37-1-.94,1.83-1.75-1-.4,1.92-.86.12-1.38,0-.52-3.48-1.1-2.69-1.75-1.33-.65,2.2-1.36-.65-2.14-.74-.78-1-1.64.57-2.56-.74-1.11.14-2.32-2-3.64-.84-.67-.24-1.36-1-2.07-1.27-.72-1.53-1.47,1.32-2.25.51-.77-1.18-1.58-3.1-2.41-.32-.84,2.62-1.71,2.76-2.6-.29-1.2.81-2.45-1.83-3.76-.3-.66.88-1.32.56-2,.16s-1.38-.89-2.09-.36c-.71-3.24-1.44.49-2.18-.91-.74-2.92-1.5-.51-2.27.83-1.38,1.84-2.71-1-4,.83-1.28-1.79-2.51,2.48-3.7-.06a13.23,13.23,0,0,1-3.41,2.19c-1.09.42-2.14-.49-3.14-.09-1,2.24-2,2.39-2.88,2.34-.91,4.56-1.79-2.52-2.62.75-.83,2.64-1.62-1.14-2.36,1.86-.75-.1-1.46.43-2.13,1.86-1.34-1-2.52,3.45-3.55,4-1,.21-1.93-.86-2.69,3.87-.75,2.58-1.37,2.39-1.87,3.41s-.86,1.91-1.12,2.59" transform="translate(-0.89 -464.66)"/></svg>