<?xml version="1.0" encoding="UTF-8"?>
<svg xmlns="http://www.w3.org/2000/svg" version="1.1" viewBox="0 0 2097 164.5">
  <defs>
    <style>
      .cls-1 {
        fill: none;
        stroke: #000;
        stroke-linecap: square;
        stroke-linejoin: bevel;
        stroke-width: 3px;
      }
    </style>
  </defs>
  <!-- Generator: Adobe Illustrator 28.7.8, SVG Export Plug-In . SVG Version: 1.2.0 Build 200)  -->
  <g>
    <g id="Calque_1">
      <polyline class="cls-1" points="2095.1 3.5 2037.7 61.2 1975.4 123.5 1937.2 161.6 1924.5 123.8 1903.6 61.2 1883 2.5 1881.1 2.5 1823.7 60.2 1761.4 122.5 1723.2 160.6 1710.5 122.8 1689.6 60.2 1670 2.5 1612.6 60.2 1550 122.8 1512 160.6 1499.7 122.8 1478.7 60.2 1459.5 2.5 1456.6 2.5 1399.2 60.2 1336.8 122.5 1298.6 160.6 1286 122.8 1265 60.2 1245.5 2.5"/>
      <line class="cls-1" x1="1293.6" y1="141.2" x2="1432.4" y2="2.5"/>
      <line class="cls-1" x1="1508.1" y1="143.2" x2="1648.9" y2="2.5"/>
      <line class="cls-1" x1="1719.1" y1="143.2" x2="1859.9" y2="2.5"/>
      <line class="cls-1" x1="1933.1" y1="144.2" x2="2073.9" y2="3.5"/>
      <g>
        <path d="M357.5,38.8h34.7v2.2h-32.2v38.1h30.2v2.3h-30.2v45.1h-2.5V38.8Z"/>
        <path d="M446.1,82c0,29-5.5,45.7-22.3,45.7s-22.1-14-22.1-45.6,8.1-44.5,22.5-44.5,21.9,12.6,21.9,44.4ZM404.2,81.9c0,30.8,6.3,43.4,19.6,43.4s19.8-17,19.8-43.3-5.6-42-19.6-42-19.8,11.7-19.8,42Z"/>
        <path d="M464.4,82.2v44.3h-2.5V38.8h17.4c12.2,0,19.7,6.9,19.7,21.2s-5.2,19.2-13.4,21.2c9.5,2.2,12.6,9.2,12.6,22.2v4.4c0,6.9.4,15.1,1,18.9h-2.6c-.5-3.9-.9-12.4-.9-18.9v-4.3c0-16.6-5.6-21.2-17.7-21.2h-13.6ZM464.4,80h14c10.9,0,18-5.9,18-20s-5.1-18.9-17.3-18.9h-14.8v38.9Z"/>
        <path d="M565.1,83.2c0-17.9,0-34,.4-42.3h-.1c-1.6,7.2-14.9,56.1-23.1,85.7h-3c-7.4-29.7-19-71.3-22.1-85.4h-.1c.4,8.7.4,30.6.4,45.6v39.8h-2.4V38.8h3.8c9.8,36.9,21,78.9,22,84.7h.1c1-5.2,13.3-49.9,22.8-84.7h3.9v87.8h-2.5v-43.4Z"/>
        <path d="M619.1,80.9h-30v43.4h33l-.5,2.2h-35V38.8h34.3v2.2h-31.8v37.6h30v2.2Z"/>
        <path d="M632.6,106.2c.4,11.8,6.9,19.3,17.5,19.3s17-7.6,17-19.9-4.7-18-16.8-24.1c-11.8-6-17.3-11.1-17.3-23.8s5.5-20,17.5-20,17.3,8.5,17.4,20.2h-2.4c-.3-11.7-5.6-17.9-15.2-17.9s-14.8,8.3-14.8,17.6,4,15.6,15.7,21.5c13.7,6.9,18.5,13.7,18.5,26.4s-5.1,22.2-19.7,22.2-19.5-11.2-19.9-21.6h2.5Z"/>
        <path d="M707,38.8h15.1c17.9,0,27.2,10.4,27.2,42.2s-7,45.6-27.7,45.6h-14.5V38.8ZM709.5,124.3h11.7c16.1,0,25.5-9.1,25.5-43.2s-7.6-40.1-24.4-40.1h-12.7v83.3Z"/>
        <path d="M797.4,80.9h-30v43.4h33l-.5,2.2h-35V38.8h34.3v2.2h-31.8v37.6h30v2.2Z"/>
        <path d="M835.7,38.8h2.5v85.5h32.1l-.7,2.2h-33.9V38.8Z"/>
        <path d="M870.1,59.5c3.5-8.9,4.5-18.5,4.6-24.5h2.5c-.2,9.9-2.4,19.6-4.7,24.5h-2.3Z"/>
        <path d="M891,38.8v87.8h-2.5V38.8h2.5Z"/>
        <path d="M909.9,126.5V38.8h3.6c31.9,73.7,34.5,79.6,36.5,84.4h.1c-.4-9.3-.3-25.5-.3-39.7v-44.8h2.5v87.8h-3.5c-32.5-74.9-34.8-80.6-36.8-85.2h-.1c.4,11,.4,24.8.4,40.9v44.3h-2.5Z"/>
        <path d="M981.8,41h-20v-2.2h42.6v2.2h-20.1v85.5h-2.5V41Z"/>
        <path d="M1016.1,38.8v87.8h-2.5V38.8h2.5Z"/>
        <path d="M1085.1,83.2c0-17.9,0-34,.4-42.3h-.1c-1.6,7.2-14.9,56.1-23.1,85.7h-3c-7.4-29.7-19-71.3-22.1-85.4h-.1c.4,8.7.4,30.6.4,45.6v39.8h-2.4V38.8h3.8c9.8,36.9,21,78.9,22,84.7h.1c1-5.2,13.3-49.9,22.8-84.7h3.9v87.8h-2.5v-43.4Z"/>
        <path d="M1139.1,80.9h-30v43.4h33l-.5,2.2h-35V38.8h34.3v2.2h-31.8v37.6h30v2.2Z"/>
      </g>
      <polyline class="cls-1" points="235.4 161.4 222.8 123.6 201.8 61 182.3 3.3 124.8 61 62.2 123.6 24.3 161.4"/>
      <line class="cls-1" y1="161.5" x2="158.2" y2="3.3"/>
    </g>
  </g>
</svg>