<?xml version="1.0" encoding="utf-8"?>
<!-- Generator: Adobe Illustrator 27.4.0, SVG Export Plug-In . SVG Version: 6.00 Build 0)  -->
<svg version="1.1" id="Calque_2_00000072249643404361439760000006098586913999314613_"
	 xmlns="http://www.w3.org/2000/svg" xmlns:xlink="http://www.w3.org/1999/xlink" x="0px" y="0px" viewBox="0 0 2047.7 641.8"
	 style="enable-background:new 0 0 2047.7 641.8;" xml:space="preserve">
<style type="text/css">
	.st0{fill:#E5007E;}
</style>
<g>
	<g>
		<path class="st0" d="M-5.1,100.6C101,39.5,242.6,1.8,365.3,13.8c65.3,7.1,107.9,31.5,158.8,70.4c18.6,13.6,38.1,26.6,60.3,33.5
			c44.4,13.4,93.8,4.4,134.2-17.3c40.9-21.1,77-57.1,125.1-60.4c7.3-0.6,14.7-0.3,22,0c10.2,0.6,20.5,1.9,30.5,4.1
			c42.1,8.8,73.8,34.1,101.9,65.4c15.8,17,30.7,35.1,49.4,48.9c27.9,21.4,65.6,23.7,97.8,11.1c21.6-8.3,40.4-22.3,58.7-36.5
			c18.4-14.4,36.5-29.3,56.3-41.9c29.5-19.3,63-32.7,98-37.8c58-7.7,118-0.8,173.3,17.7c44.3,14.8,85.5,37.7,131,48.6
			c102.6,24.3,212.2-3.5,301.6-56.4c30-17.9,58.2-39,83.3-63.3c0,0,0.4,0.4,0.4,0.4c-25.1,24.4-53.3,45.6-83.3,63.7
			c-89.5,53.4-199.4,81.5-302.5,57.6c-45.6-10.7-87.1-33.4-131.4-48c-67-22.1-155.5-29.7-222-2.9c-38.2,14.7-70.3,40.6-102,65.8
			c-27.4,21.7-58.4,42.9-94.5,44.7c-103.3,6.6-109-122.8-233.6-138c-5.5-0.7-11.8-1.2-17.3-1.4c-44-3.3-76.5,19.4-111.5,42.4
			c-19.6,12.7-39.9,24.8-62.1,32.4c-33.2,11.2-70.2,14.6-104.2,4.7c-45.3-13.8-78.8-50.3-120-71.7c-15.2-8.2-31.2-15.1-47.8-20
			c-50.1-15.2-103.4-14.7-155.1-9.8c-81,8.2-160.5,31.2-234.2,65.6c-10.5,5-21,10.2-31.1,15.9C-4.8,101.1-5.1,100.6-5.1,100.6
			L-5.1,100.6z"/>
	</g>
	<g>
		<path class="st0" d="M-5,132.7C106.8,60.5,263.3,12,396.5,36.4c34.8,6.7,67.9,21,97.3,40.7c19.6,12.8,37.8,27.5,57.7,39.6
			c30.7,19.3,63.5,25.9,99.4,21.8c49.3-4.7,85.6-30.6,125.6-56.9c17.2-11,35.6-21.1,55.7-25.6c11.4-2.7,23.4-3.3,35.1-2.7
			c38.6,1.1,75.7,15,104.9,40.3c18,15,33.3,32.9,49.6,49.7c16,16.5,34,32.2,56.2,39.3c21.9,7,46,5.9,67.7-1.5
			c44.4-15.9,75.9-53.1,114.4-78.9c24.1-16.8,50.9-30.2,79.5-37.4c25.6-6.7,52.4-8.5,78.8-7.6c29.3,0.9,58.6,4.6,87,11.8
			c42.7,10.6,82.2,30.6,123.5,45.1c77.2,27.8,163.1,22.8,240.2-2.9c66.3-22.2,128.1-58.8,178.5-107.5c0,0,0.4,0.4,0.4,0.4
			c-50.3,49-112,85.9-178.4,108.5c-49.9,16.9-103,25-155.6,21.6c-41.1-2.4-80.9-14.3-118.7-30c-33.7-13.8-67.6-27.6-103.3-35
			c-9.6-2-20.3-3.9-30.1-5.1c-18.7-2.4-37.8-3.4-56.6-3.4c-52.9,0-99.4,14.8-142.5,45.3C1224,132,1191.9,169.3,1147,185
			c-34.1,11.7-72.9,6.9-101.4-15.7c-18.8-14.3-33.8-32.5-49.9-49.5c-33.4-36.4-69.5-59.9-119.8-63.9c-39.7-4-65.4,6.1-98.4,27.4
			C758,96,739,109.9,718.2,120.7c-31.2,16.7-66.9,24.7-102.3,22.1c-23.7-1.6-46.6-10-66.8-22.1c-20.2-11.9-38.6-26.5-58.3-39.1
			c-29-19.1-61.3-33.2-95.4-40c-96.7-18.3-199.8,2.1-290.5,37.1c-27.1,10.7-53.7,22.8-79.3,36.8c-10.2,5.6-20.4,11.4-30.2,17.7
			C-4.7,133.2-5,132.7-5,132.7L-5,132.7z"/>
	</g>
	<g>
		<path class="st0" d="M-4.9,164.8C95.7,93.1,223.8,43.7,348.5,48.7c38.2,1.6,76.8,9,111.6,25.2c21.5,9.8,41.2,23,60.5,36.5
			c19,13.3,38.1,27.1,59.7,35.5c18.7,7.5,39.4,10.4,59.4,9.7c38.1-0.7,74.3-15.4,105.7-36.2c31.8-20.3,62.6-46.1,101.1-51.5
			c14.6-1.9,29.5-1.2,44,0.7c113.9,14.5,127,127.5,221,128.7c101.5,1.2,133-124.5,278.8-132.8c20.5-1.2,41.2-0.3,61.7,1.6
			c26.3,2.6,52.4,8,77.6,16c33.6,10.5,65.4,25.7,98.7,37c33.1,11.4,67.9,17.7,102.9,18.4c117.1,2.5,232.4-49.3,316.2-129.8
			c0,0,0.4,0.4,0.4,0.4c-83.7,81.1-199.2,133.4-316.7,131.5c-23.4-0.5-47-3.2-69.8-8.5c-45.8-10.3-88-32.2-132.7-46
			c-22.3-6.9-45.1-11.8-68.3-14.5c-14.4-1.6-29.1-2.6-43.6-2.7c-57.4-1.8-108.7,15-154.2,49.8c-28.3,20.8-53.1,46.3-83.4,64.6
			c-30.2,18.8-69,25.1-102.8,12.6c-33.9-12.4-56.7-41.9-81.3-66.6c-16.3-16.6-34.2-32-55.1-42.4c-20.8-10.5-44-15.7-67.2-16.8
			c-10.9-0.6-21.8-0.2-32.5,1.9c-23.7,4.8-44.8,17.4-64.6,30.8c-44.4,31.3-83.7,57.1-140.4,57.7c-47.8,1.4-80.1-18.3-117.8-44.8
			C484.4,91,448.6,71,408.6,62c-28.2-6.8-57.6-9.1-86.5-8.8C205.1,54.8,90.9,101.7-4.9,164.8L-4.9,164.8z"/>
	</g>
	<g>
		<path class="st0" d="M-4.8,196.8c36.7-29.3,77.1-53.9,119.3-74.6C206.4,77,312.8,52.4,414.4,75.1c26,5.9,51,16.1,74.1,29.4
			c20.4,11.7,39.3,25.9,59,38.6c19.5,12.6,40.7,22.8,63.7,26.5c46.8,7.9,93.4-5.6,132.6-31.4c34.4-21.6,66.7-51,108.4-56.8
			c4.1-0.5,9.1-1,13.3-1c0,0,2.2-0.1,2.2-0.1s2.2,0.1,2.2,0.1c3.4,0.1,10,0.1,13.2,0.5c2.2,0.2,6.6,0.6,8.8,0.8
			c4.2,0.6,8.9,1.2,13.1,2c23.2,4.4,45.4,14.1,64.5,28c28.8,20.4,50.4,49.2,78.1,70.9c27.1,22,64.1,29.9,97.9,21.5
			c22.6-5.5,42.6-18.3,60.6-32.8c27.3-22,52.6-47.3,82.7-65.9c35-22.4,76.3-34,117.8-34.5c16.2-0.2,32.5,0.5,48.5,2
			c24.9,2.4,49.6,7.4,73.5,14.7c33.8,10.2,65.7,25.2,99.2,36.2c22.2,7.4,45,12.8,68.3,15.6c81.7,10.5,164.9-8.8,237.6-46.3
			c41.6-21.5,80.5-48.6,113.8-81.6c0,0,0.4,0.4,0.4,0.4c-66.9,65.7-154.1,111.5-246.7,127.4c-34.8,5.8-70.5,6.5-105.5,2.3
			c-35.1-4-69.2-14.5-102-27.3c-34.8-13.6-69.7-27-106.5-33.5c-11.4-2-23.2-3.6-34.7-4.6c-75.3-6.6-130.2,5.2-189.8,53.3
			c-27.7,21.7-52.3,47.8-83.2,65.3c-42.1,24.6-96.2,21.7-134.1-9.6c-18.6-14.6-34-32.5-50.9-48.7C967.7,110,938,91,900.3,85
			c-4-0.6-8.9-1.4-13-1.7c-5.1-0.6-12.3-0.8-17.5-1c0,0-2.2-0.1-2.2-0.1s-2.2,0.1-2.2,0.1c-4,0-9,0.5-13,0.9
			c-17.3,2.4-33.9,9.1-48.9,17.9c-30.5,17.7-57,41.4-89.2,56.5c-42.5,20.4-94.1,24.7-138.1,6.1c-21.9-9.1-41.3-22.9-60.9-36
			c-19.4-13-39.4-25-60.9-33.9c-16-6.8-32.9-11.7-49.9-15.3c-133.7-26.2-270,24.9-380.5,98.3c-9.7,6.6-19.3,13.3-28.5,20.5
			C-4.4,197.3-4.8,196.8-4.8,196.8L-4.8,196.8z"/>
	</g>
	<g>
		<path class="st0" d="M-4.7,228.9c93.3-79,219.5-144.4,344-144c38.4,0.1,77.4,5.1,113.4,18.8c22.2,8.3,43.1,19.9,62.9,32.9
			c19.8,12.8,38.7,26.8,59.8,36.7c42.2,20.1,92.9,18.5,135.4,0.1c21.6-9.2,41.1-22.5,60.2-36c31.3-22.4,64.1-44.9,104.3-43.6
			c0.5,0,9.9,0.3,10,0.3c0.8,0.1,2.5,0.2,3.3,0.3c115.9,7.8,130.3,113.3,222,122.1c36.7,3.9,67.8-9.6,96.1-32.3
			c40.8-33.1,77.8-74.2,128.6-92.6c27.7-10.6,57.7-14.7,87.3-13.9c35.4,0.4,70.9,5.3,104.8,15.4c45.2,13.2,87.5,34.8,133.6,44.8
			c45.8,10.1,93.5,11.7,139.8,4.4c92.5-15.6,179.9-61.4,246.7-127c0,0,0.4,0.4,0.4,0.4c-33.2,33.4-72.1,60.9-113.7,82.8
			c-84.1,44.5-180.2,62.6-273.8,41.7c-46.2-9.8-88.8-31.1-134-44.1c-22.5-6.6-45.6-10.8-68.9-13c-61.7-5.8-115.1,0.8-166.8,37
			c-29.2,19.9-53.5,45.7-81.2,67.5c-24.6,19.6-53.7,33.8-85.9,33.5c-107.1-0.5-114.1-117.6-238.5-125c0.3,0-9.6-0.3-9.9-0.3
			c-26.5-1-52,9.1-74,23.3c-29.8,18.9-56.7,42.5-89.3,56.9c-43.2,19.4-95.1,21.4-138.4,1.3c-21.6-9.8-40.9-23.7-60.7-36.4
			c-38.9-26-83.2-43.1-129.8-48.3c-11.5-1.3-23.4-2.3-34.9-2.6c-58.6-2.2-116.8,10.9-171.2,32.1c-54.6,21.5-106,50.8-153.4,85.4
			c-9.4,7-18.8,14.1-27.8,21.7C-4.3,229.4-4.7,228.9-4.7,228.9L-4.7,228.9z"/>
	</g>
	<g>
		<path class="st0" d="M-4.6,261c43.4-40,92.2-74.2,144.2-101.9c50.9-26.9,106.1-47.2,163.6-53.8c1.1-0.2,3.3-0.4,4.4-0.5
			c5.9-0.4,12.1-1.2,17.8-1.3c3.9-0.1,9.9-0.3,13.4-0.4c3.1,0,10.2,0.1,13.3,0.2c44.5,0.9,89.4,9.2,129.5,29.1
			c42.6,20,77.6,54.9,123.7,66.6c33.9,8.4,70.5,5.5,103-7.4c21.9-8.6,41.6-21.6,60.7-35.2c19.2-13.7,38.1-28.2,59.7-38
			c16.2-7.4,34-11.6,51.8-11.1c0,0,8.9,0.2,8.9,0.2c122.6,6.2,132,119,237.7,119.5c114.2-0.8,132.6-150.6,306.8-142.4
			c19.1,0.7,38.5,2.5,57.4,6c46.8,8,90,28.3,134.9,42.8c44.8,14.3,92.3,20,139.2,17.5c47-2.8,93.2-15.2,136.3-33.8
			c53.9-23.5,104.2-56.2,145.7-98c0,0,0.4,0.4,0.4,0.4c-33.1,33.7-72.1,61.3-113.7,83.4c-52.2,27.4-109.6,46.1-168.6,49.9
			c-23.5,1.4-47.4,0.4-70.8-2.2c-35.3-4-69.6-14-102.8-26.3c-33.1-12.2-66.3-24.4-101.2-30.3c-17.2-3-35-4.8-52.5-5.4
			c-29.1-1.3-58.8,0.9-86.5,10.3c-33.6,10.9-62.5,31.7-88.6,55.2c-40,35.7-77.8,78.1-136,77c-107.7-1-116.7-115.2-237.8-121.4
			c-8.5-0.3-17.9-0.6-26.3,0.6c-17.4,2.2-34,9.1-49.2,17.9c-15.2,9-29.3,19.6-43.7,29.9c-39.7,29.7-79.6,50.7-130.5,49.4
			c-37.1,0.1-69.5-14.5-100-34.4c-29.5-19.1-59.4-38-93-49c-30.5-10.1-62.7-14.7-94.8-15.7c0,0-8.8-0.2-8.8-0.2
			c-1.5,0-2.9-0.1-4.4-0.1c0,0-4.4,0.1-4.4,0.1l-8.8,0.2c-2.9,0-5.8,0.3-8.8,0.5c0,0-8.8,0.6-8.8,0.6S306,110,306,110
			s-2.2,0.3-2.2,0.3C211.5,120.7,126,164.2,51.1,217.5c-19.1,13.8-37.7,28.3-55.2,44C-4.2,261.5-4.6,261-4.6,261L-4.6,261z"/>
	</g>
	<g>
		<path class="st0" d="M-4.5,293.1c83.2-80.3,194.7-154,311.3-169.3c2.4-0.4,10.6-1,13.3-1.3c5.9-0.7,11.9-0.7,17.9-0.9
			c23.8-0.4,47.7,0.9,71.2,4.8c35.4,5.6,69.6,18.4,100.3,36.6c20.6,11.9,39.8,25.8,60.5,36.8c41,22.9,91.6,25.9,135.6,10
			c33.6-11.9,61.5-34.6,90.1-55c22.8-16.3,48.2-31.1,76.7-33.5c0,0,2.2-0.2,2.2-0.2s2.2-0.1,2.2-0.1c17.8-0.7,35.7,1.1,53,5.6
			c80.9,20.2,105.3,102,187.7,109.6c33.3,3.8,63.3-5.8,89.8-25.9c37.6-28.3,67.6-66.8,108.9-90.8c30.8-18.5,66.6-27.8,102.4-28.2
			c11.7-0.2,23.9,0.2,35.6,1.1c11.6,0.8,23.9,2.2,35.4,4.2c35.2,5.7,68.9,17.9,102.1,30.2c117.9,44.8,230,38.6,341.7-20.4
			c41.7-22.1,80.8-49.7,113.9-83.4c0,0,0.5,0.4,0.5,0.4c-35.1,36-76.9,65.2-121.6,88.1c-96.8,49.6-197.2,60.3-301.6,29.1
			c-33.9-10.2-66.7-24.3-101-33.2c-17.1-4.5-34.5-7.7-52-9.7c-17.4-1.9-35.4-2.7-52.8-2.4c-64.3,1.1-110.1,28.2-155.4,71.6
			c-26,24-51.1,51-84.4,65c-22.2,9.5-47.2,11.2-70.8,7.1c-23.8-3.8-45.7-15.5-64.2-30.5c-27.5-22.2-50.7-49.9-82.2-66.7
			c-25.8-14.2-55.7-19.8-84.9-18.7c-2.8,0-6.1,0.5-8.7,0.8c-72.1,10.1-110.6,85.8-196.2,97.8c-35.5,5.4-72.7-0.5-104.3-17.7
			c-21.1-10.9-40.5-24.6-61-36.3c-41.9-24.5-85.1-36.6-133.4-40c-20.5-1.4-41.1-1.6-61.5,0.5c-26.3,2.8-52.2,8.6-77.3,16.9
			c-78.4,26-149.2,71.7-212.2,124.6c-9,7.7-17.9,15.5-26.3,23.7C-4,293.5-4.5,293.1-4.5,293.1L-4.5,293.1z"/>
	</g>
	<g>
		<path class="st0" d="M-4.4,325.2c80.1-81.7,187-159.5,301.4-180.8c29.4-5.4,59.6-5.5,89.3-3c0,0,4.5,0.4,4.5,0.4
			c1.2,0.1,3.3,0.3,4.5,0.5c8.8,1,18,2.3,26.6,4c29.4,5.6,57.9,15.9,84.1,30.4c31.4,16.8,59.3,39.4,93.1,50.8
			c33.3,11.2,70.2,11.2,103.7,0.6c45.9-14.1,80.1-49.6,120.3-74.1c24.9-14.8,47.9-21.1,76.9-19.2c50.1,2.9,82.4,23.3,118.7,56
			c17.6,15.6,35.3,31.6,56.4,42.2c31,15.5,69.2,18.9,101.9,7.1c33.4-12.4,58.4-39.1,83.6-63.3c21.3-20.8,43.8-41,70.2-55.2
			c21.1-11.4,44.4-18.7,68.2-21.6c29.6-3.4,59.7-1.4,89.2,2.9c47.3,6.7,91.2,26.5,136.4,40.3c67.8,20.1,141.4,24.5,210.1,6.7
			c80-21.1,154.7-63.9,212.8-122.8c0,0,0.5,0.4,0.5,0.4c-33,34.2-72.1,62.1-113.8,84.6c-41.8,22.4-87,39.1-133.9,46.6
			c-58.7,9.1-119.5,3.5-176.4-13.1c-45.3-13.5-89.1-32.8-136.3-39.2c-17.5-2.5-35.2-3.9-52.9-4c-11.8-0.3-23.5,0.3-35.2,1.7
			c-56.9,7.1-96.1,36.9-135.5,76c-25.6,24.7-51.2,51.7-85.4,64.1c-22.7,8.4-47.7,8.6-71.3,4.1c-85.4-18.2-102.7-105.2-207.4-111.4
			c-42.5-3.3-72.2,13.9-105.1,38.6c-40.2,30.6-77.9,59.9-130.5,63.7c-22.3,1.8-45.4-0.4-66.6-7.5c-22.8-7.4-43.4-20.1-63.7-32.5
			c-20.1-12.3-40.6-24-62.6-32.6c-38.3-15.3-79.7-20.9-120.8-21.4c-17.6-0.4-35.3,1.2-52.6,4.1c-93.5,16.8-176.6,69.2-249.2,128.5
			C30.4,293,12.7,308.7-3.9,325.6C-3.9,325.6-4.4,325.2-4.4,325.2L-4.4,325.2z"/>
	</g>
	<g>
		<path class="st0" d="M-4.3,357.3C44,304.6,99.2,258.1,160,220.6c57.1-34.7,121.7-61.8,189.5-62.5c5.1,0,12.8,0.1,17.9,0.2
			c34.4,1.1,69,6.3,101.5,17.8c22.6,8,44,19.3,64.4,31.7c20.3,12.2,40.2,25.2,62.4,33.5c32.9,12.4,70,14.1,103.9,4.7
			c22.8-6.3,43.8-18,63.1-31.5c30.4-20.9,58-47.9,93.6-60.3c7-2.4,14.5-4.3,21.8-5.2c1.8-0.2,5.1-0.6,6.7-0.7
			c6.8-0.4,13.5-0.2,20.2,0c46,2.6,78.3,21,112.3,50.5c27.2,23.4,53.6,46.6,89.7,54.4c70.1,15.1,107.7-15.7,154-63.2
			c29-29.6,61-59.2,100.9-73.3c16.9-6.2,34.8-9.8,52.8-11c11.9-0.9,23.9-0.6,35.9-0.1c47.9,1.4,94.3,15.3,139.1,31.4
			c33.6,11.8,68.1,21.3,103.5,25.2c10.4,1.3,20.6,2,31,2.6c11.1,0.5,24.4,0.9,35.6,0.6c19.3-0.5,38.5-3,57.3-6.8
			c86.1-18.6,168.9-64.9,230.4-127.8c0,0,0.5,0.4,0.5,0.4c-32.9,34.4-72.1,62.5-113.9,85.2c-57.5,30.9-122,51.7-187.7,51
			c-29.7-0.1-59.7-2.7-88.8-8.6c-46.8-9-90.7-28.9-136.9-39.9c-34.5-8.1-70.3-11.2-105.6-9.1c-5.6,0.4-12,1.2-17.5,2.1
			c-123.2,19.3-147.2,149.3-255.6,149.3c-38.3,0.1-70-12.9-99.4-36.9c-27.6-22.2-52.6-48.7-86-62.2c-21.7-9.1-45.8-12.7-69.3-11.8
			c-3.1,0.1-5.8,0.5-8.8,0.8c-45.2,6-78.6,39.8-114.4,65.1c-19.4,14-40.4,26.1-63.5,32.9c-34.6,10.2-72.6,8.8-106.4-3.6
			c-22.6-8.2-42.9-21.2-63.5-33.2c-20.4-12-41.3-23-63.6-30.7c-33.4-11.7-68.8-16.9-104.2-17.8c-23.5-1-47.3,1-70.3,6
			c-92.9,20.9-174,76.8-245,138.4C29.8,324,12.5,340.3-3.8,357.7C-3.8,357.7-4.3,357.3-4.3,357.3L-4.3,357.3z"/>
	</g>
	<g>
		<path class="st0" d="M-4.1,389.3C71.6,304,174.4,217.1,285.9,185.9c49.4-13.7,102-11.4,152-1.5c20.6,4.4,40.8,11.1,59.9,19.9
			c21.9,9.9,42.2,22.7,62.9,34.7c31.1,18.5,64.1,29.9,100.6,29c103-0.8,139.7-93,221.8-105.4c9-1.3,18-1.1,27-0.7
			c27,1.4,53.7,9.5,76.6,24c20.4,12.6,38,29,56.8,43.7c34.2,27.3,70.8,40.4,114.7,36.8c29.6-2.5,56-18.2,77.6-37.9
			c26.6-24,49.1-52.1,77.5-74.4c14.2-11.2,29.8-20.8,46.5-27.8c18.1-7.5,37.5-12,57-13.5c10.4-0.9,21.1-0.8,31.5-0.5
			c48.1,0.9,94.9,14,139.9,29.9c22.6,7.6,45.4,14.5,68.7,19.2c35,7,70.9,9.6,106.5,8.8c71.6-3,140.5-30.2,200.7-68
			c30.1-19.2,58.6-41.3,83.1-67.3c0,0,0.5,0.4,0.5,0.4c-24.6,26.1-53,48.4-83.1,67.7c-60.3,38.2-129.3,65.8-201.1,69.1
			c-35.8,0.9-71.9-1.5-107.1-8.4c-47-8.8-91.2-28.4-137.7-38.8c-23.2-5.2-46.9-7.8-70.6-8.5c-17.8-0.5-35.5,0.2-52.9,3.7
			c-118.8,23-141.9,156.2-254.8,151.1c-37.7-0.7-70.3-15.3-99.2-38.9c-18.7-14.8-36-31.3-56.2-44c-22.4-14.4-48.6-22.6-75.2-24.2
			c-8.9-0.4-17.8-0.6-26.6,0.6c-91.5,13.8-126.3,125.8-258.1,104.5c-23.8-4-46.3-14.1-67.2-25.9c-20.8-11.7-41-24.2-62.7-33.9
			c-35-16-73.2-24-111.5-26.5c0,0-8.9-0.5-8.9-0.5s-4.4-0.2-4.4-0.2c-1.5-0.1-3-0.1-4.4-0.1c-50.5-2.5-100.3,11.7-145.5,33.3
			C135.1,257.2,60.6,320-3.7,389.8C-3.7,389.8-4.1,389.3-4.1,389.3L-4.1,389.3z"/>
	</g>
	<g>
		<path class="st0" d="M-4,421.4c61.8-73,134-139.1,218.1-185.3c59.7-32,114.8-46.7,182.6-39.9c17.9,1.4,36.1,4.1,53.6,8.4
			c14.7,3.6,29.1,8.2,43.1,14c22.3,9.1,43.2,21.4,63.9,33.3c20.6,11.8,41.9,22.6,65.2,27.8c23,5.1,47.2,5.9,70.5,1.6
			c82.9-14.8,123.5-98.1,199.6-105.7c0,0,2.3-0.2,2.3-0.2s2.3-0.1,2.3-0.1c18.1-0.8,36.3,1,53.7,6c23.4,6.4,44.3,19.3,63.3,34
			c28,21.8,55.5,46.3,90.5,55.5c17,4.9,34.9,6.5,52.6,5.9c17.6-0.8,34.9-5.7,50.4-14.2c20.8-11.4,38-28.2,54.4-45.3
			c28.6-30.3,57.5-63,96.1-81.1c27.3-13.2,58.1-18.3,88.3-17.2c24,0.4,48.1,3,71.6,8.2c35.2,7.5,68.7,21,103.4,30.6
			c23,6.5,46.5,11,70.2,13.8c23.6,2.7,47.7,3.8,71.5,3.4c32.8-1,65.4-7.7,96.5-18c70.5-24,136.3-64.3,187.9-118.3
			c0,0,0.5,0.4,0.5,0.4c-41.1,43.6-91.9,77.6-146.2,102.7c-32.7,14.8-67.3,26.1-102.8,31.6c-20.6,3.2-42,4-62.8,3.3
			c-51.1-0.8-101.6-10.7-150-26.7c-45.3-15.1-91.9-26.9-139.9-26.7c-23.7-0.6-47.5,2.3-69.8,10.4c-45.8,15.9-78.5,52.7-110.9,87.1
			c-29.8,31.6-62.6,59.1-108.1,60.6c-18.2,0.6-36.4-1.3-54-6.4c-75.2-22.2-99-92-188.4-97.1c-6.7-0.3-13.4-0.5-20-0.1
			c-2.9,0.3-4.1,0.5-6.6,0.7c-14.7,1.9-28.9,7.1-41.9,14.1c-31.7,17.1-57.3,42.9-87.2,62.9c-29.3,20.1-61.4,32.4-97.2,32.6
			c-57.3,0.7-90.9-23-138.7-49c-28.8-15.4-59.7-26.6-91.9-32.3c-49.5-8.5-101.3-10.1-149.6,5.8c-91.2,29.5-168.2,91.2-236.3,157.1
			c-17,16.8-33.6,34.1-49.1,52.2C-3.5,421.8-4,421.4-4,421.4L-4,421.4z"/>
	</g>
	<g>
		<path class="st0" d="M-3.9,453.5c81.3-99.8,215.8-228.1,349.6-239.9c10.2-0.9,21.6-0.6,31.8-0.5c13.3,0.5,27.5,1.4,40.7,3.1
			c36.1,4.3,71.5,14.9,103.9,31.5c21.5,10.7,41.9,23.7,63.5,33.9c32.1,15.6,68.6,21.8,103.9,16.9c97.4-13.4,134.4-117.3,230.9-109.6
			c86.7,4.7,110.9,68,183.1,90.5c16.9,5.3,35,7.3,52.7,7.4c85.9,0.4,120.6-88.9,184.8-130.8c20.1-13.8,43.1-23.2,67.1-27.4
			c12-2.1,24.2-3,36.3-2.9c24.1,0.1,48.3,2.4,72,7.2c35.4,7.1,69.2,20.3,104,29.7c46.3,12.7,94.4,17.6,142.3,17
			c84.3-2.6,164.4-39.7,231.4-89.2c19.1-14.5,37.3-30.2,53.6-47.9c0,0,0.5,0.4,0.5,0.4c-16.3,17.7-34.5,33.6-53.6,48.1
			c-67.1,49.7-147.2,87.5-231.8,90.4c-48.1,0.9-96.5-3.9-143-16.4c-34.8-9.1-68.8-21.9-104.1-28.5c-29.3-5.4-59.3-7.8-89.1-5.7
			c-11.8,0.9-23.5,3.1-34.9,6.3c-54.1,15.2-88.3,57.9-125.2,97.3c-24.6,26.4-54.9,51.1-91.9,55.6c-8.7,1.4-18.6,1.4-27.4,1
			c0,0-2.3-0.1-2.3-0.1s-2.3-0.2-2.3-0.2c-25.8-1.6-51.3-9-73.5-22.1c-46.6-27.6-73.1-65.5-131-75.3c-52.5-8.7-83,6.2-123.6,37.9
			c-28.3,22.1-55.7,46.9-89.4,60.7c-33.7,14.2-72,15.3-107.2,6.5c-23.6-6-45.3-17.4-66.4-29c-20.9-11.6-42.1-22.7-64.6-30.8
			c-44.7-16.2-93.2-21.1-140.6-19.3c-23.7,1.6-47,7.3-69.4,15.4c-90,33.8-165.1,98-231.9,165.7c-16.7,17.3-32.9,35-48.2,53.5
			C-3.4,453.9-3.9,453.5-3.9,453.5L-3.9,453.5z"/>
	</g>
	<g>
		<path class="st0" d="M-3.8,485.6c80.7-103.1,223.9-247.5,361.7-254.1c3.1-0.1,6.2-0.2,9.2-0.1c5.6,0.1,12.7,0.1,18.2,0.4
			c18.2,0.7,36.4,2.4,54.3,5.5c26.9,4.7,53.4,12.8,78.2,24.4c22,10,42.7,22.7,64.2,33.3c24,12.1,50.1,19.8,77,21.1
			c20.8,1.1,41.9-1.1,61.6-8.1c34.4-11.8,62.4-35.7,90.2-58.4c18.7-15.2,38.2-30.1,60.9-39.1c16.9-7,35.5-9,53.7-7.8
			c105.9,5.9,120.5,101.9,247.1,93.7c93.8-8.9,119.7-123.1,215.4-154.4c14.5-4.9,29.6-7.7,44.8-8.7c27.3-1.3,54.7,0.8,81.5,5.8
			c47.5,9,92.3,28.3,139.9,36.6c23.6,4.4,47.7,7,71.6,8.1c63,4.5,117.9-7.2,175.2-33.5c54.5-25.2,105.5-59.5,146.5-103.7
			c0,0,0.5,0.4,0.5,0.4c-55.6,59.9-135.5,107.8-214.5,129c-21.1,5.5-43,9.1-64.8,10.1c-17,0.5-35,0-52.1-0.9
			c-33.2-1.9-66.2-6.8-98.3-15.1c-35-8.8-69.1-21.4-104.7-27.5c-26.5-4.6-53.6-6.4-80.5-4.9c-8.9,0.7-17.8,1.9-26.5,3.8
			c-62.8,13.4-98.4,62.8-139.7,107c-12.6,13.1-26.2,25.7-41.9,35.2c-26.6,16.2-53.6,19.7-84.1,16.8
			c-105.6-8.7-123.2-99.7-233.6-95.6c-96.3,6.5-131.3,126.5-257.6,114.6c-51.4-3.5-89.3-32.2-134.3-52.7
			c-32.6-15-67.8-23.6-103.5-27.2c-11.9-1.2-24-1.9-35.8-2.1c0,0-9-0.2-9-0.2s-2.2,0-2.2,0s-2.2,0-2.2,0s-4.4,0.1-4.4,0.1
			c-1.5,0-3,0.1-4.4,0.2c0,0-4.4,0.3-4.4,0.3c-3,0.2-5.9,0.6-8.9,0.9C225.7,254.9,121.1,350,44,431.3C27.6,449,11.7,467.1-3.3,486
			C-3.3,486-3.8,485.6-3.8,485.6L-3.8,485.6z"/>
	</g>
	<g>
		<path class="st0" d="M-3.7,517.7c69.9-92,163.2-190.2,267.9-241.5c22-10.4,45.2-18.8,69.3-23.3c24.1-4.7,48.8-3.6,73.1-1.9
			c24.3,1.7,48.6,5.7,72,12.4c76.2,21,118.4,73.1,203.3,68.7c50.5-2,89.6-31.4,126.6-62.9c20.9-17.4,42.4-35.1,67.9-45.3
			c2.2-0.9,6.2-2.2,8.6-3.1c1.8-0.5,5-1.4,6.6-1.8c11.1-2.8,22.7-3.6,34.1-3.2c81,2.2,107.6,57.3,174.7,80.9
			c16.9,5.9,34.9,8.9,52.7,9.8c17.8,0.9,35.9-0.5,52.7-6.8c57.9-22.1,86.2-82.6,132.7-120.1c33.8-28.7,74.9-42.1,119.1-39.9
			c0,0,9.1,0.3,9.1,0.3s4.6,0.1,4.6,0.1c6.9,0.5,7.7,0.7,13.6,1.1c0,0,4.5,0.4,4.5,0.4c0.8,0.1,1.5,0.1,2.3,0.2c0,0,2.3,0.3,2.3,0.3
			s9,1.3,9,1.3c3,0.5,6,0.8,9,1.4c0,0,9,1.7,9,1.7s4.5,0.9,4.5,0.9c1.5,0.3,3,0.7,4.4,1c17.3,3.8,35.6,9.4,52.6,14.3
			c28.9,8.6,58.2,16.2,88.2,20.3c8.1,1.3,18.8,2.4,27,3.2c0,0,4.5,0.5,4.5,0.5s2.3,0.2,2.3,0.2s2.3,0.1,2.3,0.1s18.1,1.1,18.1,1.1
			c6,0.5,12.1,0.4,18.1,0.6c9.6,0.2,17.7,0.5,27.2,0.1c33.2-1.4,65.9-9,97.1-20.2c67.7-25.2,131-65.1,180.1-118.3
			c0,0,0.5,0.4,0.5,0.4c-49.2,53.4-112.5,93.5-180.2,119.2c-31.3,11.5-64.1,19.2-97.5,20.8c-9.2,0.4-18.3,0.1-27.3,0
			c-10,0.1-26-0.9-36.3-1.5c0,0-2.3-0.1-2.3-0.1s-2.3-0.2-2.3-0.2c-7.2-0.7-15.5-1.5-22.6-2.3c-8.9-1.4-18.2-2.3-27-4.1
			c-47.8-7.8-93.3-26.2-141-33.9c-5.9-1-14.1-1.9-20.1-2.7c-6-0.5-14.2-1.1-20.2-1.5c-10.3-0.1-21.3-0.8-31.5-0.1
			c-36.5,1.8-70,15.5-97.8,39.2c-46.5,37.9-75.6,98.9-134.3,120.8c-17.4,6.4-36.2,7.8-54.6,6.7c-18.3-1-36.6-4.2-53.9-10.3
			c-69-24.9-94-81.5-177.9-82.5c-16.5-0.5-33,2.9-48,9.5c-45.9,20.5-78.2,61.6-121.7,86.2c-32.8,19.3-68.1,25.5-105.9,20.7
			c-36.7-3.8-69.7-21.9-101.9-38.6c-55.8-29.8-115.1-41.1-178-40.4c-102.8,2.6-201.9,85.3-272.5,154c-25.7,25.5-50.3,52.2-73.6,80.1
			c-7.7,9.3-15.4,18.7-22.7,28.3C-3.2,518.1-3.7,517.7-3.7,517.7L-3.7,517.7z"/>
	</g>
	<g>
		<path class="st0" d="M-3.6,549.7C74.9,442.6,223.8,276.5,364,268.1c27.5-0.6,55.2,0.9,82.3,5.4c21.2,3.5,42,8.9,62.1,16.6
			c34.2,12.5,65.3,33.1,99.1,45.9c22.5,8.5,46.5,12.5,70.6,12.5c24.1,0.2,47.9-6.1,69.3-17.2c57.7-28.8,97.6-94.3,165.1-101.4
			c32.1-2.9,64.9,4.5,92.7,20.6c31.7,18.2,59.1,42.8,93.8,54.8c30.8,11.1,74.4,16,106,6.3c47.4-14.5,75.7-57.8,107.3-93.3
			c16.2-18.3,33.9-35.7,54.9-48.6c21-13,45.2-20.7,69.7-22.6c11.4-1.2,25.4-0.5,36.7-0.2c1.5,0,3,0.2,4.6,0.3c0,0,4.6,0.4,4.6,0.4
			s9.1,0.8,9.1,0.8s2.3,0.2,2.3,0.2s2.3,0.3,2.3,0.3s4.5,0.6,4.5,0.6c36.4,4.3,71.2,16.5,106.4,25.6c20.4,5.3,41.4,9.7,62.3,12.5
			c20.1,3,43.1,4.6,63.4,5.5c12,0.2,16.9,0.3,27.3,0.5c12.1,0,24.2-0.8,36.2-2.4c36-4.9,71-16.4,104-31.6
			c54.7-25.7,106.1-60.5,146.8-105.5c0,0,0.5,0.4,0.5,0.4c-38.6,42.9-87.1,76.4-138.6,102.2c-35.4,17.3-73.3,30.6-112.5,36.1
			c-12.1,1.7-24.2,2.6-36.4,2.6c-7.2-0.1-20.7-0.3-27.4-0.4c-20.3-0.8-43.5-2.3-63.6-5.2c-30.2-3.9-59.9-11.1-89.1-19.2
			c-26.3-7.2-52.7-14.4-79.8-17.2c-2.8-0.3-6.3-0.9-9-1c-5.6-0.4-12.6-1-18.1-1.2c-11.2-0.2-25.3-0.8-36.1,0.5
			c-36.8,3.1-69.2,19-96,44.1c-44.6,40.1-74.3,101.9-135,120.5c-32.7,9.8-77.1,4.6-108.9-7c-46.4-16.2-79.9-56.3-126.9-70.6
			c-18.6-5.7-38.5-7.9-57.9-6.4c-28.9,2.4-54.5,17.8-76.9,35.3c-28.7,22.3-54.9,48.5-87.3,65.7c-32.8,18.2-70.4,22.4-107.1,16.4
			c-24.3-3.7-47.4-13-69.3-23.9c-21.7-10.7-43.1-22.1-65.9-30.4c-14.1-5.2-28.6-9.4-43.3-12.6c-32.3-6.9-65.7-9.4-98.8-8.8
			C242,281.4,119.4,405.4,42.6,493.4C26.8,511.9,11.5,530.7-3,550.1C-3,550.1-3.6,549.7-3.6,549.7L-3.6,549.7z"/>
	</g>
	<g>
		<path class="st0" d="M-3.5,581.8c77.6-109.3,236.1-294.5,379.9-295.6c76.1,0.1,127.4,13.1,194.3,48.2c10.9,5.4,21.8,10.7,33,15.1
			c22.4,9,46.3,14.1,70.4,14.8c69.2,3.2,109.1-37.8,158-78.8c28.8-23.9,60.4-43.7,99.2-42.7c57.6,0,87.8,27.9,133.5,55.5
			c20.8,12.3,43.6,21,67.5,25.1c95.1,15.7,125-23.6,180.4-91.4c40.5-49.2,83.1-80.5,149.5-78.5c0,0,9.2,0.3,9.2,0.3s4.6,0.1,4.6,0.1
			s2.3,0.1,2.3,0.1s2.3,0.2,2.3,0.2s9.2,0.8,9.2,0.8s4.6,0.4,4.6,0.4c16.6,1.7,33.5,4.8,49.8,8.6c29.3,7.1,59,16.6,88.6,22.5
			c8.8,1.9,18.2,3.4,26.9,4.9c7.7,1.1,15.1,2,22.6,3c6.3,0.5,21,2.1,27.3,2.4c7.7,0.4,15.4,0.8,22.8,1.2c12.2,0.3,16.7,0.3,27.4,0.6
			c61.1,0.7,120.4-21.1,173.2-50.5c42.3-24,82.1-53.3,114.5-89.8c0,0,0.5,0.4,0.5,0.4c-24.1,27.6-53,50.7-83.3,71
			c-50.8,33.4-107.7,59.8-168.3,68.3c-17.3,2.6-37.3,2.5-54.9,2.1c-5,0-13.2-0.3-18.3-0.6c-5.8-0.3-12.7-0.5-18.3-1
			c-5.1-0.4-18.6-1.6-22.8-2c-7.1-0.9-15.6-1.9-22.7-2.9c-27.2-4.1-54-10.4-80.5-17.5c-26.2-7-53.3-13.6-80.3-16.3
			c-2.3-0.4-6.6-0.5-9.1-0.7c-2.5-0.1-9.3-0.7-11.3-0.8c0,0-2.3,0-2.3,0c-2.6,0-10.8-0.2-13.6-0.3c-48.1-1.1-87.6,16.4-121,50.5
			c-42.5,41.9-73.5,104.5-136,119.6c-12,2.9-24.6,3.8-36.9,3.4c-37-0.4-73.9-10.2-105.4-29.6c-31.4-18.7-59.5-43.3-95.6-51.7
			c-55.3-13.1-91.2,2-133.7,37.2c-49.4,41.1-90,82.8-159.5,81c-24.6-0.2-49.3-5-72.2-14c-11.5-4.4-22.6-9.7-33.6-15
			c-21.8-10.7-43.6-21.3-66.8-28.8c-37.4-12.3-76.8-17.2-116.1-17.9c-111.5-4.8-223.4,100.6-295.4,177c-24.8,26.8-48.5,54.6-71,83.4
			c-7.5,9.6-14.9,19.3-22,29.2C-2.9,582.2-3.5,581.8-3.5,581.8L-3.5,581.8z"/>
	</g>
	<g>
		<path class="st0" d="M-3.4,613.9c76-109.9,220.1-284,357.3-307.4c8.4-1.3,17.1-2,25.6-2c52.3-0.2,105.3,7.1,153.7,27.9
			c22.7,9.4,44.2,21.2,66.7,30.7c33.3,14.1,70.5,20.7,106.5,16c98.4-13.5,137.5-130.8,239.4-122.4c94.2,6.2,110.1,83.1,239.2,79.8
			c30.4-1,58.7-14.6,80.5-35.6c26.8-25.1,46.7-56.4,71.8-83.2c16.8-18.1,36.3-34.4,59.1-44.5c17-7.7,35.6-11.8,54.2-12.8
			c6.2-0.4,12.4-0.3,18.5-0.1c6.2,0.2,12.3,0.2,18.4,0.9c21.4,1.4,42.9,5.2,63.6,10.4c29.3,7.3,59.4,16.1,89.2,21.4
			c14.2,2.5,28.7,4.5,43.1,6.2c24.5,2.4,50.8,3.8,75.5,3.9c49,1.2,97.2-13.2,141.3-33.7c55-26.3,106.6-61.6,147.1-107.4
			c0,0,0.5,0.4,0.5,0.4c-40.5,46-92.3,81.3-147.2,107.9c-44.2,20.7-92.5,35.4-141.8,34.4c-18.2-0.1-36.9-0.6-55.1-1.9
			c-2.7-0.2-18.7-1.5-20.6-1.7c-3.8-0.4-12-1.4-16-1.9c-18-2.2-36.6-5.5-54.3-9.5c-35.7-7.8-71-19.1-107.5-22.8
			c-12.1-1.4-24.3-2-36.4-2.1c-6.1-0.2-12.1-0.2-18.2,0.3c-18,1.1-35.9,5.3-52.4,12.7c-57.3,25.6-85.2,85.6-129.4,126.9
			c-22.8,21.7-52.1,35.8-83.9,36.6c-131.6,2.4-146.3-75-239.6-81.9C846,250.3,806,366.3,707,382.2c-36.7,5.6-74.8-0.2-109-14.3
			c-22.7-9.3-44.3-20.9-67-30.1c-47.8-20-99.9-26.9-151.4-26.9c-3,0.1-6,0.1-9,0.2c0,0-4.5,0.3-4.5,0.3c-1.5,0.1-3,0.2-4.5,0.4
			c0,0-4.5,0.6-4.5,0.6c-61.9,9.4-115.9,46-163.6,84.9C118.2,459.4,54.3,537.2-3.4,613.9L-3.4,613.9z"/>
	</g>
	<g>
		<path class="st0" d="M-3.3,646c75-111,214.8-285.4,348.8-318.3c24.2-6.1,49.5-4.9,74.2-3.6c12.4,0.8,24.7,2,36.9,3.8
			c24.5,3.6,48.7,9.7,71.9,18.5c23.1,8.6,45.1,20,67.6,29.8c33.3,14.8,70,22,106.4,18.9c80.3-7.9,119.5-79.6,185.3-113
			c16.7-8.2,35.3-12.5,54-12.1c18.6,0.2,37.1,3.5,54.5,10.2c34.5,13.4,63.2,38.2,97.8,51.2c28.4,11.3,59.1,15.4,89.6,15.3
			c30.8,0.3,59.6-11.3,82.4-31.9c53-48,79.3-120.3,154.5-142c15-4.3,30.7-6.1,46.3-6.1c24.7,0.1,49.5,2.8,73.6,8
			c36,8,71.3,18.9,107.8,24.5c42.4,6.6,85.5,9,128.4,8.3c55.3-2.6,108.3-23.4,156.2-50.4c42.4-24.5,82.6-54.2,114.7-91.4
			c0,0,0.5,0.4,0.5,0.4c-23.9,28.1-52.9,51.6-83.4,72.3c-50.9,34-108.2,61.1-169.5,69.2c-12.2,1.6-24.6,2-36.9,1.8
			c-61.6,0.3-123.1-7.2-182.7-22.6c-35.6-8.9-71.9-15.5-108.7-15c-12.1,0-24.2,1.1-36,3.8c-23.7,5.1-45.4,17-63.6,32.9
			c-46.5,39.6-72.1,102.9-128.9,130.8c-23,11.3-48,13-73.2,11.1c-24.7-1.6-49.4-6.5-72.3-15.8c-55.4-22.5-85.6-62.1-151-62.4
			c-97.4-1.9-137.3,117.7-238.7,127.9c-24.8,2.4-50,0-74.1-6.2c-35.9-9.4-68.1-28.8-102.7-41.5c-45.7-17.4-94.9-23.4-143.6-23.5
			c-12,0-24.1,1.5-35.9,4.2c-99.6,24.2-193.6,121.2-259.4,196.6c-24,27.9-46.9,56.8-68.7,86.5c-7.3,9.9-14.4,19.9-21.3,30
			C-2.7,646.4-3.3,646-3.3,646L-3.3,646z"/>
	</g>
</g>
</svg>
