<?xml version="1.0" encoding="UTF-8"?>
<svg id="Calque_2" data-name="Calque 2" xmlns="http://www.w3.org/2000/svg" viewBox="0 0 2047.71 637.46">
  <defs>
    <style>
      .cls-1 {
        fill: #e5007e;
      }
    </style>
  </defs>
  <g id="_0_rose" data-name="0 rose">
    <g>
      <path class="cls-1" d="m2000.55.43c-19.37,10.83-39.44,20.33-59.82,29.13-10.2,4.38-20.49,8.55-30.88,12.45-10.4,3.89-20.9,7.51-31.48,10.88-21.18,6.69-42.73,12.33-64.62,16.31-10.95,1.99-21.98,3.6-33.07,4.6-5.54.55-11.11.88-16.68,1.16-5.57.2-11.15.35-16.73.23-11.16-.13-22.33-.99-33.4-2.67-1.39-.18-2.76-.44-4.14-.68-1.38-.25-2.76-.47-4.13-.75-2.74-.58-5.49-1.1-8.2-1.79-2.75-.66-5.37-1.31-8.06-1.92-2.69-.61-5.38-1.19-8.09-1.75-21.63-4.47-43.5-7.87-65.45-10.49-21.95-2.64-44-4.44-66.09-5.37-22.08-.96-44.21-1.02-66.29-.11-44.15,1.81-88.24,7.69-130.95,19.21-10.66,2.91-21.24,6.14-31.68,9.76-10.43,3.67-20.73,7.69-30.87,12.09-10.12,4.45-20.03,9.36-29.76,14.61-9.72,5.28-19.15,11.06-28.36,17.18-9.22,6.12-17.99,12.85-26.63,19.77-8.64,6.97-17.63,13.56-27.22,19.23-9.59,5.64-19.88,10.28-30.79,12.84-10.88,2.57-22.36,2.89-33.34.55-11-2.27-21.35-7.03-30.69-13.13-4.66-3.07-9.14-6.43-13.38-10.05l-12.53-10.93c-16.75-14.45-34.21-28.14-53.18-39.42-18.92-11.26-39.43-20.09-61-24.28-10.76-2.11-21.73-3.07-32.68-2.8-10.94.3-21.85,1.75-32.48,4.38-21.31,5.18-41.38,14.77-59.82,26.67-2.3,1.5-4.6,3-6.85,4.59-2.27,1.54-4.5,3.16-6.71,4.79l-6.74,4.91c-2.27,1.62-4.56,3.22-6.86,4.79-9.24,6.25-18.77,12.12-28.7,17.27-19.8,10.34-41.15,18.2-63.48,21.38-11.14,1.58-22.49,1.98-33.74.94-11.25-1.03-22.38-3.52-32.99-7.53-5.29-2.02-10.46-4.4-15.4-7.22-2.47-1.41-4.89-2.93-7.24-4.6-.59-.42-1.17-.85-1.75-1.3l-.87-.69c-.24-.2-.53-.39-.8-.59l-3.26-2.37c-8.9-6.28-18.4-11.82-28.26-16.57-19.73-9.57-40.78-16.36-62.19-21.4-21.43-5.06-43.29-8.33-65.26-10.39-21.97-2.05-44.07-2.85-66.16-2.75-11.05.07-22.09.38-33.12.96-5.51.29-11.03.65-16.53,1.08-2.75.22-5.5.46-8.24.72-1.37.12-2.72.31-4.16.41l-4.17.26c-22.1,1.42-44.04,3.96-65.86,7.56-21.8,3.62-43.46,8.2-64.86,13.77-21.4,5.59-42.56,12.12-63.39,19.58-20.82,7.48-41.36,15.79-61.47,25.05-10.06,4.63-20.01,9.49-29.82,14.62-9.8,5.15-19.53,10.46-28.92,16.32l-.27-.42c9.31-6.05,18.93-11.57,28.67-16.88,9.75-5.29,19.65-10.31,29.65-15.11,20.01-9.59,40.47-18.26,61.29-25.96,41.64-15.4,84.64-27.3,128.46-34.82,21.89-3.77,44.03-6.48,66.16-8.05l4.13-.29c1.32-.09,2.72-.3,4.11-.43,2.77-.29,5.54-.55,8.32-.79,5.54-.48,11.09-.87,16.64-1.2,11.1-.66,22.21-1.05,33.33-1.19,22.24-.29,44.5.48,66.67,2.47,22.17,2.01,44.27,5.23,66,10.3,21.72,5.08,43.11,12.01,63.29,21.8,10.1,4.88,19.82,10.54,29.02,17.04l3.46,2.53c.29.22.57.4.86.65l.76.61c.51.4,1.05.79,1.58,1.18,2.16,1.55,4.44,2.99,6.77,4.34,4.67,2.69,9.59,4.99,14.64,6.93,10.12,3.87,20.8,6.3,31.62,7.34,10.82,1.05,21.78.7,32.58-.78,21.64-3,42.54-10.57,62.01-20.65,9.77-5.02,19.17-10.76,28.31-16.89,2.27-1.55,4.54-3.12,6.78-4.7l6.72-4.86c2.26-1.64,4.53-3.27,6.85-4.82,2.29-1.6,4.64-3.1,6.99-4.62,18.83-11.98,39.39-21.65,61.26-26.81,10.91-2.61,22.1-4.04,33.32-4.25,11.22-.16,22.44.94,33.41,3.21,21.98,4.5,42.71,13.7,61.71,25.26,19.06,11.57,36.51,25.5,53.17,40.14l12.42,11.04c4.16,3.6,8.54,6.96,13.12,9.99,9.17,6.03,19.3,10.72,30.04,12.97,10.72,2.32,21.93,2.05,32.61-.43,10.71-2.48,20.88-7.02,30.39-12.57,9.53-5.56,18.42-12.18,27.02-19.13,8.64-6.95,17.46-13.74,26.7-19.91,9.23-6.18,18.66-12.06,28.4-17.42,9.74-5.34,19.68-10.31,29.81-14.88,10.15-4.52,20.46-8.67,30.91-12.46,10.46-3.74,21.06-7.09,31.75-10.13,42.82-12.02,87.1-18.34,131.48-20.6,22.2-1.13,44.45-1.11,66.65-.29,22.21.88,44.37,2.68,66.44,5.31,22.06,2.67,44.03,6.15,65.8,10.71,2.72.57,5.44,1.17,8.16,1.79,2.71.61,5.46,1.31,8.1,1.95,2.66.69,5.35,1.2,8.03,1.78,1.34.28,2.7.49,4.05.74,1.35.24,2.7.5,4.06.68,10.84,1.69,21.82,2.62,32.82,2.82,5.5.15,11.01.03,16.51-.13,5.5-.24,11-.53,16.49-1.04,10.98-.94,21.92-2.41,32.81-4.26,21.77-3.71,43.26-9.07,64.41-15.5,10.57-3.24,21.07-6.73,31.48-10.49,10.42-3.72,20.76-7.68,31-11.88,10.25-4.19,20.41-8.6,30.46-13.24,10.04-4.67,20.04-9.44,29.81-14.65l.24.43Z"/>
      <path class="cls-1" d="m2003.35,3.16c-.62.4-1.24.73-1.85,1.05-.61.34-1.23.65-1.85.97l-3.72,1.88c-2.49,1.23-4.98,2.46-7.5,3.64-5.01,2.4-10.07,4.7-15.14,6.97-10.15,4.51-20.41,8.8-30.74,12.9-20.66,8.19-41.63,15.66-62.93,22.08-21.27,6.5-42.88,11.94-64.74,16.23-2.72.58-5.48,1.01-8.22,1.51-2.74.47-5.48.99-8.23,1.42l-8.27,1.23-4.14.6-4.15.5-8.3.99-8.33.73-4.17.36c-1.39.12-2.79.16-4.18.24l-8.36.43c-11.16.29-22.35.37-33.5-.55-5.59-.28-11.14-1.06-16.7-1.71-.71-.1-1.34-.11-2.21-.32l-2.04-.45-4.06-.88-8.13-1.69c-21.69-4.44-43.61-7.71-65.62-10.21-44.02-4.92-88.42-6.64-132.65-4.31-22.11,1.17-44.17,3.36-66.03,6.87-21.86,3.5-43.5,8.39-64.71,14.74-10.61,3.16-21.08,6.79-31.41,10.77-10.32,4-20.53,8.33-30.48,13.19-9.96,4.84-19.71,10.12-29.23,15.78-9.51,5.69-18.71,11.87-27.7,18.35-4.49,3.26-8.94,6.56-13.34,9.94-4.42,3.36-8.68,6.87-13.02,10.36-8.71,6.92-17.81,13.42-27.57,18.86-9.74,5.41-20.23,9.72-31.26,11.82-11.01,2.13-22.51,1.86-33.39-.92-10.93-2.7-21.07-7.88-30.29-14.18-4.62-3.15-9.01-6.62-13.22-10.29-4.18-3.65-8.37-7.28-12.61-10.86-16.93-14.3-34.62-27.76-53.81-38.74-19.14-10.96-39.86-19.36-61.53-23.18-21.65-3.93-44.02-2.71-65.27,2.65-10.64,2.73-20.93,6.66-30.95,11.15-4.93,2.44-9.92,4.74-14.66,7.55l-3.6,2.02c-1.2.67-2.4,1.33-3.55,2.09l-6.98,4.41c-2.36,1.42-4.58,3.05-6.84,4.63l-6.76,4.75-6.83,4.85c-2.28,1.61-4.53,3.27-6.9,4.75l-7.03,4.58c-1.16.78-2.37,1.48-3.57,2.2l-3.61,2.14c-4.76,2.95-9.77,5.47-14.69,8.14-10.03,5.01-20.35,9.46-31.01,13.03-10.65,3.58-21.66,6.19-32.84,7.65-22.33,2.9-45.57.91-66.78-7.32-5.29-2.06-10.45-4.47-15.39-7.32-2.47-1.42-4.89-2.97-7.21-4.63l-.43-.31c-.18-.13-.21-.14-.24-.17.02-.01-.25-.15-.38-.22l-.47-.27c-.64-.35-1.25-.73-1.87-1.09-1.23-.75-2.42-1.53-3.6-2.32-2.35-1.58-4.61-3.21-6.86-4.77-1.13-.77-2.25-1.53-3.38-2.24-1.12-.72-2.26-1.37-3.49-2.02l-7.23-3.92c-1.19-.68-2.45-1.23-3.68-1.83l-3.71-1.78-3.71-1.78-3.79-1.61c-2.54-1.06-5.04-2.18-7.6-3.18-5.15-1.92-10.28-3.92-15.53-5.56-5.2-1.81-10.52-3.24-15.8-4.8l-8.01-2.05c-1.34-.34-2.67-.7-4.01-1.01l-4.04-.9c-21.51-4.91-43.45-7.94-65.47-9.75-11.01-.94-22.07-1.44-33.12-1.75-11.06-.29-22.12-.34-33.18-.08-11.06.25-22.12.74-33.16,1.55-5.52.39-11.03.87-16.53,1.42-2.75.27-5.5.58-8.22.92-2.83.34-5.55.54-8.33.82-22.11,2.01-43.99,5.21-65.72,9.51-43.43,8.64-86.08,21.34-127.25,37.81-5.17,2.01-10.26,4.19-15.38,6.31-2.56,1.07-5.09,2.21-7.63,3.3-2.55,1.1-5.09,2.2-7.61,3.35-10.14,4.5-20.13,9.3-30.05,14.27-9.91,4.98-19.71,10.18-29.37,15.64-9.65,5.47-19.22,11.1-28.45,17.25l-.28-.41c9.14-6.33,18.61-12.17,28.19-17.8,9.59-5.62,19.33-10.98,29.19-16.12,9.86-5.12,19.81-10.09,29.91-14.76,10.08-4.7,20.27-9.17,30.56-13.38,20.57-8.46,41.5-16.07,62.77-22.63,21.26-6.58,42.83-12.21,64.65-16.66,21.8-4.47,43.9-7.86,66.01-10.02,2.74-.29,5.57-.52,8.24-.86,2.78-.36,5.55-.69,8.32-.98,5.55-.59,11.09-1.12,16.65-1.54,11.11-.88,22.24-1.45,33.37-1.78,22.27-.66,44.59-.18,66.83,1.54,22.23,1.76,44.41,4.75,66.23,9.66l4.09.9c1.36.32,2.71.68,4.07,1.02l8.13,2.09c5.37,1.58,10.77,3.04,16.06,4.88,5.35,1.67,10.57,3.71,15.82,5.67,2.61,1.02,5.17,2.17,7.76,3.25l3.87,1.65,3.8,1.82,3.8,1.82c1.26.62,2.55,1.18,3.77,1.88l7.41,4.02c1.22.65,2.5,1.37,3.71,2.15,1.21.77,2.4,1.56,3.56,2.36,2.32,1.6,4.56,3.22,6.81,4.74,1.13.76,2.26,1.49,3.4,2.19.57.34,1.14.69,1.72,1.01l.43.24c.17.1.22.11.52.31.25.16.52.35.61.42l.42.3c2.19,1.57,4.44,3.03,6.78,4.39,4.67,2.72,9.59,5.04,14.64,7.03,20.26,7.94,42.62,9.98,64.27,7.25,10.84-1.38,21.56-3.87,31.97-7.33,10.42-3.44,20.54-7.76,30.4-12.64,4.84-2.61,9.77-5.06,14.47-7.95l3.56-2.09c1.19-.7,2.38-1.38,3.53-2.15l6.94-4.49c2.34-1.45,4.57-3.08,6.83-4.67l6.77-4.77,6.89-4.79c2.3-1.59,4.57-3.23,6.98-4.66l7.13-4.44c1.17-.76,2.4-1.44,3.63-2.11l3.68-2.03c4.84-2.82,9.96-5.14,15-7.59,10.26-4.52,20.81-8.46,31.72-11.19,10.91-2.66,22.08-4.31,33.32-4.71,11.23-.4,22.51.44,33.53,2.54,22.1,4.13,43.05,12.9,62.29,24.16,19.3,11.26,36.98,24.98,53.83,39.47,4.22,3.62,8.39,7.3,12.54,10.99,4.13,3.66,8.43,7.13,12.96,10.26,9.06,6.23,19,11.34,29.67,14.01,10.63,2.75,21.85,3.06,32.65,1,10.82-2.02,21.16-6.22,30.82-11.55,9.68-5.33,18.7-11.81,27.35-18.72,4.3-3.47,8.61-7.03,13.02-10.4,4.4-3.4,8.86-6.72,13.35-9.99,35.82-26.48,76.47-46.13,118.95-59.43,42.55-13.29,86.87-20.39,131.31-23.09,22.23-1.29,44.53-1.62,66.78-.86,22.26.72,44.48,2.35,66.6,4.93,22.11,2.57,44.15,5.92,65.97,10.45,2.73.56,5.45,1.14,8.17,1.74l4.08.91,2.02.46c.47.13,1.24.18,1.91.28,5.46.66,10.91,1.47,16.42,1.77,10.98.97,22.03.96,33.07.73l8.27-.38c1.38-.07,2.76-.1,4.14-.22l4.13-.33,8.26-.67,8.24-.9,4.12-.45,4.11-.56,8.22-1.14c2.74-.4,5.46-.89,8.19-1.33,2.73-.46,5.47-.87,8.18-1.42,21.77-4.04,43.34-9.24,64.6-15.5,21.27-6.23,42.31-13.3,63.06-21.16,10.38-3.93,20.68-8.05,30.89-12.39,5.1-2.19,10.2-4.37,15.25-6.67,2.53-1.13,5.05-2.3,7.56-3.48,2.49-1.19,5.06-2.38,7.4-3.69l.31.39Z"/>
      <path class="cls-1" d="m2006.13,5.9c-.6.4-1.2.79-1.8,1.12-.61.35-1.21.7-1.83,1.03-1.22.67-2.45,1.33-3.69,1.97-2.47,1.3-4.96,2.54-7.46,3.79-5,2.47-10.03,4.88-15.1,7.19-10.13,4.65-20.37,9.07-30.69,13.29-10.32,4.22-20.72,8.27-31.21,12.06-10.48,3.83-21.05,7.4-31.7,10.72-10.63,3.38-21.38,6.41-32.17,9.29-5.42,1.36-10.81,2.8-16.26,4.01l-8.16,1.88-8.2,1.71-4.1.85-4.12.75-8.25,1.51-8.29,1.29c-2.76.44-5.52.87-8.3,1.19l-8.32,1.05c-2.78.34-5.57.54-8.35.81-5.57.6-11.16.83-16.75,1.17-11.19.41-22.42.54-33.62-.31-5.61-.25-11.18-1-16.77-1.62l-1.05-.12c-.17-.02-.34-.04-.58-.08l-.57-.11-2.07-.43-4.08-.86-8.17-1.68c-21.77-4.46-43.75-7.71-65.85-10.12-44.18-4.78-88.74-6.22-133.09-3.55-44.3,2.66-88.5,9.88-130.7,23.85-10.54,3.49-20.96,7.36-31.19,11.67-10.22,4.34-20.27,9.1-30.11,14.25-19.65,10.38-38.35,22.53-55.89,36.22-4.42,3.39-8.84,6.77-13.22,10.21-4.4,3.41-8.64,6.98-13.03,10.46-8.76,6.92-17.96,13.35-27.84,18.65-9.86,5.28-20.48,9.37-31.61,11.18-11.1,1.85-22.63,1.24-33.46-1.83-5.42-1.52-10.67-3.6-15.71-6.09-5.04-2.5-9.79-5.53-14.4-8.71-4.57-3.24-8.96-6.75-13.17-10.42-4.22-3.63-8.44-7.25-12.73-10.8-17.1-14.2-34.99-27.52-54.38-38.29-19.34-10.75-40.25-18.88-62.04-22.42-10.87-1.76-21.93-2.48-32.92-1.83-10.99.6-21.9,2.39-32.55,5.15l-7.94,2.26-7.8,2.72c-2.62.85-5.14,1.98-7.69,3.03l-3.81,1.6c-.63.27-1.28.52-1.9.81l-1.86.91-7.44,3.62c-1.25.57-2.44,1.29-3.65,1.95l-3.62,2.01c-4.89,2.57-9.48,5.65-14.18,8.55l-1.75,1.11-1.7,1.19-3.4,2.37-6.81,4.75-6.87,4.85-3.44,2.42-3.53,2.29-7.06,4.58-7.25,4.28c-1.21.71-2.41,1.45-3.64,2.12l-3.72,1.99-3.72,1.99c-1.24.66-2.47,1.34-3.75,1.93l-7.61,3.65c-2.55,1.18-5.17,2.22-7.75,3.34-2.57,1.15-5.23,2.08-7.87,3.07l-3.96,1.47c-1.33.46-2.68.86-4.02,1.3-10.72,3.47-21.77,6.04-33.01,7.4-11.23,1.37-22.63,1.54-33.91.36-5.63-.68-11.25-1.57-16.77-2.92-5.52-1.35-10.96-3.03-16.27-5.09-5.3-2.06-10.46-4.51-15.43-7.34-1.23-.72-2.46-1.45-3.67-2.22l-1.79-1.15-.86-.57c-.19-.11-.33-.22-.71-.42-2.57-1.37-5-2.92-7.35-4.5l-6.88-4.74c-1.13-.76-2.26-1.49-3.39-2.17-1.12-.67-2.4-1.31-3.59-1.97l-7.27-3.9-7.46-3.55c-10.02-4.57-20.3-8.65-30.84-11.94l-3.94-1.28c-1.32-.41-2.65-.77-3.98-1.15l-7.97-2.26c-5.37-1.31-10.71-2.75-16.13-3.86-5.39-1.24-10.84-2.21-16.28-3.23-2.72-.49-5.46-.89-8.2-1.33l-4.1-.65-4.12-.55c-10.97-1.56-22.01-2.59-33.07-3.39-11.06-.81-22.15-1.2-33.24-1.34-11.09-.13-22.19-.01-33.29.42-11.09.42-22.17,1.14-33.22,2.14-5.53.5-11.04,1.08-16.54,1.76l-8.27,1.1-8.3.97c-22.09,2.61-43.95,6.5-65.6,11.52-21.63,5.04-43.03,11.11-64.11,18.17-21.07,7.09-41.8,15.19-62.18,24.1-2.56,1.09-5.08,2.26-7.62,3.4-2.53,1.16-5.07,2.28-7.59,3.46-5.02,2.39-10.07,4.72-15.05,7.19-10,4.87-19.89,9.98-29.66,15.3-9.77,5.32-19.44,10.85-28.95,16.63-9.5,5.79-18.94,11.72-28.02,18.15l-.3-.4c8.99-6.6,18.3-12.74,27.74-18.68,9.44-5.93,19.04-11.61,28.75-17.09,9.71-5.49,19.54-10.76,29.5-15.79,4.96-2.56,9.99-4.97,15-7.42,2.51-1.21,5.05-2.37,7.57-3.56,2.53-1.18,5.05-2.38,7.6-3.5,20.34-9.17,41.06-17.53,62.15-24.88,21.09-7.32,42.53-13.7,64.27-18.87,21.72-5.19,43.77-9.27,65.91-12.04l8.29-1.03,8.28-1.16c5.55-.73,11.11-1.34,16.68-1.89,11.13-1.09,22.28-1.88,33.45-2.39,22.34-.99,44.74-.88,67.07.63,11.16.77,22.32,1.78,33.42,3.32l4.17.54,4.15.65c2.77.44,5.54.83,8.3,1.33,5.51,1.02,11.04,1.98,16.51,3.22,5.5,1.1,10.92,2.55,16.37,3.89l8.1,2.3c1.35.39,2.7.76,4.04,1.17l4.01,1.31c10.72,3.35,21.2,7.51,31.44,12.19l7.63,3.63,7.45,4c1.25.69,2.47,1.29,3.73,2.05,1.26.75,2.47,1.53,3.65,2.33l6.88,4.74c2.27,1.53,4.55,2.97,6.89,4.23.24.12.69.39,1.09.64l.88.58,1.72,1.11c1.14.73,2.31,1.42,3.47,2.12,4.71,2.7,9.63,5.07,14.7,7.06,5.07,1.99,10.29,3.62,15.58,4.94,5.3,1.31,10.7,2.19,16.12,2.87,10.87,1.18,21.88,1.06,32.77-.23,21.82-2.58,42.95-9.79,62.73-19.52,1.26-.57,2.47-1.23,3.69-1.88l3.66-1.94,3.66-1.94c1.21-.66,2.39-1.39,3.58-2.08l7.15-4.19,6.98-4.48,3.49-2.24,3.4-2.37,6.8-4.76,6.92-4.78,3.47-2.39,1.73-1.19,1.79-1.11c4.8-2.92,9.49-6.02,14.49-8.61l3.7-2.03c1.24-.67,2.45-1.38,3.73-1.96l7.61-3.64,1.9-.91c.64-.29,1.3-.54,1.95-.81l3.9-1.6c2.61-1.06,5.18-2.2,7.87-3.05l7.99-2.73,8.14-2.26c10.92-2.76,22.11-4.52,33.37-5.05,11.26-.57,22.57.29,33.66,2.2,22.22,3.84,43.37,12.33,62.81,23.39,19.5,11.06,37.39,24.63,54.42,39.02,4.27,3.59,8.47,7.26,12.66,10.93,4.16,3.68,8.44,7.19,12.94,10.41,4.54,3.15,9.2,6.14,14.14,8.61,4.94,2.46,10.07,4.52,15.38,6.02,10.59,3.04,21.84,3.68,32.73,1.89,10.91-1.74,21.38-5.73,31.15-10.92,9.79-5.19,18.91-11.6,27.61-18.5,4.33-3.46,8.61-7.07,13.01-10.49,4.38-3.45,8.8-6.85,13.21-10.25,35.03-27.68,74.97-49.14,117.3-63.49,21.14-7.28,42.86-12.8,64.82-16.96,21.97-4.14,44.2-6.88,66.49-8.4,44.6-2.98,89.45-1.64,133.84,3.3,22.19,2.48,44.33,5.81,66.2,10.36l8.2,1.72,4.09.88,2.02.43.46.09c.1.02.28.04.46.06l1.03.12c5.48.64,10.95,1.42,16.48,1.69,11.02.9,22.11.83,33.18.49,5.53-.31,11.07-.5,16.59-1.06,2.76-.25,5.53-.44,8.28-.75l8.26-.96c2.76-.29,5.5-.69,8.25-1.1l8.24-1.2,8.21-1.41,4.1-.71,4.09-.8,8.17-1.61,8.14-1.78c5.44-1.15,10.82-2.54,16.22-3.83,10.77-2.76,21.5-5.66,32.13-8.93,5.34-1.57,10.62-3.31,15.92-4.99l7.91-2.64c2.64-.86,5.27-1.77,7.9-2.69,10.52-3.62,20.96-7.49,31.32-11.54,10.36-4.05,20.65-8.3,30.84-12.79,5.09-2.24,10.17-4.53,15.21-6.89,2.51-1.19,5.03-2.38,7.52-3.63,2.48-1.24,5.02-2.48,7.32-3.92l.31.39Z"/>
      <path class="cls-1" d="m2008.9,8.65c-2.33,1.65-4.79,2.95-7.24,4.32-2.45,1.35-4.94,2.64-7.42,3.93-4.99,2.54-9.99,5.04-15.06,7.42-10.11,4.79-20.34,9.34-30.65,13.69-10.3,4.37-20.71,8.49-31.19,12.42-10.47,3.97-21.06,7.61-31.71,11.07l-8,2.56-8.04,2.43-4.02,1.21-4.04,1.14-8.09,2.28c-10.83,2.86-21.69,5.65-32.68,7.91-21.92,4.73-44.19,7.99-66.65,9.23-2.8.23-5.62.21-8.43.31l-4.22.11c-1.41.05-2.81.08-4.22.03l-8.44-.12-2.11-.03-2.11-.12-4.22-.25c-5.63-.21-11.23-.94-16.84-1.54l-1.05-.11c-.16-.01-.39-.06-.59-.09l-.55-.1-2.09-.41-4.11-.83-8.21-1.66c-21.85-4.5-43.91-7.68-66.09-10.01-44.35-4.64-89.08-5.82-133.56-2.78-22.23,1.54-44.38,4.23-66.25,8.51-21.87,4.25-43.41,10.15-64.39,17.67-10.48,3.77-20.79,8.04-30.92,12.68-2.52,1.19-5.08,2.3-7.56,3.56l-7.48,3.73c-4.92,2.62-9.87,5.18-14.68,8-4.88,2.7-9.59,5.69-14.34,8.61-4.66,3.05-9.37,6.05-13.9,9.3-4.62,3.13-9.03,6.54-13.52,9.85-4.37,3.46-8.76,6.9-13.1,10.42l-26.15,21.03c-8.82,6.91-18.13,13.27-28.14,18.42-9.99,5.13-20.76,8.98-31.97,10.49-11.19,1.55-22.72.6-33.52-2.71-10.8-3.36-20.85-8.81-29.92-15.46-4.55-3.29-8.92-6.87-13.15-10.52-4.25-3.62-8.52-7.21-12.85-10.73-17.27-14.11-35.38-27.28-54.97-37.84-19.55-10.54-40.65-18.39-62.56-21.63-10.94-1.64-22.03-2.13-33.06-1.48-11.03.73-21.96,2.64-32.63,5.51-21.39,5.71-41.43,15.76-60.05,27.74-4.6,3.11-9.11,6.27-13.72,9.47-4.61,3.22-9.16,6.52-13.95,9.5-9.4,6.19-19.26,11.71-29.37,16.7-10.1,5.02-20.62,9.25-31.42,12.62-10.8,3.37-21.91,5.84-33.18,7.13-11.27,1.3-22.72,1.43-34.03.08-5.66-.6-11.27-1.65-16.81-3-5.54-1.34-11-3.05-16.31-5.14-5.32-2.07-10.49-4.55-15.46-7.37-1.24-.71-2.47-1.44-3.67-2.17l-.88-.54-.75-.44c-.64-.34-1.29-.67-1.92-1.03-2.54-1.4-4.96-2.97-7.31-4.55-2.35-1.59-4.62-3.22-6.89-4.69-.57-.37-1.13-.72-1.7-1.07-.56-.33-1.13-.66-1.76-.99l-3.66-1.95-3.66-1.95c-1.21-.66-2.43-1.31-3.7-1.87l-7.5-3.54c-1.24-.61-2.52-1.13-3.8-1.66l-3.83-1.6-3.83-1.6c-1.27-.54-2.59-.97-3.89-1.46l-7.8-2.86-7.91-2.55c-1.32-.41-2.63-.88-3.96-1.25l-4-1.13c-2.67-.73-5.32-1.55-8.02-2.2l-8.08-1.97c-2.69-.69-5.42-1.18-8.13-1.78-5.41-1.23-10.9-2.1-16.36-3.11-5.5-.81-10.97-1.75-16.5-2.37-5.51-.75-11.04-1.26-16.58-1.82-2.77-.25-5.54-.44-8.31-.66-2.77-.24-5.55-.39-8.32-.54-5.55-.36-11.11-.52-16.67-.72-5.56-.1-11.13-.22-16.69-.18-11.13.04-22.27.33-33.38.95-11.12.62-22.22,1.54-33.29,2.76-5.53.63-11.05,1.32-16.55,2.14l-4.1.64c-1.44.25-2.78.41-4.18.61l-8.3,1.17c-22.06,3.25-43.88,7.85-65.42,13.59-43.09,11.46-84.95,27.47-125.22,46.71-20.09,9.72-39.87,20.12-59.14,31.42-9.63,5.65-19.16,11.49-28.53,17.56-9.37,6.08-18.66,12.31-27.6,18.99l-.31-.39c8.85-6.86,18.01-13.28,27.3-19.52,9.3-6.22,18.75-12.22,28.32-18.02,19.14-11.61,38.79-22.37,58.86-32.3,20.1-9.87,40.6-18.94,61.49-27.05,20.88-8.12,42.17-15.24,63.81-21.15,21.62-5.92,43.6-10.71,65.75-14.12l8.3-1.23c1.37-.21,2.8-.39,4.11-.63l4.17-.68c5.56-.86,11.12-1.6,16.7-2.27,11.15-1.31,22.33-2.31,33.53-3.01,11.2-.69,22.42-1.1,33.65-1.16,5.61-.06,11.23.04,16.84.13,5.61.19,11.23.33,16.83.68,2.8.14,5.61.29,8.41.52,2.8.22,5.6.4,8.4.65,5.59.55,11.19,1.05,16.76,1.79,5.59.62,11.14,1.55,16.7,2.35,5.53,1.01,11.09,1.88,16.59,3.1,2.75.6,5.52,1.09,8.25,1.78l8.21,2.01c2.74.66,5.43,1.5,8.15,2.24l4.07,1.15c1.36.38,2.69.85,4.03,1.27l8.05,2.6,7.94,2.92c1.32.5,2.66.94,3.96,1.49l3.91,1.63,3.91,1.63c1.3.54,2.61,1.07,3.88,1.7l7.66,3.62c1.29.58,2.54,1.24,3.78,1.92l3.74,2,3.74,2c.62.32,1.25.69,1.9,1.07.62.38,1.25.77,1.85,1.16,2.42,1.58,4.69,3.2,6.97,4.75,2.28,1.54,4.57,3.01,6.91,4.32.58.34,1.18.64,1.77.96.34.19.77.43,1.06.61l.91.56c1.18.73,2.35,1.42,3.53,2.11,4.74,2.71,9.67,5.1,14.76,7.1,5.08,2.03,10.32,3.68,15.63,4.99,5.32,1.31,10.71,2.34,16.17,2.95,10.89,1.34,21.96,1.26,32.89.04,10.94-1.21,21.76-3.57,32.31-6.82,10.55-3.25,20.86-7.35,30.8-12.24,9.95-4.86,19.66-10.25,28.96-16.32,4.73-2.91,9.23-6.16,13.8-9.32l6.94-4.76c2.33-1.58,4.64-3.2,7-4.73,19-12.05,39.49-22.17,61.41-27.87,10.93-2.86,22.13-4.75,33.43-5.42,11.3-.56,22.65.07,33.8,1.85,22.34,3.54,43.7,11.74,63.35,22.59,19.71,10.84,37.82,24.27,55.03,38.57,4.31,3.57,8.57,7.21,12.79,10.87,4.21,3.69,8.46,7.24,12.94,10.53,8.93,6.59,18.78,11.96,29.34,15.29,10.57,3.28,21.82,4.24,32.79,2.76,10.99-1.44,21.6-5.19,31.49-10.23,9.92-5.03,19.14-11.37,27.89-18.26l26.07-21.07,13.09-10.52c4.49-3.35,8.9-6.81,13.52-9.98,4.54-3.29,9.24-6.34,13.91-9.44,4.76-2.96,9.48-5.99,14.34-8.76,4.81-2.89,9.76-5.52,14.68-8.2l7.49-3.83c2.49-1.3,5.05-2.44,7.57-3.67,10.14-4.78,20.47-9.19,30.98-13.1,21.03-7.8,42.68-13.97,64.66-18.48,21.98-4.52,44.27-7.52,66.63-9.22,44.73-3.35,89.76-2.28,134.33,2.53,22.27,2.4,44.52,5.67,66.46,10.25l8.22,1.69,4.1.86,2.02.41.48.09c.15.02.26.05.45.07l1.03.12c5.51.61,11,1.36,16.54,1.61l4.15.27,2.08.13,2.08.04,8.32.17c1.39.05,2.78.03,4.16-.01l4.17-.09c2.78-.08,5.56-.05,8.33-.26,22.2-1.14,44.34-4.11,66.17-8.59,10.94-2.14,21.77-4.81,32.58-7.54l8.07-2.19,4.04-1.1,4.02-1.17,8.03-2.34,8-2.47c2.67-.81,5.32-1.68,7.97-2.55,2.65-.88,5.31-1.72,7.95-2.62,5.28-1.82,10.57-3.6,15.81-5.5,10.51-3.75,20.96-7.71,31.31-11.9,10.35-4.18,20.63-8.56,30.8-13.19,5.09-2.3,10.14-4.68,15.17-7.12,2.5-1.24,5.01-2.47,7.48-3.76,2.46-1.3,4.98-2.58,7.24-4.11l.31.39Z"/>
      <path class="cls-1" d="m2011.67,11.4c-2.29,1.71-4.74,3.05-7.17,4.49-2.45,1.38-4.91,2.74-7.39,4.05-4.96,2.64-9.96,5.19-15.01,7.65-10.09,4.93-20.3,9.61-30.6,14.09-20.61,8.93-41.57,17.08-62.9,24.21-21.33,7.1-42.95,13.38-64.94,18.22-10.97,2.51-22.06,4.5-33.19,6.26-5.58.76-11.15,1.64-16.77,2.15-2.81.28-5.6.63-8.41.84l-8.44.6c-2.81.24-5.63.29-8.46.39l-4.23.14c-1.41.05-2.82.11-4.23.07l-8.47-.07-2.12-.02-2.12-.11-4.23-.23c-5.65-.18-11.28-.89-16.91-1.45l-1.07-.12-1.11-.18-2.1-.39-4.14-.81-8.25-1.64c-21.93-4.55-44.08-7.64-66.36-9.9-22.27-2.23-44.62-3.6-66.99-3.97-22.36-.31-44.77.24-67.06,1.95-22.29,1.72-44.49,4.7-66.35,9.42-21.84,4.72-43.37,11.03-64.16,19.28-20.82,8.16-40.89,18.24-59.96,29.95-2.41,1.43-4.72,3-7.08,4.51l-3.52,2.28c-1.17.77-2.31,1.58-3.46,2.37l-6.9,4.78-6.76,4.98c-2.28,1.63-4.45,3.39-6.66,5.12-2.18,1.75-4.44,3.41-6.57,5.23l-6.44,5.39-6.43,5.45c-4.31,3.6-8.69,7.12-13.03,10.67-4.35,3.52-8.61,7.19-13.07,10.63-8.9,6.89-18.33,13.16-28.47,18.15-10.12,4.97-21.03,8.57-32.32,9.77-11.27,1.25-22.81-.06-33.55-3.65-1.33-.48-2.7-.88-4-1.43l-3.93-1.61-3.84-1.81c-1.28-.6-2.5-1.32-3.75-1.98-4.95-2.74-9.7-5.84-14.21-9.22-2.26-1.68-4.49-3.41-6.68-5.19-2.19-1.78-4.32-3.61-6.47-5.4-4.29-3.61-8.62-7.17-12.98-10.67-17.45-14.01-35.79-27.02-55.58-37.37-19.76-10.33-41.06-17.89-63.1-20.83-11-1.49-22.15-1.83-33.21-1.04l-8.28.78-8.22,1.28c-1.38.18-2.73.49-4.08.79l-4.06.89c-1.35.31-2.72.56-4.06.92l-4,1.13-4,1.13c-.66.2-1.34.36-2,.58l-1.97.68-7.86,2.73c-2.58,1.03-5.14,2.11-7.71,3.17-1.28.55-2.58,1.02-3.83,1.63l-3.76,1.81c-10.11,4.63-19.66,10.4-29.06,16.34-4.6,3.17-9.15,6.25-13.8,9.5l-6.95,4.84c-2.34,1.58-4.75,3.06-7.12,4.6l-3.57,2.29c-1.19.76-2.43,1.44-3.64,2.17l-7.32,4.29c-5,2.64-9.94,5.41-15.1,7.77-10.22,4.87-20.75,9.16-31.63,12.42-10.87,3.28-22.04,5.65-33.37,6.86-11.33,1.18-22.81,1.12-34.15-.2-5.66-.74-11.3-1.73-16.85-3.12-5.54-1.41-11.01-3.15-16.33-5.25-5.33-2.09-10.52-4.57-15.51-7.37l-1.85-1.05c-.61-.35-1.22-.7-1.73-.97-1.24-.64-2.58-1.33-3.82-2.05-2.52-1.44-4.93-3.02-7.27-4.61-2.34-1.58-4.62-3.22-6.89-4.6-1.08-.68-2.37-1.31-3.58-1.96l-3.68-1.95-3.68-1.95c-1.23-.65-2.51-1.19-3.76-1.79l-7.54-3.53-7.7-3.18c-1.29-.52-2.56-1.09-3.86-1.56l-3.92-1.42c-2.62-.93-5.21-1.95-7.85-2.79l-7.95-2.53c-10.66-3.16-21.45-5.97-32.39-8.08l-4.09-.84-4.12-.72c-2.75-.46-5.48-.99-8.24-1.4l-8.28-1.2c-2.75-.43-5.53-.68-8.3-1.03-5.53-.71-11.1-1.13-16.65-1.65-5.57-.38-11.13-.8-16.71-1.01-22.31-1.02-44.69-.53-66.98,1.07-11.14.83-22.27,1.93-33.34,3.42-5.53.74-11.06,1.56-16.54,2.53-5.54,1.01-11.06,1.86-16.59,2.8-22.02,3.92-43.77,9.24-65.18,15.73-42.8,13.06-84.28,30.46-124.02,51.13-19.86,10.38-39.35,21.47-58.36,33.36-9.5,5.96-18.88,12.1-28.12,18.45-9.23,6.36-18.38,12.86-27.19,19.79l-.31-.38c17.47-14.13,35.94-26.95,54.77-39.2,9.42-6.11,19-11.98,28.66-17.72,4.85-2.84,9.69-5.69,14.61-8.4,4.88-2.78,9.84-5.43,14.78-8.11,19.81-10.62,40.1-20.34,60.78-29.2,20.68-8.83,41.78-16.75,63.28-23.43,21.49-6.68,43.38-12.18,65.53-16.28,5.53-.98,11.09-1.88,16.58-2.91,5.57-1.02,11.13-1.89,16.71-2.67,11.16-1.58,22.37-2.77,33.6-3.67,22.46-1.8,45.03-2.35,67.56-1.38,5.64.19,11.26.6,16.89.97,5.62.5,11.25.91,16.85,1.61,2.8.34,5.61.59,8.4,1.02l8.38,1.19c2.79.41,5.57.93,8.36,1.4l4.18.72,4.15.84c11.11,2.09,22.06,4.99,32.9,8.2l8.09,2.58c2.7.86,5.33,1.91,8,2.85l3.99,1.45c1.33.49,2.62,1.07,3.94,1.6l7.85,3.25,7.7,3.61c1.28.62,2.58,1.17,3.84,1.84l3.76,1.99,3.76,1.99c1.26.68,2.49,1.28,3.79,2.08,2.53,1.55,4.8,3.19,7.11,4.75,2.29,1.56,4.58,3.06,6.93,4.41,1.18.69,2.34,1.3,3.58,1.94.73.39,1.33.74,1.94,1.09l1.81,1.03c4.79,2.71,9.74,5.09,14.85,7.12,5.1,2.04,10.35,3.72,15.67,5.1,5.33,1.35,10.76,2.32,16.22,3.06,10.94,1.31,22.03,1.42,33.03.31,10.99-1.14,21.87-3.4,32.5-6.56,10.63-3.14,20.96-7.31,31.01-12.05,5.07-2.29,9.93-5,14.86-7.57l7.22-4.19c1.2-.71,2.42-1.37,3.6-2.12l3.53-2.24c2.34-1.51,4.72-2.96,7.03-4.51l6.88-4.75c2.28-1.58,4.61-3.17,6.96-4.75l7.03-4.75c9.59-5.98,19.34-11.78,29.68-16.43l3.84-1.81c1.28-.61,2.62-1.09,3.92-1.64,2.63-1.06,5.24-2.15,7.88-3.18l8.05-2.74,2.01-.68c.67-.22,1.36-.39,2.04-.58l4.1-1.13,4.1-1.13c1.37-.36,2.77-.61,4.15-.92l4.16-.88c1.39-.3,2.77-.61,4.18-.78l8.42-1.26,8.48-.75c11.33-.7,22.72-.23,33.94,1.4,22.47,3.22,44.03,11.14,63.9,21.78,19.92,10.64,38.26,23.9,55.66,38.11,4.35,3.56,8.66,7.16,12.93,10.82,4.27,3.67,8.49,7.29,12.97,10.63,4.46,3.37,9.11,6.42,13.97,9.13,1.23.65,2.43,1.36,3.68,1.96l3.76,1.79,3.85,1.59c1.28.54,2.61.94,3.92,1.41,10.52,3.55,21.78,4.86,32.83,3.68,11.06-1.14,21.8-4.64,31.82-9.52,10.04-4.87,19.38-11.12,28.2-17.98,4.42-3.42,8.66-7.09,13.02-10.63,4.34-3.56,8.7-7.08,12.99-10.68l12.83-10.9c2.12-1.84,4.38-3.53,6.56-5.3,2.2-1.75,4.38-3.53,6.65-5.18l6.76-5.05,6.9-4.85c1.16-.8,2.3-1.63,3.46-2.41l3.53-2.31c2.37-1.52,4.67-3.13,7.08-4.59,19.04-11.98,39.13-22.34,60.01-30.79,41.74-17.04,86.35-26.5,131.2-30.26,44.88-3.69,90.08-2.91,134.84,1.76,22.36,2.33,44.72,5.51,66.73,10.13l8.25,1.67,4.11.83,2.03.39.96.16,1.02.12c5.53.58,11.04,1.31,16.61,1.52l4.17.25,2.08.12,2.09.03,8.36.12c1.39.04,2.79-.01,4.18-.05l4.18-.11c2.79-.08,5.58-.11,8.36-.33l8.35-.54c2.78-.19,5.56-.53,8.34-.79,5.56-.48,11.09-1.3,16.64-1.99,11.05-1.63,22.08-3.5,33.02-5.88,21.9-4.59,43.5-10.63,64.82-17.49,21.3-6.94,42.34-14.7,63.05-23.29,10.35-4.31,20.61-8.82,30.76-13.59,5.07-2.39,10.12-4.82,15.12-7.35,2.5-1.26,4.98-2.56,7.45-3.89,2.43-1.37,4.94-2.68,7.18-4.29l.31.39Z"/>
      <path class="cls-1" d="m2014.44,14.14l-1.72,1.26-1.78,1.15c-1.18.78-2.41,1.47-3.61,2.21-2.43,1.43-4.88,2.84-7.35,4.18-4.93,2.73-9.94,5.33-14.96,7.88-10.07,5.06-20.27,9.89-30.57,14.48-10.3,4.59-20.7,8.97-31.17,13.16-10.48,4.19-21.08,8.05-31.72,11.79-21.35,7.3-42.99,13.85-65.02,18.9-10.99,2.64-22.11,4.7-33.26,6.59l-8.4,1.23c-1.4.2-2.8.42-4.2.59l-4.22.47c-2.81.31-5.62.65-8.44.92l-8.47.65c-1.41.09-2.82.25-4.24.29l-4.25.17c-2.83.09-5.66.27-8.5.28-5.67-.02-11.35.06-17.02-.32-5.68-.15-11.33-.84-16.99-1.37-2.96-.34-5.67-.95-8.46-1.45l-8.3-1.62c-22.02-4.58-44.26-7.6-66.63-9.77-11.18-1.08-22.39-1.9-33.6-2.56-11.22-.59-22.44-.99-33.67-1.11-11.23-.08-22.45.05-33.69.44-11.23.39-22.44.98-33.62,1.96-22.36,1.92-44.6,5.23-66.44,10.38-21.85,5.11-43.23,12.18-63.88,20.96-10.31,4.43-20.41,9.36-30.3,14.67l-7.37,4.07c-2.43,1.4-4.84,2.85-7.26,4.28-2.43,1.4-4.8,2.91-7.17,4.42-2.36,1.53-4.78,2.96-7.08,4.56l-6.97,4.73c-2.32,1.58-4.56,3.28-6.84,4.92-4.59,3.24-8.95,6.79-13.41,10.21l-6.5,5.36-3.25,2.69c-1.07.91-2.11,1.85-3.17,2.78l-6.32,5.58c-2.1,1.89-4.2,3.78-6.34,5.62-4.28,3.69-8.63,7.27-12.96,10.86-4.33,3.58-8.63,7.26-13.13,10.68-8.98,6.86-18.54,13.04-28.81,17.86-10.25,4.8-21.31,8.14-32.67,9.03-11.35.94-22.89-.72-33.58-4.61-5.35-1.93-10.51-4.36-15.45-7.17-2.42-1.48-4.88-2.9-7.2-4.55-2.37-1.57-4.65-3.24-6.91-4.95-4.53-3.4-8.85-7.07-13.17-10.65-4.33-3.59-8.71-7.12-13.12-10.61-17.66-13.89-36.22-26.73-56.23-36.86-10-5.05-20.34-9.41-30.98-12.85-10.64-3.43-21.58-5.87-32.65-7.2-11.07-1.33-22.26-1.52-33.36-.58l-4.16.4c-1.39.13-2.77.24-4.15.49l-8.25,1.29-8.16,1.78-2.04.45-2.01.56-4.02,1.13-4.02,1.13c-1.33.42-2.64.9-3.96,1.35l-3.95,1.37c-1.31.48-2.65.86-3.93,1.43l-7.74,3.18-1.93.8-1.89.9-3.78,1.8c-5.09,2.28-9.93,5.1-14.85,7.73-1.24.64-2.42,1.4-3.61,2.12l-3.57,2.19-3.57,2.19-1.78,1.1-1.73,1.18c-4.63,3.16-9.22,6.24-13.9,9.5-2.34,1.6-4.64,3.25-7.01,4.81l-7.18,4.57c-9.66,5.94-19.54,11.58-29.89,16.31-10.31,4.78-20.95,8.93-31.89,12.13-10.94,3.21-22.18,5.47-33.57,6.55-22.73,2.24-46.16-.51-67.53-9.02-5.33-2.11-10.56-4.63-15.53-7.35-.62-.34-1.23-.66-1.79-.95l-1.93-.98c-1.29-.68-2.57-1.38-3.81-2.12-2.5-1.47-4.9-3.07-7.24-4.66-2.37-1.59-4.56-3.18-6.92-4.42l-7.39-3.89c-2.44-1.35-4.99-2.47-7.52-3.65l-3.79-1.76c-1.26-.59-2.52-1.18-3.82-1.69l-7.74-3.17c-.65-.26-1.29-.54-1.94-.78l-1.97-.71-3.94-1.42c-5.22-1.99-10.59-3.53-15.91-5.23-2.68-.78-5.39-1.48-8.08-2.23l-4.04-1.1-4.08-.96c-2.72-.63-5.44-1.3-8.17-1.88l-8.22-1.65c-10.99-2.04-22.06-3.77-33.21-4.86-11.14-1.14-22.32-1.96-33.52-2.26-11.2-.34-22.42-.33-33.62.03-11.21.39-22.41,1.08-33.58,2.11-11.17,1.02-22.31,2.39-33.39,4.12-5.54.88-11.04,1.82-16.54,2.97l-16.56,3.2c-21.95,4.63-43.6,10.73-64.85,17.98-42.5,14.56-83.55,33.37-122.75,55.43-9.84,5.45-19.48,11.26-29.12,17.06-9.59,5.89-19.08,11.94-28.45,18.17-9.36,6.25-18.61,12.67-27.71,19.29-9.09,6.63-18.11,13.39-26.8,20.54l-.32-.38c17.21-14.58,35.39-27.95,53.94-40.78,9.3-6.38,18.72-12.58,28.24-18.63,4.8-2.96,9.55-6.01,14.41-8.87l7.26-4.35,7.32-4.24c19.54-11.29,39.56-21.74,60.02-31.29,20.46-9.55,41.36-18.2,62.7-25.63,21.34-7.44,43.1-13.73,65.21-18.55l16.6-3.32c5.51-1.19,11.12-2.19,16.69-3.11,11.17-1.83,22.39-3.28,33.65-4.38,11.26-1.11,22.55-1.91,33.86-2.33,11.31-.4,22.63-.44,33.95-.14,11.32.27,22.63,1.06,33.9,2.18,11.28,1.07,22.5,2.79,33.66,4.83l8.35,1.65c2.77.59,5.53,1.28,8.29,1.92l4.14.97,4.11,1.12c2.74.76,5.49,1.47,8.21,2.27,5.41,1.73,10.87,3.31,16.19,5.33l4.01,1.45,2.01.72c.66.25,1.32.53,1.98.8l7.89,3.24c1.33.52,2.61,1.12,3.9,1.73l3.87,1.8c2.58,1.21,5.18,2.36,7.67,3.74l7.56,3.98c.61.31,1.3.71,1.93,1.1.64.39,1.25.79,1.86,1.18l3.53,2.39c2.32,1.58,4.61,3.1,6.96,4.49,1.17.71,2.36,1.36,3.56,2l1.84.94c.69.36,1.33.7,1.94,1.03,4.9,2.7,9.83,5.09,14.97,7.15,20.51,8.25,43.09,11.01,65.15,8.92,22.13-1.99,43.71-8.69,63.95-18.02,10.17-4.6,19.92-10.12,29.46-15.93l7.09-4.48c2.34-1.53,4.63-3.15,6.94-4.72,4.57-3.16,9.36-6.32,14.05-9.49l1.77-1.19,1.82-1.1,3.65-2.2,3.65-2.2c1.22-.73,2.42-1.49,3.68-2.13,5.02-2.66,9.96-5.48,15.17-7.78l3.86-1.81,1.93-.9,1.98-.8,7.91-3.19c1.3-.57,2.68-.96,4.02-1.43l4.04-1.37c1.35-.45,2.69-.93,4.05-1.35l4.12-1.13,4.12-1.13,2.06-.56,2.09-.44,8.36-1.76,8.45-1.27c1.4-.25,2.83-.35,4.24-.47l4.26-.38c11.36-.85,22.8-.54,34.08.93,11.28,1.47,22.4,4.07,33.18,7.66,10.77,3.6,21.21,8.12,31.26,13.33,20.14,10.41,38.71,23.51,56.32,37.6,4.39,3.54,8.75,7.12,13.06,10.76,4.32,3.64,8.55,7.31,13.02,10.71,2.23,1.7,4.49,3.37,6.81,4.91,2.28,1.63,4.69,3.03,7.07,4.5,4.84,2.78,9.9,5.18,15.14,7.08,10.46,3.84,21.73,5.5,32.86,4.62,11.14-.83,22.01-4.08,32.15-8.78,10.17-4.7,19.63-10.85,28.52-17.69,4.46-3.4,8.72-7.06,13.06-10.67,4.33-3.61,8.67-7.19,12.92-10.87,2.13-1.84,4.21-3.71,6.29-5.6l6.31-5.64c1.06-.94,2.1-1.89,3.16-2.81l3.24-2.72,6.5-5.43c4.46-3.46,8.81-7.06,13.41-10.35,2.28-1.66,4.52-3.39,6.84-4.99l6.96-4.82c2.3-1.63,4.72-3.1,7.07-4.66,2.36-1.54,4.73-3.09,7.16-4.52,2.42-1.46,4.82-2.95,7.25-4.38l7.37-4.18c9.9-5.45,20.01-10.52,30.35-15.1,20.71-9.07,42.19-16.42,64.17-21.8,21.97-5.41,44.37-9.03,66.89-11.13,11.26-1.05,22.55-1.7,33.83-2.16,11.27-.48,22.59-.61,33.89-.55,11.3.11,22.59.5,33.88,1.08,11.28.64,22.54,1.53,33.78,2.63,11.24,1.11,22.46,2.46,33.64,4.1,5.59.83,11.18,1.7,16.75,2.69,5.59,1.01,11.1,2.13,16.63,3.22l8.28,1.65c2.75.52,5.54,1.15,8.18,1.45,5.55.55,11.09,1.26,16.68,1.44,2.79.12,5.58.38,8.37.34l8.39.07c2.8.01,5.59-.16,8.39-.23l4.2-.14c1.4-.04,2.79-.18,4.19-.27l8.38-.6c2.79-.26,5.57-.58,8.36-.87l4.18-.44c1.39-.16,2.78-.38,4.17-.56l8.34-1.13c11.08-1.77,22.14-3.7,33.09-6.22,21.95-4.8,43.56-11.11,64.91-18.17,10.65-3.6,21.24-7.4,31.76-11.39,10.51-4.02,20.95-8.22,31.3-12.64,10.35-4.42,20.6-9.08,30.73-13.98,5.05-2.48,10.11-4.96,15.08-7.59,2.5-1.3,4.96-2.65,7.42-4.02,1.21-.71,2.45-1.38,3.64-2.13l1.79-1.11,1.71-1.2.31.39Z"/>
      <path class="cls-1" d="m2017.22,16.89l-1.72,1.27c-.58.42-1.18.79-1.77,1.19-1.17.8-2.39,1.53-3.59,2.28-1.2.76-2.42,1.47-3.64,2.19-1.22.72-2.44,1.44-3.68,2.13-4.91,2.82-9.91,5.48-14.93,8.1-10.05,5.22-20.24,10.15-30.54,14.88-10.29,4.72-20.68,9.24-31.16,13.54-10.49,4.27-21.07,8.33-31.74,12.14-10.69,3.77-21.42,7.41-32.29,10.65-5.41,1.7-10.89,3.17-16.34,4.74l-8.23,2.16c-2.74.72-5.49,1.44-8.25,2.07l-8.28,1.96-8.33,1.77-4.17.88c-1.39.29-2.79.52-4.19.78l-8.38,1.53-8.42,1.3-4.21.64-4.23.51-8.47,1-8.5.71c-1.42.11-2.83.25-4.25.34l-4.26.19c-2.84.11-5.68.3-8.53.35-5.7.01-11.39.14-17.09-.21-5.7-.11-11.38-.79-17.07-1.28-2.95-.36-5.7-.91-8.5-1.42l-8.34-1.6c-22.11-4.63-44.45-7.52-66.93-9.64-11.23-1.04-22.49-1.8-33.75-2.4-11.26-.57-22.54-.86-33.81-.95-11.28,0-22.53.2-33.82.67-11.28.43-22.53,1.12-33.74,2.19-22.42,2.11-44.72,5.76-66.52,11.44-21.79,5.67-43.13,13.18-63.54,22.75-2.56,1.19-5.12,2.36-7.62,3.65-2.51,1.27-5.05,2.5-7.55,3.81l-7.44,4.01c-2.49,1.31-4.89,2.8-7.34,4.19l-3.66,2.12c-1.22.71-2.4,1.48-3.6,2.22l-7.18,4.48c-4.68,3.15-9.44,6.18-13.98,9.52-9.25,6.47-18.06,13.54-26.7,20.8-4.25,3.72-8.56,7.36-12.65,11.25l-6.2,5.77c-2.06,1.96-4.15,3.87-6.28,5.75-4.24,3.76-8.58,7.4-12.91,11.04-4.31,3.64-8.66,7.31-13.2,10.72-9.07,6.83-18.77,12.9-29.18,17.52-10.4,4.61-21.59,7.65-33.02,8.21-11.42.6-22.93-1.39-33.59-5.5-5.32-2.08-10.43-4.65-15.33-7.57l-3.64-2.25-3.53-2.41c-2.35-1.61-4.61-3.33-6.86-5.05-4.52-3.45-8.84-7.12-13.21-10.69-4.39-3.56-8.8-7.09-13.27-10.54-17.86-13.79-36.64-26.47-56.87-36.37-20.18-9.88-41.84-16.94-64.15-19.32-11.14-1.18-22.38-1.22-33.51-.14-11.13,1.08-22.18,3.13-32.89,6.42-2.71.69-5.34,1.67-7.99,2.58-2.64.94-5.32,1.75-7.89,2.88l-7.77,3.19c-2.55,1.15-5.07,2.39-7.6,3.58l-3.79,1.81-3.7,2-7.39,4.01-7.19,4.38-3.59,2.19c-1.19.75-2.33,1.56-3.5,2.34-9.28,6.19-18.61,12.92-28.33,18.81-9.77,5.86-19.8,11.32-30.18,16.07-20.79,9.37-43.01,16.08-65.92,18.09-11.43,1.07-23,.74-34.41-.71-11.39-1.6-22.65-4.41-33.35-8.72-2.67-1.09-5.33-2.21-7.92-3.46-2.59-1.21-5.2-2.58-7.61-3.78-5.27-2.48-10.24-5.68-14.89-8.87-1.16-.79-2.32-1.56-3.44-2.25-1.06-.66-2.39-1.3-3.61-1.95l-7.44-3.89c-2.5-1.26-5.07-2.37-7.6-3.56l-3.81-1.76c-1.28-.57-2.59-1.07-3.88-1.61l-7.78-3.16-7.92-2.83c-1.32-.46-2.63-.96-3.96-1.4l-4.02-1.25c-2.68-.81-5.34-1.7-8.04-2.46-10.8-3.03-21.75-5.53-32.79-7.57-11.06-1.92-22.19-3.52-33.39-4.52-11.2-1-22.43-1.65-33.68-1.84-22.5-.34-45.04.77-67.42,3.28-11.19,1.27-22.34,2.86-33.41,4.87-2.77.5-5.53,1.03-8.28,1.6l-4.11.88-4.15.92-8.27,1.81-4.14.9c-1.37.32-2.73.68-4.1,1.02-21.88,5.36-43.4,12.21-64.48,20.2-42.17,16.03-82.71,36.32-121.39,59.65-19.36,11.64-38.29,24.02-56.77,37.03-9.24,6.5-18.34,13.21-27.32,20.08-8.96,6.88-17.85,13.89-26.42,21.25l-.33-.37c16.96-15,34.85-28.91,53.14-42.27,18.32-13.31,37.08-26.02,56.39-37.88,19.29-11.88,39-23.1,59.24-33.33,20.22-10.25,40.9-19.64,62.07-27.81,21.16-8.18,42.79-15.23,64.83-20.78,1.38-.35,2.75-.73,4.13-1.06l4.15-.93,8.29-1.87,4.13-.94,4.18-.93c2.79-.6,5.58-1.15,8.37-1.68,11.18-2.11,22.42-3.79,33.7-5.14,22.56-2.71,45.31-3.89,68.05-3.61,11.37.15,22.74.78,34.07,1.75,11.34.98,22.63,2.57,33.86,4.48,5.59,1.08,11.2,2.09,16.74,3.45,5.58,1.19,11.06,2.76,16.57,4.23,2.74.77,5.45,1.67,8.18,2.5l4.09,1.27c1.35.45,2.69.95,4.04,1.42l8.06,2.88,7.93,3.23c1.32.55,2.65,1.05,3.96,1.64l3.89,1.8c2.58,1.22,5.21,2.36,7.76,3.64l7.6,3.98c1.28.69,2.5,1.26,3.85,2.09,1.28.79,2.47,1.6,3.65,2.39,4.67,3.2,9.24,6.16,14.2,8.53,2.65,1.33,5.04,2.6,7.57,3.8,2.5,1.21,5.05,2.3,7.62,3.36,10.28,4.19,21.12,6.93,32.11,8.52,11.02,1.44,22.2,1.81,33.3.81,22.24-1.86,43.97-8.32,64.41-17.44,10.21-4.63,20.1-9.96,29.75-15.7,9.65-5.81,18.7-12.29,28.29-18.59,1.19-.78,2.36-1.6,3.57-2.35l3.67-2.2,7.33-4.4,7.55-4.03,3.77-2.01,3.88-1.82c2.59-1.2,5.16-2.44,7.77-3.6l7.95-3.2c2.62-1.13,5.37-1.95,8.06-2.89,2.71-.91,5.39-1.88,8.17-2.58,21.93-6.47,45.18-8.49,67.88-5.86,22.73,2.65,44.67,10.06,64.97,20.25,20.36,10.19,39.16,23.12,56.97,37.12,4.46,3.5,8.85,7.08,13.22,10.68,4.37,3.62,8.63,7.31,13.08,10.76,2.23,1.72,4.47,3.43,6.78,5.03l3.47,2.39,3.57,2.23c4.81,2.88,9.82,5.43,15.03,7.48,10.44,4.06,21.69,6.04,32.88,5.49,11.2-.51,22.21-3.46,32.48-7.97,10.3-4.51,19.9-10.54,28.87-17.34,4.51-3.39,8.79-7.03,13.12-10.69,4.32-3.65,8.64-7.29,12.85-11.04,2.1-1.88,4.19-3.78,6.22-5.73l6.18-5.82c4.08-3.94,8.39-7.62,12.63-11.38,1.05-.95,2.14-1.86,3.24-2.76l3.28-2.71c2.2-1.79,4.33-3.66,6.6-5.36l6.72-5.21c2.23-1.75,4.57-3.36,6.84-5.05,4.54-3.41,9.29-6.51,13.96-9.72l7.17-4.58c1.2-.75,2.38-1.54,3.6-2.27l3.66-2.17c2.45-1.43,4.85-2.95,7.35-4.3l7.45-4.12c2.5-1.34,5.04-2.61,7.56-3.92,2.51-1.33,5.08-2.54,7.64-3.76,20.46-9.87,41.9-17.66,63.83-23.61,21.94-5.94,44.4-9.91,67-12.19,11.3-1.15,22.64-1.9,33.96-2.4,11.31-.56,22.68-.76,34.02-.77,11.35.08,22.69.35,34.02.92,11.33.58,22.64,1.42,33.94,2.48,11.29,1.08,22.56,2.4,33.8,3.99,5.62.83,11.23,1.66,16.83,2.66,5.62,1,11.15,2.14,16.7,3.22l8.31,1.63c2.76.51,5.56,1.09,8.22,1.42,5.58.51,11.14,1.21,16.76,1.35,5.6.38,11.22.28,16.83.3,2.81-.03,5.61-.2,8.42-.29l4.21-.17c1.4-.08,2.8-.21,4.21-.31l8.41-.66,8.39-.95,4.19-.48,4.18-.6,8.36-1.21,8.33-1.44c1.39-.25,2.78-.46,4.16-.73l4.14-.83,8.29-1.68,8.25-1.86c2.76-.6,5.49-1.28,8.22-1.97l8.2-2.07c5.44-1.51,10.9-2.91,16.3-4.55,10.85-3.12,21.58-6.64,32.26-10.29,10.68-3.67,21.25-7.66,31.78-11.73,10.52-4.13,20.95-8.47,31.29-13.02,10.34-4.55,20.59-9.32,30.7-14.37,5.04-2.55,10.09-5.09,15.05-7.8,1.25-.66,2.48-1.35,3.71-2.05,1.23-.69,2.47-1.37,3.67-2.1,1.21-.72,2.44-1.42,3.62-2.2.59-.38,1.2-.74,1.78-1.14l1.72-1.22.31.39Z"/>
      <path class="cls-1" d="m2019.99,19.64c-4.54,3.47-9.44,6.38-14.33,9.29-4.91,2.87-9.87,5.65-14.9,8.31-10.03,5.35-20.22,10.42-30.5,15.27-20.57,9.71-41.55,18.57-62.92,26.4-2.66,1.01-5.34,1.96-8.03,2.9-2.69.94-5.36,1.91-8.06,2.82-5.4,1.79-10.79,3.64-16.23,5.3-10.85,3.45-21.83,6.5-32.87,9.33l-8.3,2.03c-2.76.7-5.56,1.24-8.34,1.86-5.56,1.28-11.17,2.27-16.77,3.35-2.8.53-5.63.92-8.44,1.39-2.82.45-5.63.92-8.47,1.24l-8.5,1.07c-2.84.3-5.69.52-8.53.79l-4.27.38-4.28.22c-2.86.13-5.71.33-8.57.41-5.72.05-11.44.21-17.17-.1-5.73-.08-11.43-.74-17.15-1.2-2.94-.37-5.72-.88-8.54-1.38l-8.39-1.58c-5.59-1.06-11.16-2.23-16.7-3.17-5.56-.96-11.17-1.78-16.77-2.55-11.22-1.52-22.48-2.76-33.77-3.77-22.57-1.97-45.22-3.03-67.87-3.04-11.33.07-22.62.36-33.97.88-11.32.49-22.61,1.24-33.87,2.41-22.49,2.35-44.81,6.41-66.57,12.59-21.78,6.1-42.9,14.47-63.16,24.57-10.08,5.14-19.95,10.7-29.57,16.67-2.39,1.51-4.75,3.08-7.13,4.62l-3.56,2.32-3.48,2.43c-2.32,1.63-4.66,3.22-6.96,4.88l-6.81,5.08c-2.29,1.67-4.5,3.44-6.71,5.22-2.2,1.78-4.44,3.53-6.62,5.33l-6.46,5.53-3.23,2.77-3.14,2.87c-8.55,7.46-16.25,15.77-24.71,23.46-4.22,3.83-8.54,7.53-12.87,11.21-4.31,3.69-8.72,7.34-13.31,10.72-9.17,6.77-19.01,12.73-29.57,17.15-10.54,4.41-21.87,7.17-33.36,7.39-11.49.27-22.97-2.09-33.56-6.48-1.31-.58-2.66-1.08-3.94-1.72l-3.86-1.89c-2.51-1.38-5.03-2.74-7.44-4.29l-1.82-1.13c-.6-.39-1.18-.81-1.77-1.21-1.17-.81-2.37-1.61-3.53-2.44-2.31-1.68-4.58-3.39-6.83-5.15-4.51-3.5-8.85-7.16-13.29-10.69-4.43-3.54-8.88-7.06-13.41-10.47-18.06-13.68-37.08-26.19-57.53-35.85-20.4-9.66-42.28-16.34-64.7-18.46-11.2-1.12-22.5-.93-33.66.28-1.4.15-2.8.24-4.19.45l-4.16.66c-2.77.45-5.56.82-8.29,1.49-2.74.63-5.5,1.15-8.22,1.86l-8.12,2.28c-21.49,6.66-41.84,16.84-60.55,29.42l-7.02,4.72-7.09,4.82c-1.19.8-2.36,1.61-3.56,2.39l-3.63,2.28c-2.43,1.5-4.82,3.07-7.29,4.52-9.83,5.85-20.01,11.15-30.48,15.82-10.47,4.68-21.3,8.59-32.4,11.58-11.1,3-22.47,5.09-33.97,5.94-22.96,1.81-46.49-1.28-67.98-9.96-2.67-1.1-5.34-2.23-7.94-3.47l-7.73-3.72c-2.62-1.31-5.17-2.76-7.64-4.3-2.46-1.53-4.85-3.19-7.17-4.72-.58-.38-1.15-.75-1.71-1.09l-.83-.48-.94-.49-3.74-1.94-3.74-1.94c-1.25-.63-2.48-1.33-3.77-1.89-5.12-2.32-10.18-4.79-15.44-6.79-20.83-8.55-42.76-14.25-64.97-18.12-11.13-1.85-22.33-3.22-33.58-4.18-11.26-.85-22.55-1.31-33.85-1.37-22.6-.02-45.21,1.52-67.63,4.48-11.21,1.49-22.37,3.34-33.43,5.64-2.76.59-5.52,1.19-8.25,1.85l-8.25,2.03-8.25,2.03c-2.75.67-5.45,1.51-8.18,2.26-21.78,6.1-43.15,13.72-64.04,22.45-20.88,8.77-41.36,18.55-61.35,29.25-19.98,10.72-39.51,22.29-58.61,34.54-4.79,3.04-9.5,6.21-14.24,9.32-4.68,3.2-9.42,6.32-14.07,9.58-9.35,6.43-18.55,13.09-27.66,19.86-9.11,6.77-18.09,13.72-26.94,20.83-8.83,7.13-17.6,14.36-26.06,21.93l-.34-.36c16.73-15.41,34.34-29.82,52.37-43.68,9.03-6.91,18.14-13.72,27.41-20.3,4.6-3.34,9.31-6.54,13.97-9.79,4.72-3.17,9.41-6.39,14.18-9.5,38.04-24.94,77.86-47.4,119.82-65.26,20.97-8.93,42.43-16.75,64.37-23.05,2.74-.77,5.47-1.64,8.23-2.33l8.28-2.09,8.28-2.1c2.79-.69,5.58-1.31,8.37-1.93,11.17-2.4,22.43-4.34,33.73-5.92,22.61-3.17,45.43-4.79,68.28-4.83,11.42.02,22.85.45,34.25,1.28,11.39.94,22.76,2.28,34.05,4.13,22.54,3.88,44.84,9.72,66.08,18.44,5.36,2.04,10.52,4.56,15.75,6.93,1.32.57,2.57,1.28,3.85,1.93l3.82,1.99,3.82,1.99.95.5,1.01.59c.65.4,1.28.8,1.88,1.2,2.42,1.61,4.7,3.19,7.06,4.66,2.35,1.48,4.74,2.85,7.19,4.09l7.61,3.7c2.52,1.21,5.09,2.31,7.66,3.38,20.67,8.43,43.37,11.52,65.68,9.85,11.17-.78,22.25-2.77,33.1-5.66,10.85-2.88,21.47-6.67,31.76-11.22,10.29-4.55,20.33-9.72,30.04-15.45,2.44-1.42,4.8-2.96,7.21-4.43l3.59-2.23c1.18-.77,2.35-1.57,3.52-2.35l7.03-4.72,7.16-4.74c19.06-12.64,39.85-22.88,61.82-29.53,21.99-6.5,45.27-9.08,68.11-6.62,22.85,2.39,45.01,9.41,65.54,19.38,20.59,9.95,39.64,22.71,57.65,36.6,4.52,3.46,8.95,7.03,13.37,10.62,4.43,3.58,8.73,7.29,13.18,10.78,2.23,1.75,4.48,3.46,6.76,5.13,1.15.82,2.31,1.61,3.47,2.42.58.4,1.15.81,1.74,1.2l1.79,1.12c2.36,1.54,4.84,2.88,7.3,4.25l3.79,1.86c1.26.64,2.58,1.13,3.86,1.7,10.37,4.34,21.6,6.68,32.86,6.45,11.26-.18,22.4-2.85,32.81-7.17,10.44-4.31,20.17-10.23,29.24-16.97,4.55-3.37,8.89-6.97,13.2-10.68,4.32-3.69,8.62-7.38,12.81-11.2,8.35-7.6,16.04-16.07,24.58-23.6l3.13-2.9,3.22-2.8,6.45-5.59c2.18-1.83,4.41-3.6,6.62-5.4,2.21-1.8,4.41-3.61,6.69-5.31l6.79-5.18c2.29-1.69,4.63-3.32,6.94-4.98l3.48-2.48,3.55-2.38c2.38-1.57,4.73-3.17,7.12-4.72,9.62-6.12,19.5-11.82,29.6-17.11,20.3-10.39,41.52-19.05,63.45-25.44,21.9-6.45,44.4-10.83,67.09-13.36,11.34-1.24,22.73-2.06,34.1-2.62,11.35-.61,22.77-.91,34.16-.99,11.4.03,22.79.2,34.18.75,11.38.53,22.75,1.3,34.1,2.33,11.34,1.05,22.67,2.32,33.96,3.88,5.65.79,11.28,1.63,16.91,2.62,5.66.98,11.21,2.15,16.78,3.23l8.35,1.61c2.77.51,5.58,1.04,8.27,1.39,5.6.48,11.19,1.17,16.83,1.27,5.62.34,11.27.21,16.9.2,2.82-.06,5.64-.24,8.46-.36l4.23-.2,4.22-.36c2.81-.25,5.63-.46,8.44-.73l8.42-1.01c2.81-.3,5.6-.75,8.4-1.17,2.79-.44,5.6-.8,8.38-1.3,5.57-1.01,11.15-1.94,16.68-3.16,2.77-.6,5.55-1.11,8.3-1.77l8.27-1.93c11-2.7,21.95-5.62,32.79-8.95,5.44-1.59,10.82-3.38,16.22-5.11,2.69-.88,5.37-1.82,8.05-2.73,2.69-.91,5.37-1.83,8.03-2.81,21.35-7.64,42.43-16.11,63.1-25.49,10.34-4.68,20.58-9.58,30.67-14.77,5.05-2.59,10.06-5.25,15.02-8.01,4.92-2.8,9.88-5.61,14.44-8.95l.31.39Z"/>
      <path class="cls-1" d="m2022.76,22.38c-4.54,3.52-9.41,6.52-14.28,9.5-4.91,2.92-9.85,5.8-14.87,8.52-10.02,5.49-20.2,10.68-30.48,15.67-10.28,4.99-20.67,9.75-31.16,14.27-10.48,4.55-21.08,8.84-31.78,12.87-5.33,2.07-10.73,3.95-16.1,5.9l-8.11,2.78-4.06,1.38-4.08,1.31c-10.86,3.59-21.87,6.71-32.93,9.69-5.56,1.38-11.09,2.86-16.69,4.05-2.8.61-5.58,1.3-8.39,1.84l-8.43,1.66c-11.27,2.05-22.61,3.83-34.06,4.8l-4.28.42-4.3.26c-2.87.16-5.73.37-8.6.48l-8.62.15-2.16.04c-.72,0-1.44-.03-2.16-.05l-4.31-.13c-2.88-.08-5.75-.13-8.62-.42-2.88-.24-5.73-.44-8.63-.71-5.81-.75-11.38-1.85-17.01-2.91-5.62-1.06-11.21-2.25-16.77-3.17-5.59-.93-11.22-1.76-16.86-2.49-11.28-1.49-22.6-2.68-33.93-3.64-11.34-.99-22.7-1.63-34.07-2.11-11.37-.52-22.75-.63-34.12-.6-5.69.1-11.37.12-17.05.38-5.67.19-11.38.42-17.07.7-11.37.54-22.71,1.33-33.98,2.65-22.56,2.57-44.91,7.05-66.59,13.82-21.67,6.77-42.73,15.59-62.68,26.5-20.03,10.78-38.87,23.69-56.66,37.89-8.77,7.25-17.42,14.67-25.59,22.61-8.39,7.71-15.85,16.34-24.32,24.11-4.2,3.89-8.52,7.64-12.85,11.36-4.33,3.73-8.79,7.35-13.43,10.71-9.28,6.72-19.26,12.56-29.97,16.77-10.69,4.19-22.16,6.63-33.7,6.51-11.53-.08-23.02-2.71-33.52-7.41-5.26-2.34-10.33-5.09-15.15-8.23-1.21-.77-2.37-1.62-3.56-2.43l-1.77-1.23-1.7-1.31-6.79-5.25c-4.58-3.45-8.96-7.09-13.45-10.6-4.47-3.54-8.99-7-13.56-10.4-18.27-13.57-37.53-25.91-58.21-35.32-20.63-9.41-42.72-15.76-65.27-17.54-11.26-.89-22.61-.76-33.82.67-11.21,1.36-22.27,3.81-33.08,7.11l-8.02,2.75-2,.69c-.66.24-1.31.52-1.97.78l-3.93,1.59c-5.29,2-10.34,4.57-15.48,6.93-2.53,1.26-5,2.65-7.5,3.96l-3.74,2c-1.25.67-2.44,1.44-3.66,2.15l-7.28,4.37c-2.42,1.47-4.73,3.11-7.1,4.66l-14.23,9.54c-1.18.82-2.4,1.58-3.62,2.33l-3.66,2.28-3.66,2.28c-1.21.77-2.48,1.44-3.72,2.17-9.89,5.86-20.2,11.03-30.77,15.59-21.13,9.11-43.71,15.34-66.84,16.9l-2.16.16-2.17.08-4.34.15-4.35-.02c-1.45,0-2.9-.01-4.34-.1l-4.34-.2-4.33-.37c-1.45-.1-2.89-.29-4.32-.47-1.44-.19-2.88-.32-4.31-.58-11.48-1.72-22.76-4.81-33.53-9.15-2.68-1.1-5.35-2.25-7.96-3.47l-3.87-1.8c-1.34-.62-2.66-1.26-3.96-1.95-2.6-1.36-5.13-2.86-7.58-4.43-2.44-1.54-4.85-3.28-7.08-4.63-.5-.3-1.19-.64-1.8-.96l-1.88-.97-3.76-1.94-3.76-1.94c-1.26-.65-2.56-1.19-3.84-1.79l-7.71-3.51c-2.6-1.1-5.24-2.11-7.86-3.18l-3.93-1.58c-1.32-.5-2.67-.94-4-1.41l-8-2.8-8.12-2.46c-1.36-.4-2.7-.84-4.06-1.21l-4.11-1.07c-10.91-3-22.05-5.12-33.22-6.98l-8.4-1.26c-2.81-.37-5.63-.67-8.44-1.01-1.41-.16-2.81-.34-4.22-.48l-4.24-.37c-2.83-.22-5.64-.54-8.47-.68-11.31-.79-22.66-1.01-34.01-.9-11.35.11-22.69.71-34,1.68-11.31.98-22.6,2.3-33.82,4.04-11.22,1.73-22.39,3.86-33.41,6.48-5.5,1.29-10.95,2.89-16.45,4.37l-4.12,1.13c-1.38.37-2.74.75-4.09,1.19l-8.13,2.53c-21.66,6.86-42.85,15.25-63.53,24.72-41.37,19.01-80.78,42.19-118.46,67.83-9.39,6.46-18.72,13.02-27.9,19.77-9.21,6.72-18.3,13.61-27.27,20.65-8.98,7.03-17.84,14.21-26.57,21.56-8.71,7.36-17.36,14.81-25.71,22.57l-.34-.36c16.5-15.8,33.86-30.66,51.62-45.02,17.75-14.37,36.02-28.12,54.74-41.23,18.75-13.06,37.95-25.5,57.64-37.14,19.69-11.62,39.85-22.51,60.62-32.15,20.75-9.67,42.03-18.26,63.84-25.33l8.19-2.61c1.36-.45,2.74-.85,4.12-1.22l4.13-1.16c5.51-1.52,11-3.17,16.6-4.53,11.16-2.73,22.42-4.95,33.74-6.78,22.64-3.64,45.54-5.76,68.5-6.09,11.47-.14,22.96.04,34.42.81,2.87.13,5.73.45,8.59.67l4.29.36c1.43.13,2.86.32,4.28.47,2.85.34,5.71.63,8.56,1l8.53,1.25c11.35,1.84,22.65,4.04,33.76,7.08l4.18,1.09c1.39.38,2.76.83,4.14,1.24l8.26,2.51,8.15,2.86c1.36.48,2.72.94,4.07,1.44l4.01,1.61c2.67,1.08,5.36,2.12,8.01,3.24l7.86,3.59c1.3.61,2.64,1.17,3.92,1.82l3.84,1.98,3.84,1.98,1.92.99c.65.34,1.25.62,1.97,1.06,2.65,1.62,4.86,3.23,7.24,4.74,2.35,1.52,4.73,2.94,7.18,4.23,1.22.65,2.46,1.26,3.71,1.85l3.88,1.82c2.56,1.2,5.12,2.32,7.72,3.4,10.38,4.23,21.25,7.25,32.34,8.95,1.38.25,2.78.38,4.17.57,1.39.18,2.78.37,4.18.47l4.19.37,4.21.21c1.4.09,2.81.11,4.21.11l4.21.03,4.21-.13,2.11-.06,2.1-.15c22.47-1.43,44.56-7.42,65.33-16.29,10.39-4.44,20.55-9.48,30.32-15.23,1.22-.71,2.48-1.37,3.68-2.13l3.62-2.23,3.62-2.23c1.21-.74,2.41-1.49,3.58-2.29,4.71-3.15,9.42-6.28,14.26-9.44,2.42-1.56,4.77-3.2,7.24-4.68l7.43-4.39c1.25-.72,2.46-1.49,3.73-2.16l3.82-2.01c2.55-1.32,5.08-2.71,7.66-3.98,5.24-2.38,10.4-4.95,15.8-6.96l4.01-1.6c.67-.26,1.33-.55,2.01-.78l2.05-.69,8.19-2.75c11.05-3.29,22.36-5.72,33.82-7.04,11.46-1.35,23.06-1.37,34.53-.35,22.98,2.04,45.35,8.73,66.12,18.45,20.83,9.7,40.12,22.29,58.35,36.08,4.56,3.45,9.07,6.96,13.52,10.55,4.47,3.56,8.83,7.26,13.35,10.7l6.73,5.24,1.68,1.31,1.74,1.22c1.17.8,2.31,1.64,3.5,2.41,4.73,3.11,9.71,5.83,14.87,8.14,10.3,4.65,21.53,7.26,32.83,7.37,11.31.15,22.58-2.2,33.13-6.3,10.58-4.09,20.45-9.9,29.62-16.58,4.6-3.34,9-6.93,13.31-10.66,4.32-3.72,8.61-7.47,12.78-11.34,2.08-1.94,4.13-3.91,6.12-5.93l5.94-6.15,5.97-6.16c2-2.04,4.09-3.99,6.13-5.99,8.15-8.03,16.81-15.51,25.55-22.89,17.72-14.46,36.55-27.65,56.62-38.73,19.99-11.2,41.15-20.33,62.97-27.39,21.83-7.05,44.38-11.87,67.15-14.62,5.69-.72,11.4-1.24,17.11-1.74,5.71-.45,11.43-.83,17.14-1.13,11.39-.62,22.86-1.07,34.31-1.18,22.9-.17,45.8.75,68.6,2.75,11.4,1,22.78,2.23,34.13,3.75,5.68.75,11.34,1.6,17,2.56,5.69.95,11.27,2.16,16.86,3.23,5.58,1.06,11.21,2.21,16.71,2.95,2.78.28,5.62.49,8.43.74,2.81.3,5.64.36,8.47.46l4.24.15c.71.02,1.41.06,2.12.06l2.12-.02,8.49-.1c2.83-.09,5.66-.29,8.49-.42l4.25-.24,4.24-.39c22.62-1.95,45.02-6.23,67.09-11.7,11.01-2.85,22-5.85,32.85-9.32l4.08-1.26,4.06-1.34,8.11-2.69c5.37-1.89,10.77-3.72,16.1-5.72,10.71-3.89,21.29-8.12,31.83-12.47,10.54-4.35,20.97-8.94,31.3-13.76,10.33-4.82,20.57-9.84,30.65-15.17,5.05-2.65,10.04-5.4,14.99-8.22,4.91-2.87,9.84-5.78,14.4-9.17l.31.39Z"/>
      <path class="cls-1" d="m2025.53,25.13c-4.54,3.55-9.37,6.66-14.25,9.69-4.89,3.01-9.83,5.93-14.84,8.73-10.01,5.62-20.18,10.95-30.45,16.06-10.27,5.13-20.68,9.97-31.17,14.64-10.48,4.7-21.1,9.06-31.8,13.24-21.39,8.37-43.21,15.69-65.38,21.8-22.21,5.94-44.8,10.77-67.77,13.02l-4.3.45c-1.44.14-2.88.2-4.32.31-2.88.18-5.76.4-8.64.54l-8.66.2-2.17.05-2.17-.04-4.34-.1-4.34-.1c-1.45-.03-2.89-.19-4.33-.28-2.9-.23-5.75-.39-8.68-.68-5.82-.73-11.45-1.8-17.1-2.86l-8.46-1.65c-2.81-.57-5.57-1.05-8.39-1.52-5.63-.9-11.28-1.73-16.95-2.43-11.33-1.45-22.71-2.6-34.11-3.52-5.7-.48-11.4-.82-17.11-1.19-5.71-.27-11.42-.61-17.13-.78-11.42-.45-22.86-.54-34.28-.41l-8.57.17c-2.86.04-5.71.22-8.56.32-5.69.22-11.45.49-17.16.78-11.42.56-22.79,1.45-34.11,2.88-22.62,2.87-44.98,7.86-66.58,15.2-21.63,7.26-42.43,16.94-62.18,28.41l-1.86,1.06-1.82,1.12-3.65,2.24c-2.43,1.5-4.88,2.96-7.25,4.57l-7.15,4.72-7,4.95-3.5,2.48-3.42,2.59-6.82,5.19-6.66,5.41c-2.22,1.8-4.45,3.59-6.58,5.5l-6.46,5.64c-1.09.93-2.14,1.9-3.18,2.88l-3.13,2.93c-2.08,1.96-4.2,3.89-6.25,5.88l-6.07,6.06c-4.11,3.98-7.94,8.24-11.88,12.39-1.97,2.07-3.9,4.22-5.91,6.28-2.01,2.06-4.06,4.08-6.16,6.05-4.19,3.95-8.5,7.74-12.84,11.49-4.36,3.76-8.86,7.35-13.57,10.68-9.4,6.65-19.55,12.33-30.4,16.31-10.83,3.97-22.43,6.08-34.02,5.62-11.59-.41-23-3.45-33.48-8.32-5.23-2.47-10.23-5.39-15.03-8.61l-3.55-2.48c-1.16-.86-2.28-1.75-3.42-2.62l-6.83-5.26-3.42-2.63-3.36-2.67c-2.23-1.79-4.5-3.54-6.76-5.3-4.52-3.51-9.1-6.95-13.71-10.33-18.48-13.47-38.01-25.59-58.9-34.78-20.86-9.16-43.16-15.18-65.85-16.61-11.33-.74-22.72-.36-33.98,1.07-11.25,1.53-22.33,4.13-33.15,7.55l-8.06,2.75c-2.65,1.01-5.27,2.11-7.91,3.16-1.31.54-2.64,1.04-3.94,1.62l-3.86,1.8c-2.56,1.22-5.18,2.35-7.7,3.65-5,2.7-10.11,5.2-14.94,8.22-2.44,1.47-4.91,2.88-7.32,4.39l-7.13,4.7-14.36,9.55c-4.92,3.02-9.77,6.14-14.83,8.93-10.03,5.71-20.36,10.96-31.06,15.37-21.34,8.87-44.08,14.95-67.34,16.25-2.9.14-5.81.29-8.72.27-2.91.07-5.82-.07-8.73-.16-5.81-.32-11.62-.84-17.38-1.78-11.51-1.84-22.83-4.98-33.62-9.38-2.69-1.1-5.37-2.27-7.98-3.46-2.61-1.16-5.34-2.46-7.9-3.88-2.59-1.41-5.09-2.96-7.53-4.56l-3.58-2.37c-.57-.37-1.16-.76-1.67-1.04l-1.87-.97c-5.06-2.58-10.05-5.27-15.28-7.51l-3.88-1.76c-1.29-.59-2.58-1.18-3.91-1.68l-7.92-3.15c-2.62-1.11-5.34-1.93-8.01-2.89l-4.03-1.4-2.01-.7-2.04-.61-8.17-2.45c-1.35-.43-2.73-.78-4.11-1.12l-4.13-1.06c-5.48-1.51-11.08-2.56-16.63-3.79-2.79-.53-5.6-1-8.4-1.51l-4.2-.74-4.22-.61c-11.25-1.73-22.6-2.75-33.97-3.39-11.37-.67-22.78-.73-34.17-.41-22.79.64-45.54,3.06-68,7.04-11.22,2.02-22.4,4.4-33.37,7.38-2.73.73-5.45,1.58-8.19,2.41l-8.2,2.48c-2.75.79-5.44,1.74-8.14,2.66l-8.1,2.77c-21.52,7.62-42.49,16.83-62.93,27.06-40.87,20.53-79.8,44.92-116.92,71.74-18.53,13.46-36.72,27.4-54.41,41.98-8.85,7.28-17.6,14.68-26.2,22.25-8.6,7.58-17.13,15.23-25.38,23.18l-.35-.35c16.29-16.17,33.41-31.46,50.91-46.31,17.5-14.85,35.5-29.11,53.95-42.77,18.45-13.67,37.4-26.67,56.81-38.96,19.42-12.27,39.33-23.8,59.84-34.22,20.49-10.43,41.54-19.84,63.21-27.68l8.16-2.85c2.72-.95,5.43-1.93,8.19-2.74l8.24-2.55c2.74-.85,5.49-1.72,8.29-2.5,11.14-3.1,22.4-5.58,33.73-7.7,22.66-4.21,45.65-6.71,68.7-7.42,11.53-.36,23.07-.33,34.6.31,11.52.62,23.04,1.61,34.46,3.33l4.29.6,4.27.74c2.84.51,5.69.99,8.53,1.53,5.64,1.25,11.32,2.33,16.9,3.86l4.2,1.08c1.4.35,2.8.71,4.18,1.15l8.31,2.49,2.08.62,2.05.71,4.1,1.42c2.72.98,5.49,1.82,8.16,2.95l8.07,3.21c1.35.51,2.67,1.11,3.99,1.72l3.95,1.79c5.32,2.28,10.42,5.03,15.58,7.67.65.34,1.27.64,1.95,1.01.75.42,1.35.82,1.99,1.23l3.58,2.38c2.36,1.55,4.72,3.03,7.16,4.37,2.45,1.37,4.89,2.54,7.52,3.72,2.6,1.19,5.18,2.33,7.79,3.41,10.43,4.29,21.33,7.37,32.46,9.19,5.56.93,11.19,1.45,16.82,1.78,2.82.1,5.64.24,8.46.19,2.82.04,5.65-.1,8.47-.23,22.6-1.18,44.84-7.02,65.82-15.65,10.52-4.28,20.7-9.41,30.61-15.01,5-2.73,9.8-5.8,14.66-8.76l14.34-9.42,7.26-4.72c2.46-1.52,4.97-2.94,7.46-4.41,4.92-3.03,10.14-5.55,15.24-8.26,2.58-1.31,5.24-2.44,7.86-3.67l3.94-1.81c1.32-.58,2.68-1.08,4.02-1.62,2.69-1.05,5.37-2.16,8.08-3.16l8.24-2.75c11.06-3.43,22.38-6.01,33.88-7.49,11.51-1.35,23.14-1.62,34.68-.76,23.11,1.68,45.71,8.04,66.71,17.51,21.05,9.47,40.62,21.86,59.06,35.54,4.61,3.43,9.17,6.92,13.68,10.48,2.25,1.78,4.5,3.56,6.73,5.37l3.35,2.71,3.38,2.64,6.78,5.26c1.13.87,2.25,1.76,3.39,2.62l3.49,2.45c4.72,3.18,9.63,6.07,14.76,8.52,10.28,4.82,21.45,7.82,32.81,8.26,11.35.49,22.74-1.55,33.43-5.42,10.72-3.86,20.75-9.51,30.04-16.12,4.65-3.3,9.11-6.87,13.43-10.61,4.33-3.75,8.62-7.54,12.77-11.47,2.07-1.96,4.11-3.96,6.09-6.02,1.98-2.05,3.87-4.18,5.84-6.28,3.93-4.19,7.74-8.49,11.84-12.52l6.06-6.13c2.05-2.01,4.16-3.96,6.24-5.95l3.13-2.96c1.04-1,2.09-1.97,3.17-2.91l6.44-5.73c2.12-1.94,4.34-3.76,6.55-5.6l6.64-5.51,6.81-5.29,3.41-2.64,3.49-2.53,6.99-5.05,7.15-4.83c2.36-1.64,4.81-3.15,7.25-4.68l3.65-2.3,1.83-1.15,1.86-1.09c19.77-11.77,40.67-21.76,62.45-29.32,21.76-7.62,44.32-12.96,67.18-16.02,11.43-1.51,22.93-2.48,34.41-3.1,5.74-.31,11.44-.64,17.2-.86,2.88-.1,5.75-.29,8.62-.33l8.63-.18c11.5-.14,23.01-.07,34.5.37,11.49.38,22.98,1.09,34.43,2.04,11.46.95,22.9,2.14,34.31,3.63,5.71.73,11.4,1.58,17.09,2.5,2.83.47,5.72.99,8.53,1.57l8.42,1.67c5.61,1.07,11.24,2.17,16.8,2.9,2.77.29,5.64.47,8.46.71,1.42.1,2.83.26,4.25.3l4.26.12,4.26.12,2.13.05,2.13-.04,8.53-.15c2.84-.12,5.68-.33,8.53-.49,1.42-.09,2.84-.15,4.26-.28l4.25-.42c22.71-2.13,45.17-6.66,67.3-12.35,22.1-5.86,43.9-12.93,65.3-21.06,2.68-1,5.36-2.02,8.01-3.08l7.98-3.16c5.29-2.18,10.6-4.33,15.86-6.59,10.53-4.5,20.99-9.17,31.31-14.13,10.33-4.95,20.56-10.11,30.63-15.56,5.03-2.73,10.03-5.53,14.96-8.44,4.92-2.92,9.81-5.93,14.38-9.36l.31.39Z"/>
      <path class="cls-1" d="m2028.3,27.88c-4.54,3.59-9.36,6.78-14.23,9.86-2.42,1.57-4.9,3.04-7.36,4.56l-7.46,4.39c-10,5.75-20.16,11.21-30.44,16.45-20.57,10.43-41.57,20.07-63.01,28.63-10.7,4.33-21.54,8.3-32.44,12.12-10.92,3.75-21.94,7.23-33.06,10.39-2.77.81-5.58,1.51-8.37,2.27-2.79.75-5.58,1.5-8.4,2.15l-8.43,2.03-8.49,1.81c-1.42.29-2.83.61-4.25.89l-4.27.78c-2.85.5-5.69,1.07-8.55,1.49l-8.59,1.26c-1.43.23-2.87.4-4.31.55l-4.32.48-4.32.48c-1.44.17-2.89.23-4.33.35-2.89.2-5.78.44-8.68.61l-8.7.26-2.18.07-2.18-.03-4.36-.07-4.36-.07c-1.45-.05-2.9-.18-4.35-.27l-4.35-.29c-1.45-.1-2.9-.17-4.37-.36-5.84-.71-11.51-1.75-17.2-2.82l-8.5-1.67c-2.8-.57-5.59-1.04-8.42-1.49-5.66-.9-11.35-1.66-17.04-2.37-11.4-1.41-22.84-2.52-34.29-3.38-11.46-.86-22.93-1.49-34.41-1.82-5.74-.23-11.48-.24-17.22-.35l-8.61.02c-2.87,0-5.74.02-8.61.11l-8.61.21c-2.87.1-5.73.26-8.6.38l-17.25.84c-5.74.3-11.45.69-17.16,1.19-5.7.55-11.4,1.15-17.06,1.97-22.68,3.13-45.04,8.7-66.53,16.65-10.75,3.99-21.27,8.56-31.56,13.62l-7.68,3.88-7.54,4.14c-2.54,1.34-4.98,2.85-7.45,4.31-2.46,1.48-4.96,2.88-7.36,4.46l-7.26,4.63c-2.4,1.58-4.74,3.24-7.11,4.85l-3.55,2.44c-1.17.83-2.31,1.7-3.47,2.55l-6.93,5.12c-9.06,7.06-17.99,14.31-26.44,22.1-2.12,1.94-4.28,3.84-6.36,5.83l-6.17,6.02c-4.18,3.95-8.06,8.2-12.07,12.32-2.02,2.05-3.93,4.2-5.85,6.34l-5.77,6.41c-3.8,4.34-7.8,8.56-11.98,12.55-4.18,4-8.48,7.84-12.86,11.61-4.4,3.76-8.97,7.32-13.73,10.61-9.52,6.57-19.83,12.11-30.83,15.85-10.98,3.74-22.71,5.52-34.33,4.71-11.63-.75-23-4.14-33.4-9.3-1.29-.67-2.62-1.26-3.87-2l-3.79-2.15c-2.45-1.56-4.93-3.06-7.28-4.77-2.41-1.62-4.65-3.44-6.95-5.19l-6.86-5.28c-9.07-7.11-18.13-14.19-27.52-20.83-18.72-13.32-38.49-25.27-59.62-34.17-10.56-4.45-21.43-8.12-32.54-10.82-11.11-2.7-22.46-4.35-33.86-4.91-11.4-.56-22.84,0-34.13,1.58l-8.44,1.36-8.36,1.83c-.7.16-1.39.3-2.09.47l-2.06.57-4.12,1.15-4.12,1.15-4.06,1.37c-21.72,7.09-42.05,18.01-61.05,30.72l-7.22,4.77c-2.43,1.59-4.8,3.25-7.3,4.73l-7.41,4.55-7.56,4.31c-10.15,5.62-20.6,10.73-31.38,15.11-21.52,8.77-44.47,14.47-67.84,15.59-1.46.11-2.92.11-4.38.14-1.46.02-2.92.08-4.38.06-2.92-.07-5.85-.07-8.77-.28-2.92-.12-5.83-.44-8.75-.71-2.9-.37-5.81-.71-8.69-1.23-11.55-1.9-22.89-5.17-33.72-9.61-2.72-1.12-5.34-2.26-8.02-3.47-2.7-1.23-5.34-2.58-7.9-4.06-2.56-1.47-5.06-3.06-7.47-4.67-1.22-.79-2.36-1.61-3.45-2.16l-3.81-1.94-7.62-3.89-7.8-3.51-3.9-1.76-3.98-1.58-7.96-3.14c-21.47-7.77-43.79-13.22-66.47-16.18-45.37-6.08-91.76-3.38-136.66,5.62-5.62,1.13-11.21,2.39-16.76,3.77-5.55,1.38-11.09,2.87-16.51,4.57l-16.33,5.43-8.06,3-4.03,1.5c-1.35.49-2.69,1-4.01,1.56-21.32,8.47-42.06,18.43-62.26,29.37-40.38,21.97-78.78,47.56-115.35,75.51-18.29,13.98-36.21,28.45-53.67,43.47-8.73,7.51-17.36,15.14-25.86,22.91-8.49,7.78-16.92,15.64-25.07,23.77l-.36-.35c16.08-16.53,32.98-32.23,50.23-47.54,17.27-15.29,34.98-30.07,53.19-44.25,18.18-14.2,36.83-27.82,55.98-40.71,19.15-12.89,38.79-25.09,59.04-36.22,20.24-11.14,41.06-21.3,62.51-29.99,1.33-.58,2.68-1.09,4.03-1.6l4.06-1.54,8.12-3.08,16.43-5.58c5.57-1.78,11.15-3.33,16.77-4.76,5.62-1.43,11.26-2.75,16.93-3.92,22.68-4.77,45.73-7.72,68.88-8.86,11.58-.61,23.18-.64,34.77-.22,5.8.15,11.58.61,17.37,1l8.66.85c1.44.16,2.89.26,4.33.46l4.32.58c23.03,2.95,45.73,8.54,67.6,16.46l8.11,3.21,4.05,1.61,3.98,1.79,7.95,3.58,7.77,3.96,3.89,1.98c1.47.76,2.67,1.64,3.87,2.42,2.38,1.6,4.73,3.11,7.16,4.52,2.43,1.41,4.91,2.69,7.45,3.86,2.56,1.17,5.22,2.33,7.83,3.42,10.48,4.34,21.41,7.53,32.59,9.42,2.79.51,5.6.85,8.41,1.22,2.82.27,5.64.59,8.48.71,2.83.22,5.67.23,8.5.31,1.42.02,2.84-.03,4.26-.04,1.42-.02,2.84-.02,4.26-.12,22.71-1.01,45.16-6.47,66.32-15.01,10.59-4.26,20.9-9.25,30.92-14.75,10.1-5.42,19.61-11.74,29.26-18.03,19.34-12.76,40.08-23.73,62.26-30.82l4.14-1.37,4.21-1.15,4.21-1.14,2.1-.57c.71-.17,1.42-.31,2.13-.46l8.54-1.81,8.63-1.34c11.54-1.52,23.22-1.97,34.83-1.28,11.61.68,23.15,2.47,34.41,5.33,11.26,2.85,22.25,6.69,32.88,11.29,21.3,9.19,41.11,21.4,59.8,34.94,2.34,1.69,4.64,3.43,6.97,5.14l6.88,5.25,13.58,10.72,6.82,5.28c2.28,1.74,4.52,3.57,6.88,5.17,2.31,1.7,4.75,3.19,7.15,4.73l3.72,2.13c1.23.73,2.53,1.32,3.8,1.98,10.21,5.1,21.34,8.46,32.74,9.23,11.39.83,22.9-.87,33.73-4.53,10.86-3.62,21.04-9.12,30.45-15.65,9.43-6.52,18.02-14.22,26.36-22.12,4.16-3.97,8.07-8.14,11.82-12.5l5.75-6.47c1.91-2.16,3.82-4.33,5.83-6.4,4-4.16,7.87-8.45,12.04-12.44l6.16-6.08c2.08-2,4.22-3.94,6.33-5.91,8.41-7.92,17.31-15.3,26.35-22.5l6.92-5.22c1.16-.86,2.3-1.75,3.47-2.6l3.55-2.49c2.37-1.65,4.71-3.35,7.11-4.96l7.26-4.75c2.4-1.62,4.91-3.06,7.37-4.58,2.48-1.49,4.92-3.04,7.47-4.42l7.57-4.25,7.71-4c10.33-5.21,20.92-9.94,31.74-14.07,10.82-4.15,21.88-7.65,33.1-10.58,11.22-2.92,22.59-5.26,34.07-6.91,5.73-.87,11.49-1.51,17.26-2.09,5.77-.54,11.54-.97,17.31-1.3,5.79-.31,11.47-.66,17.27-.92,2.89-.13,5.78-.29,8.67-.4l8.67-.22c2.89-.1,5.78-.12,8.67-.12l8.67-.03c5.78.1,11.56.1,17.33.33,11.55.31,23.09,1.01,34.61,1.9,11.52.9,23.02,2.04,34.49,3.49,5.73.73,11.46,1.52,17.18,2.44l4.29.72c1.43.26,2.9.53,4.3.82l8.45,1.68c5.63,1.07,11.29,2.15,16.89,2.86,1.38.19,2.81.26,4.23.37l4.27.31c1.42.09,2.84.23,4.27.29l4.28.09,4.28.09,2.14.04,2.14-.05,8.57-.21c2.86-.15,5.71-.37,8.56-.55,1.43-.11,2.86-.16,4.28-.32l4.27-.45,4.27-.45c1.43-.14,2.85-.3,4.26-.52l8.51-1.2c2.84-.4,5.65-.96,8.48-1.43l4.24-.73c1.41-.25,2.81-.56,4.22-.84l8.43-1.71,8.39-1.93c2.8-.62,5.58-1.34,8.36-2.06,2.78-.73,5.57-1.39,8.34-2.17,11.08-3.03,22.07-6.39,32.98-10.02,10.88-3.7,21.73-7.54,32.43-11.76,21.43-8.37,42.52-17.61,63.21-27.71,10.33-5.08,20.56-10.37,30.62-15.96l7.51-4.25c2.47-1.47,4.99-2.88,7.43-4.4,4.92-2.98,9.79-6.06,14.36-9.54l.31.39Z"/>
      <path class="cls-1" d="m2031.08,30.62c-4.54,3.63-9.36,6.87-14.22,10.03-4.85,3.17-9.81,6.18-14.79,9.14-9.98,5.89-20.15,11.47-30.43,16.83-10.28,5.36-20.68,10.48-31.18,15.41-10.5,4.93-21.15,9.53-31.86,13.99-10.73,4.42-21.57,8.56-32.49,12.49-10.96,3.83-21.97,7.52-33.13,10.75-11.16,3.21-22.39,6.23-33.78,8.61l-4.26.94-4.29.82c-2.86.53-5.71,1.1-8.58,1.58-5.75.88-11.5,1.84-17.29,2.44-2.89.35-5.78.71-8.69.9-2.91.22-5.81.49-8.72.67l-8.75.33-2.19.08-2.19-.02-4.38-.04-4.38-.04-4.38-.26-4.38-.27-2.19-.13-2.21-.23c-5.86-.69-11.58-1.71-17.3-2.79l-8.55-1.69c-2.78-.54-5.61-1.02-8.46-1.45-5.69-.89-11.42-1.61-17.14-2.32-11.46-1.36-22.96-2.45-34.48-3.25-11.52-.79-23.05-1.41-34.59-1.67-2.88-.1-5.77-.15-8.66-.17l-8.66-.09c-5.77.07-11.54.01-17.31.24l-8.65.26-8.64.45-17.35.88c-5.76.31-11.5.71-17.22,1.3-2.87.25-5.72.64-8.57.96-2.85.41-5.7.74-8.54,1.22-22.73,3.53-45.06,9.66-66.43,18.26-10.68,4.29-21.17,9.12-31.31,14.59-10.15,5.46-20.11,11.3-29.65,17.79l-3.61,2.39c-1.2.8-2.35,1.67-3.53,2.5l-7.04,5.03-6.88,5.26-3.43,2.64c-1.15.88-2.24,1.82-3.36,2.73l-6.68,5.51c-2.23,1.83-4.35,3.8-6.53,5.69-2.15,1.93-4.36,3.79-6.46,5.77l-6.3,5.95-3.15,2.98c-1.03,1.01-2.03,2.05-3.05,3.08l-6.08,6.17c-2.06,2.03-3.97,4.2-5.94,6.31l-5.88,6.37c-3.84,4.32-7.57,8.73-11.37,13.1-3.73,4.47-7.76,8.69-11.92,12.74-8.37,8.04-17.12,15.75-26.81,22.24-9.65,6.5-20.14,11.84-31.29,15.32-11.13,3.47-22.97,4.89-34.62,3.74-11.64-1.14-23.01-4.72-33.32-10.19-5.16-2.73-10.14-5.8-14.83-9.25-4.65-3.48-9.22-7.04-13.83-10.56-9.11-7.14-18.33-14.11-27.82-20.71-18.94-13.2-38.98-24.94-60.35-33.57-21.33-8.62-44.01-14.04-66.97-14.84-11.47-.38-22.96.35-34.28,2.11l-4.24.68-2.12.34-2.1.46-8.4,1.84-8.29,2.3-2.07.58c-.69.2-1.36.45-2.04.68l-4.08,1.38-4.08,1.38c-1.37.44-2.68,1.04-4.02,1.55l-7.99,3.19-7.83,3.6c-1.3.62-2.63,1.16-3.89,1.84l-3.82,1.99c-2.54,1.35-5.11,2.62-7.62,4.03l-7.44,4.35c-1.23.73-2.49,1.43-3.71,2.2l-3.62,2.35-7.24,4.69c-9.66,6.48-19.57,12.65-29.8,18.25-10.27,5.52-20.84,10.53-31.73,14.79-21.74,8.51-44.84,14.1-68.34,14.94-23.45.94-47.23-3.11-68.93-12.21l-4.04-1.71c-1.35-.59-2.72-1.21-4.05-1.85-2.68-1.29-5.29-2.72-7.84-4.24-2.53-1.5-5.06-3.21-7.37-4.71l-.41-.26-.36-.21-.96-.49-1.92-.97-3.84-1.94c-5.06-2.7-10.36-4.92-15.58-7.28-.66-.29-1.3-.6-1.97-.87l-2-.78-4.01-1.57-4.01-1.57c-.67-.26-1.33-.53-2.01-.78l-2.04-.69-8.15-2.77c-1.35-.49-2.73-.89-4.11-1.29l-4.13-1.21c-5.48-1.71-11.08-2.98-16.65-4.38-2.79-.66-5.62-1.18-8.43-1.78l-4.22-.87c-1.41-.27-2.83-.48-4.25-.72-2.83-.46-5.66-.96-8.5-1.4l-8.54-1.12c-22.81-2.8-45.91-3.23-68.88-1.83-22.97,1.51-45.83,4.86-68.28,9.96-11.2,2.64-22.38,5.52-33.13,9.43-10.87,3.85-21.62,8.02-32.16,12.69-21.12,9.26-41.62,19.96-61.56,31.61-19.93,11.67-39.36,24.22-58.31,37.47-18.95,13.26-37.39,27.23-55.44,41.7-9.05,7.21-17.91,14.64-26.78,22.08-8.81,7.5-17.55,15.08-26.16,22.81-8.61,7.73-17.13,15.57-25.52,23.54-8.38,7.98-16.71,16.03-24.77,24.33l-.36-.34c15.89-16.87,32.57-32.97,49.58-48.71,8.51-7.87,17.16-15.58,25.87-23.23,8.75-7.6,17.58-15.11,26.57-22.44,35.87-29.37,73.41-56.85,113.36-80.57,19.97-11.84,40.53-22.75,61.78-32.23,10.6-4.78,21.44-9.07,32.37-13.02,11-4.07,22.27-7.05,33.59-9.8,45.33-10.59,92.48-14.19,138.88-8.73l8.68,1.12c2.88.45,5.76.95,8.64,1.43,1.44.25,2.88.47,4.32.74l4.29.89c2.85.61,5.73,1.14,8.57,1.81,5.66,1.43,11.36,2.72,16.94,4.46l4.2,1.23c1.4.4,2.8.82,4.18,1.31l8.3,2.83,2.07.71c.69.25,1.36.53,2.04.79l4.08,1.6,4.08,1.6,2.04.8c.68.27,1.34.59,2.01.88,5.32,2.41,10.72,4.67,15.88,7.43l3.91,1.98,1.95.99.98.5.58.33.51.32c2.54,1.66,4.8,3.22,7.24,4.67,2.42,1.45,4.89,2.81,7.42,4.04,1.27.62,2.54,1.2,3.84,1.77l3.95,1.69c21.01,8.9,43.96,12.9,66.78,12.07,22.85-.73,45.44-6.1,66.81-14.38,10.7-4.15,21.11-9.03,31.26-14.43,10.11-5.49,19.89-11.54,29.52-17.88l7.37-4.71,3.68-2.36c1.24-.77,2.52-1.47,3.78-2.21l7.58-4.37c2.55-1.42,5.18-2.69,7.76-4.04l3.89-2c1.29-.68,2.65-1.22,3.97-1.84l7.98-3.61,8.16-3.2c1.37-.51,2.7-1.11,4.1-1.55l4.16-1.38,4.16-1.38c.7-.22,1.38-.47,2.08-.67l2.12-.57,8.46-2.29,8.58-1.82,2.14-.45,2.17-.34,4.33-.67c11.57-1.68,23.29-2.32,34.97-1.81,23.38,1.04,46.37,6.78,67.86,15.71,21.54,8.91,41.62,20.92,60.55,34.34,9.47,6.71,18.67,13.79,27.74,21,4.58,3.52,9.13,7.1,13.75,10.56,4.62,3.42,9.52,6.46,14.58,9.16,10.12,5.41,21.26,8.95,32.67,10.11,11.41,1.17,23.03-.19,34-3.57,11-3.36,21.36-8.67,30.89-15.12,9.56-6.43,18.24-14.12,26.54-22.13,4.13-4.03,8.08-8.22,11.75-12.67,3.78-4.4,7.49-8.86,11.32-13.21l5.86-6.43c1.96-2.13,3.87-4.32,5.92-6.37l6.07-6.24,3.04-3.11,3.13-3.02,6.26-6.05c2.09-2.02,4.29-3.91,6.43-5.87,2.17-1.93,4.28-3.93,6.5-5.79l6.66-5.61c1.12-.93,2.2-1.89,3.35-2.78l3.43-2.69,6.87-5.37,7.04-5.14c1.18-.85,2.33-1.73,3.53-2.55l3.61-2.45c9.55-6.64,19.53-12.64,29.72-18.25,10.18-5.63,20.72-10.61,31.48-15.06,21.52-8.9,44.07-15.39,67.09-19.12,11.5-1.89,23.13-3.03,34.74-3.71l17.34-.96,8.71-.46,8.71-.27c5.81-.23,11.62-.18,17.43-.26l8.71.08c2.9.02,5.81.06,8.71.16l8.71.25,8.7.41c2.9.12,5.8.32,8.7.5,2.9.18,5.8.35,8.69.59,11.58.84,23.15,1.96,34.68,3.36,5.77.73,11.53,1.47,17.28,2.38,2.88.44,5.76.93,8.66,1.5l8.49,1.71c5.66,1.08,11.33,2.14,16.98,2.83l2.11.23,2.14.14,4.29.29,4.29.28,4.3.06,4.3.06,2.15.03,2.15-.06,8.61-.27c2.87-.17,5.73-.41,8.6-.62,2.87-.17,5.73-.52,8.59-.84,5.73-.56,11.42-1.48,17.11-2.32,2.84-.46,5.67-1.02,8.51-1.51l4.25-.77,4.23-.89c11.31-2.26,22.49-5.15,33.62-8.23,11.12-3.1,22.12-6.66,33.06-10.37,10.91-3.81,21.75-7.83,32.48-12.13,10.72-4.32,21.36-8.86,31.91-13.59,10.54-4.76,20.99-9.71,31.33-14.9,10.34-5.19,20.57-10.6,30.62-16.33,5.01-2.89,10.02-5.78,14.92-8.85,4.91-3.05,9.78-6.19,14.36-9.7l.31.39Z"/>
      <path class="cls-1" d="m2033.85,33.37c-4.55,3.67-9.37,6.95-14.22,10.18l-3.65,2.4-3.69,2.34c-2.45,1.58-4.96,3.06-7.44,4.59-9.98,6.02-20.14,11.73-30.42,17.21-10.28,5.48-20.68,10.75-31.19,15.8-10.52,5.03-21.16,9.79-31.89,14.37-10.76,4.5-21.58,8.84-32.54,12.85-2.73,1.03-5.49,1.96-8.24,2.94-2.75.97-5.5,1.96-8.27,2.85l-8.31,2.75-8.37,2.58c-11.18,3.36-22.45,6.46-33.87,8.98-5.68,1.37-11.45,2.39-17.18,3.52-5.78.92-11.54,1.95-17.36,2.6-5.8.82-11.65,1.22-17.49,1.71l-8.79.39c-1.46.09-2.93.09-4.4.08h-4.4c-1.47-.02-2.94,0-4.41-.04l-4.4-.24c-2.94-.18-5.87-.25-8.83-.6-5.88-.67-11.65-1.67-17.4-2.77l-8.58-1.71c-2.76-.53-5.66-.97-8.51-1.4-5.73-.85-11.48-1.58-17.24-2.24-11.53-1.31-23.09-2.37-34.67-3.14-23.16-1.49-46.39-2.12-69.58-1.33-2.9.11-5.8.15-8.69.32l-8.68.49c-2.86.16-5.85.35-8.75.46l-8.7.41c-11.56.63-23.05,1.89-34.44,3.85-22.77,3.95-45.05,10.72-66.28,19.94-10.6,4.65-20.94,9.89-31.02,15.6l-7.49,4.41c-2.5,1.46-4.9,3.09-7.36,4.63l-3.67,2.34c-1.22.78-2.4,1.63-3.6,2.44l-7.16,4.93c-18.84,13.53-36.46,28.76-52.84,45.23-4.09,4.12-8.02,8.4-12.03,12.6-3.85,4.34-7.72,8.68-11.55,13.05l-11.13,13.43c-3.71,4.54-7.72,8.81-11.89,12.9-4.18,4.09-8.49,8.02-12.97,11.78-4.49,3.75-9.19,7.24-14.1,10.44-9.8,6.38-20.46,11.56-31.75,14.76-11.28,3.21-23.22,4.28-34.89,2.78-11.68-1.47-22.94-5.48-33.22-11.1-5.14-2.83-10.02-6.11-14.72-9.59l-13.88-10.63c-9.2-7.12-18.54-14.04-28.14-20.57-19.18-13.07-39.47-24.61-61.08-32.96-21.57-8.36-44.47-13.36-67.55-13.86-11.53-.32-23.08.65-34.44,2.56l-4.27.69-4.22.92-4.22.92-2.11.46-2.08.57-8.33,2.31c-2.74.89-5.47,1.83-8.21,2.74-10.86,3.87-21.52,8.37-31.7,13.84-5.19,2.54-10.1,5.6-15.12,8.46-1.26.7-2.47,1.5-3.68,2.28l-3.65,2.34-7.31,4.71c-9.72,6.53-19.81,12.51-30.15,18.03-2.61,1.34-5.18,2.74-7.82,4.02l-7.94,3.79-8.07,3.51c-2.71,1.14-5.46,2.17-8.19,3.25-10.99,4.16-22.28,7.57-33.79,10.04-11.52,2.43-23.27,3.87-35.06,4.24-5.9.1-11.81.05-17.7-.43-5.89-.46-11.76-1.19-17.58-2.25-11.63-2.11-23.03-5.6-33.91-10.17-5.47-2.24-10.86-4.97-15.91-8.13-1.26-.79-2.51-1.6-3.73-2.41-.6-.4-1.23-.81-1.7-1.09-.09-.06-.22-.13-.4-.22l-.48-.24-.97-.48-7.72-3.89c-2.55-1.35-5.21-2.47-7.84-3.65-2.64-1.16-5.25-2.38-7.92-3.48l-8.06-3.14c-1.35-.51-2.68-1.07-4.04-1.54l-4.1-1.38c-2.74-.91-5.46-1.87-8.2-2.74l-8.31-2.4c-1.39-.38-2.76-.84-4.17-1.17l-4.2-1.03c-2.81-.66-5.59-1.42-8.42-2-11.28-2.44-22.7-4.2-34.17-5.53-11.49-1.17-23.03-1.86-34.59-2.01-11.56-.05-23.12.38-34.65,1.31-11.53.93-23.02,2.37-34.43,4.31-11.41,1.92-22.74,4.32-33.94,7.21-5.6,1.44-11.17,3-16.68,4.73-2.75.87-5.5,1.76-8.2,2.72-2.68.93-5.38,2.08-8.07,3.12l-8.09,3.19c-2.67,1.12-5.31,2.31-7.97,3.46-2.65,1.17-5.32,2.29-7.95,3.51l-7.85,3.74c-20.89,10.05-41.13,21.49-60.8,33.82-39.34,24.7-76.53,52.8-112.14,82.71-35.55,29.99-69.77,61.64-101.93,95.29l-.37-.34c15.71-17.2,32.19-33.68,48.96-49.85,16.83-16.1,34-31.87,51.71-47.02,17.68-15.18,35.77-29.9,54.35-43.99,18.58-14.09,37.63-27.58,57.34-40.09,19.69-12.52,39.98-24.17,60.99-34.44l7.89-3.82c2.64-1.25,5.34-2.39,8-3.59,2.68-1.18,5.34-2.39,8.03-3.54l8.14-3.27c2.73-1.07,5.38-2.22,8.2-3.22,2.77-1.01,5.56-1.93,8.35-2.83,5.59-1.79,11.22-3.41,16.88-4.91,22.64-6,45.81-10,69.16-11.96,11.67-.98,23.39-1.45,35.11-1.43,11.72.12,23.44.77,35.12,1.93,5.82.73,11.66,1.33,17.44,2.37l4.34.7,2.17.36,2.16.44,8.63,1.74c2.87.59,5.71,1.36,8.57,2.04l4.28,1.05c1.43.34,2.83.8,4.24,1.19l8.46,2.45c2.8.89,5.57,1.87,8.35,2.79l4.17,1.41c1.39.48,2.74,1.05,4.11,1.57l8.21,3.2c2.71,1.12,5.38,2.37,8.07,3.55,2.68,1.2,5.39,2.35,7.98,3.72l7.87,3.97.98.5.49.25c.15.07.34.17.56.3.78.46,1.35.86,1.97,1.27,1.21.81,2.39,1.59,3.6,2.34,4.81,3.03,9.83,5.61,15.13,7.79,10.57,4.49,21.55,7.89,32.83,9.98,5.63,1.05,11.32,1.78,17.04,2.25,5.72.48,11.46.55,17.2.48,11.48-.31,22.93-1.68,34.2-4.01,11.26-2.37,22.33-5.67,33.13-9.72,2.68-1.06,5.39-2.06,8.05-3.17l7.95-3.42,7.83-3.7c2.6-1.25,5.15-2.62,7.72-3.93,2.59-1.28,5.09-2.74,7.62-4.14l3.79-2.11c1.26-.71,2.48-1.48,3.73-2.22,2.47-1.51,4.98-2.94,7.42-4.5l7.3-4.7,7.4-4.71,3.71-2.35c1.24-.78,2.46-1.59,3.75-2.29,5.11-2.87,10.11-5.94,15.4-8.49,10.37-5.48,21.25-9.99,32.33-13.87,2.79-.91,5.57-1.85,8.37-2.73l8.51-2.3,2.13-.57,2.16-.46,4.31-.92,4.31-.91,4.36-.68c11.6-1.84,23.38-2.71,35.12-2.28,23.5.74,46.71,6.05,68.45,14.72,21.79,8.63,42.14,20.44,61.3,33.73,9.59,6.65,18.9,13.68,28.07,20.87l13.82,10.65c4.64,3.46,9.43,6.7,14.49,9.5,10.11,5.56,21.14,9.53,32.59,11,11.44,1.51,23.16.5,34.27-2.62,11.14-3.1,21.65-8.24,31.33-14.57,4.84-3.17,9.49-6.64,13.93-10.36,4.42-3.73,8.72-7.66,12.85-11.72,4.13-4.07,8.08-8.32,11.7-12.82l11.07-13.53c3.81-4.42,7.66-8.79,11.51-13.18,4-4.24,7.93-8.56,11.99-12.75,16.28-16.71,33.84-32.22,52.68-46.05l7.17-5.04c1.2-.83,2.38-1.7,3.6-2.5l3.67-2.39c2.46-1.58,4.87-3.24,7.37-4.74l7.51-4.53c10.12-5.87,20.51-11.27,31.18-16.08,21.38-9.52,43.88-16.66,66.97-20.83,11.54-2.05,23.22-3.4,34.91-4.09l17.42-.95,8.75-.51c2.92-.17,5.84-.22,8.76-.33,23.36-.82,46.73-.23,70.02,1.36,11.65.8,23.27,1.89,34.87,3.25,5.8.68,11.59,1.43,17.38,2.31,2.9.44,5.76.88,8.72,1.46l8.54,1.73c5.68,1.09,11.38,2.13,17.07,2.8,2.82.36,5.72.44,8.59.63l4.31.26c1.44.05,2.88.03,4.32.05l4.33.03c1.44.02,2.88.03,4.33-.05l8.65-.34c5.76-.46,11.53-.81,17.27-1.6,5.75-.6,11.46-1.59,17.18-2.47l8.54-1.6c2.85-.5,5.68-1.13,8.51-1.75,11.34-2.39,22.57-5.36,33.71-8.59l8.34-2.48,8.29-2.66c2.77-.86,5.51-1.81,8.26-2.76,2.74-.95,5.5-1.85,8.23-2.85,10.95-3.89,21.77-8.11,32.54-12.49,10.74-4.44,21.37-9.13,31.95-13.97,10.55-4.87,21.01-9.97,31.35-15.29,10.34-5.32,20.57-10.86,30.62-16.72,2.5-1.48,5.02-2.93,7.5-4.45l3.73-2.26,3.69-2.32c4.9-3.13,9.77-6.31,14.37-9.86l.31.39Z"/>
      <path class="cls-1" d="m2036.62,36.12c-4.57,3.69-9.38,7.03-14.22,10.33-2.43,1.63-4.87,3.26-7.34,4.83-2.45,1.6-4.94,3.14-7.44,4.68-9.98,6.14-20.14,11.98-30.42,17.59-20.56,11.24-41.62,21.57-63.13,30.91-21.51,9.31-43.44,17.74-65.85,24.74l-4.2,1.33-4.22,1.24-8.46,2.44c-5.68,1.49-11.34,3.06-17.08,4.34-5.7,1.42-11.48,2.51-17.24,3.69-5.8.97-11.58,2.06-17.44,2.76-5.82.87-11.7,1.32-17.57,1.86l-8.84.46c-1.47.11-2.95.09-4.43.1l-4.43.02c-1.48-.01-2.95.06-4.43-.02l-4.43-.21c-2.95-.15-5.91-.22-8.88-.58-5.91-.65-11.73-1.64-17.51-2.76l-8.6-1.72c-2.79-.51-5.7-.93-8.57-1.35-5.77-.8-11.55-1.54-17.35-2.16-11.6-1.28-23.23-2.26-34.87-3.01-11.65-.72-23.31-1.14-34.97-1.37-11.66-.11-23.33-.13-34.98.39-5.83.15-11.64.58-17.46.93l-4.43.26-4.41.17c-2.92.11-5.82.23-8.72.4-5.8.34-11.58.86-17.34,1.56-5.75.77-11.5,1.6-17.19,2.75-22.81,4.37-45.02,11.82-66.06,21.75-5.3,2.41-10.43,5.15-15.6,7.84l-7.61,4.28-1.9,1.07-1.86,1.14-3.73,2.27c-5.02,2.95-9.81,6.29-14.69,9.46l-7.13,5.06-3.56,2.54-3.47,2.66c-18.55,14.12-35.92,29.84-51.9,46.88l-5.91,6.46c-1.95,2.18-3.99,4.27-5.84,6.52l-5.68,6.67c-1.88,2.23-3.83,4.41-5.61,6.73l-10.93,13.73c-3.7,4.59-7.7,8.91-11.87,13.05-8.36,8.24-17.39,15.89-27.36,22.16-9.94,6.28-20.77,11.28-32.22,14.18-11.43,2.92-23.46,3.61-35.14,1.77-5.84-.91-11.58-2.42-17.12-4.44-5.54-2.05-10.87-4.62-15.98-7.56-2.58-1.43-5.03-3.08-7.5-4.68-2.39-1.72-4.83-3.39-7.12-5.2l-13.96-10.66c-9.3-7.09-18.75-13.96-28.47-20.42-19.42-12.93-39.99-24.25-61.85-32.3-21.82-8.06-44.93-12.67-68.14-12.78-23.22-.28-46.31,4.27-68.17,11.97-2.73.97-5.41,2.09-8.12,3.13l-4.05,1.6-3.97,1.79c-2.64,1.21-5.31,2.35-7.92,3.62l-7.75,3.97c-2.61,1.27-5.11,2.75-7.63,4.19-2.51,1.46-5.06,2.86-7.54,4.36l-7.36,4.67-3.68,2.33-3.7,2.4c-9.81,6.5-20,12.45-30.47,17.85-10.47,5.41-21.26,10.24-32.35,14.31-11.09,4.07-22.48,7.36-34.08,9.69-1.45.28-2.9.61-4.36.85l-4.38.72-2.19.36-2.2.28-4.41.56c-5.89.59-11.81,1.07-17.74,1.11-2.97.1-5.93-.02-8.9-.06-2.96-.16-5.93-.26-8.89-.55-5.91-.51-11.81-1.29-17.64-2.44-5.83-1.14-11.61-2.59-17.29-4.34-5.68-1.77-11.25-3.85-16.71-6.19-5.5-2.37-10.82-5.23-15.83-8.5-1.26-.78-2.49-1.74-3.51-2.2l-3.89-1.94-7.77-3.9c-10.56-4.76-21.24-9.33-32.31-12.83-5.46-1.95-11.09-3.38-16.65-5.02-2.8-.75-5.63-1.38-8.45-2.07l-4.23-1.02c-1.41-.32-2.84-.57-4.26-.86l-8.54-1.68-8.6-1.34c-2.86-.49-5.75-.8-8.63-1.14l-4.32-.52-2.16-.26-2.17-.18c-23.12-2.14-46.47-1.96-69.59.44-23.13,2.36-46.07,6.78-68.42,13.16-5.59,1.61-11.13,3.36-16.6,5.27-2.73.98-5.44,1.93-8.09,3.08l-8.03,3.43c-10.71,4.58-21.16,9.74-31.5,15.1-20.65,10.82-40.59,23.02-59.97,36.03-38.75,26.08-75.43,55.22-110.55,86.1-35.05,30.96-68.84,63.41-100.67,97.71l-.37-.33c15.55-17.52,31.81-34.37,48.38-50.93,16.61-16.51,33.55-32.69,51-48.33,17.43-15.65,35.26-30.87,53.57-45.51,18.31-14.64,37.07-28.73,56.48-41.92,19.39-13.21,39.36-25.61,60.11-36.65,10.39-5.47,20.92-10.75,31.7-15.45l8.09-3.51c2.71-1.2,5.53-2.21,8.29-3.22,5.56-1.98,11.17-3.8,16.82-5.47,22.61-6.64,45.81-11.17,69.24-13.63,23.43-2.5,47.11-2.76,70.61-.65l2.2.18,2.2.26,4.39.51c2.93.35,5.86.66,8.77,1.16l8.74,1.37,8.69,1.71c1.45.29,2.9.55,4.34.88l4.3,1.04c2.87.71,5.75,1.34,8.6,2.11,5.66,1.67,11.39,3.12,16.95,5.11,11.26,3.57,22.14,8.22,32.9,13.08l7.92,3.98,3.95,1.99.49.25c.18.09.46.26.63.37l.98.64,1.81,1.2c4.77,3.14,9.8,5.86,15.03,8.14,10.56,4.6,21.6,8.1,32.9,10.33,5.65,1.14,11.37,1.91,17.11,2.43,2.87.29,5.75.4,8.63.57,2.88.04,5.77.18,8.65.09,5.77-.02,11.54-.46,17.29-1.02l4.3-.53,2.15-.27,2.14-.34,4.28-.68c1.43-.23,2.84-.55,4.26-.82,11.35-2.24,22.52-5.42,33.42-9.37,10.9-3.95,21.53-8.67,31.87-13.96,10.34-5.29,20.42-11.12,30.16-17.49,19.52-13,40.55-24.2,62.79-32.11,11.15-3.89,22.61-6.87,34.24-8.93,11.63-2.08,23.48-2.89,35.28-2.72,23.63.34,47.06,5.26,69.05,13.63,22.05,8.32,42.68,19.91,62.09,33.07,9.72,6.58,19.14,13.56,28.41,20.73l13.92,10.69c2.3,1.82,4.68,3.47,7.04,5.17,2.43,1.58,4.84,3.21,7.38,4.63,5.02,2.91,10.26,5.46,15.69,7.49,5.44,2,11.07,3.5,16.79,4.41,11.45,1.84,23.25,1.2,34.51-1.63,11.28-2.8,21.96-7.76,31.77-13.99,9.84-6.22,18.77-13.8,27.05-22,4.14-4.1,8.07-8.41,11.69-12.96l10.85-13.8c1.78-2.33,3.72-4.53,5.59-6.78l5.66-6.73c1.85-2.27,3.89-4.39,5.83-6.59l5.88-6.54c15.87-17.27,33.16-33.26,51.71-47.68l3.47-2.72,3.56-2.59,7.13-5.18c4.89-3.25,9.68-6.67,14.72-9.7l3.74-2.33,1.87-1.17,1.91-1.1,7.65-4.4c5.19-2.77,10.35-5.59,15.69-8.08,21.18-10.24,43.61-18.07,66.76-22.67,5.77-1.2,11.61-2.08,17.45-2.89,5.85-.75,11.73-1.31,17.61-1.68,5.89-.4,11.76-.5,17.51-.92,5.86-.35,11.73-.79,17.6-.95,11.74-.54,23.48-.54,35.22-.44,11.74.21,23.47.7,35.18,1.44,11.71.78,23.41,1.8,35.07,3.12,5.83.64,11.66,1.4,17.48,2.23,2.92.43,5.8.86,8.76,1.4l8.61,1.75c5.71,1.11,11.43,2.14,17.15,2.79,2.84.36,5.74.45,8.63.61l4.34.23c1.44.09,2.9.03,4.35.05h4.35c1.45,0,2.9.03,4.35-.07l8.7-.4c5.79-.49,11.58-.91,17.34-1.74,5.78-.65,11.51-1.7,17.25-2.63,5.71-1.15,11.44-2.17,17.11-3.53,5.7-1.21,11.33-2.72,16.99-4.14l8.43-2.35,4.21-1.19,4.18-1.28c22.35-6.74,44.26-14.93,65.79-24,21.5-9.15,42.68-19.1,63.36-30,10.34-5.45,20.57-11.12,30.62-17.1,10.02-6.01,20.01-12.14,29.3-19.23l.31.39Z"/>
      <path class="cls-1" d="m2039.39,38.86c-9.23,7.34-19.06,13.87-29.02,20.15-9.98,6.26-20.14,12.22-30.43,17.97-10.28,5.75-20.7,11.27-31.23,16.54-10.53,5.29-21.18,10.35-31.95,15.12-10.77,4.78-21.63,9.39-32.64,13.62l-4.12,1.61-4.15,1.54-8.3,3.05c-5.57,1.93-11.13,3.92-16.76,5.69-5.6,1.88-11.27,3.5-16.93,5.2-5.7,1.54-11.37,3.19-17.13,4.52-2.88.67-5.73,1.46-8.63,2.03l-8.68,1.83c-5.82,1.04-11.63,2.18-17.51,2.93-5.85.92-11.76,1.43-17.66,2l-8.88.53c-1.48.12-2.97.08-4.45.12l-4.45.05c-2.97.1-5.94-.09-8.91-.2l-4.46-.18c-1.49-.09-2.99-.22-4.47-.38-5.94-.63-11.8-1.62-17.61-2.76l-4.35-.88-2.17-.46c-.72-.15-1.38-.26-2.08-.39-2.87-.47-5.76-.89-8.66-1.29-5.8-.79-11.63-1.48-17.46-2.1-11.67-1.24-23.37-2.17-35.08-2.87-11.71-.73-23.44-1.02-35.17-1.22-5.86,0-11.73-.1-17.59.06l-8.79.17-8.78.36-4.39.18-4.39.28-8.77.58c-1.42.1-3.07.19-4.51.22l-4.41.13c-2.92.1-5.84.22-8.74.41-5.82.38-11.62.94-17.39,1.79-2.89.36-5.76.91-8.64,1.36-2.86.58-5.74,1.06-8.58,1.71-22.82,4.94-44.93,13.06-65.81,23.61-10.41,5.34-20.54,11.24-30.38,17.6l-7.27,4.94-3.63,2.48-3.54,2.61-7.07,5.22-6.88,5.47-3.44,2.74c-1.14.92-2.23,1.9-3.35,2.84l-6.68,5.72c-2.24,1.9-4.34,3.95-6.52,5.91-2.15,2-4.34,3.95-6.45,5.98l-6.26,6.18c-2.08,2.07-4.21,4.09-6.19,6.26l-6.05,6.4-3.02,3.2-2.92,3.3-5.82,6.61c-.96,1.11-1.95,2.2-2.89,3.32l-2.79,3.4-5.59,6.81c-.93,1.14-1.87,2.26-2.78,3.41l-2.68,3.5-10.75,14.01c-3.69,4.63-7.69,9.01-11.88,13.18-8.38,8.32-17.56,15.91-27.69,22.06-10.11,6.14-21.13,10.9-32.71,13.53-11.56,2.63-23.68,2.96-35.36.76-11.68-2.18-22.86-6.72-32.98-12.88-5.06-3.07-9.91-6.54-14.54-10.15l-14.05-10.68c-9.4-7.06-18.97-13.88-28.82-20.26-19.68-12.77-40.52-23.86-62.61-31.63-11.04-3.87-22.36-6.94-33.87-8.94-11.51-2-23.18-2.97-34.84-2.87-11.66.1-23.3,1.28-34.76,3.41-11.45,2.25-22.68,5.47-33.66,9.41l-8.15,3.18c-.68.27-1.36.52-2.03.81l-2,.9-3.99,1.79c-5.38,2.27-10.51,5.08-15.73,7.69-2.58,1.36-5.09,2.86-7.64,4.29-2.53,1.45-5.1,2.84-7.55,4.45-4.95,3.11-9.88,6.2-14.87,9.43-19.9,12.79-41.13,23.69-63.52,31.63-11.19,3.96-22.68,7.16-34.37,9.4-11.7,2.17-23.59,3.45-35.52,3.51-23.84.17-47.83-4.47-69.69-14.36-2.74-1.26-5.43-2.62-8.05-4.11-1.32-.74-2.61-1.52-3.89-2.31-1.27-.79-2.57-1.66-3.73-2.43-.31-.24-1.12-.59-1.73-.91l-1.96-.97-3.92-1.95c-2.62-1.28-5.19-2.67-7.88-3.78l-8.01-3.52-2-.88-2.04-.79-4.08-1.57-4.08-1.57c-1.36-.53-2.72-1.06-4.11-1.49l-8.3-2.76c-2.75-.98-5.58-1.69-8.38-2.5l-4.21-1.19c-1.4-.4-2.8-.81-4.23-1.12l-8.51-2.01-2.13-.5-2.15-.41-4.3-.83c-5.71-1.21-11.5-1.96-17.26-2.85-2.89-.37-5.8-.66-8.69-1-1.45-.16-2.9-.35-4.35-.48l-4.36-.33c-46.56-3.67-93.82,2.46-138.36,16.54-5.56,1.79-11.08,3.71-16.48,5.85-1.36.55-2.66,1.05-3.99,1.68l-3.99,1.83-7.98,3.67c-2.65,1.23-5.24,2.61-7.86,3.91-2.61,1.33-5.24,2.62-7.83,3.97l-7.71,4.21-3.86,2.11c-1.29.69-2.57,1.41-3.83,2.16-20.35,11.65-40,24.53-59.1,38.18-38.18,27.36-74.34,57.55-108.98,89.34-34.57,31.88-67.96,65.11-99.47,100.05l-.38-.33c15.39-17.82,31.46-35.04,47.83-51.97,16.38-16.91,33.14-33.47,50.31-49.59,17.18-16.11,34.76-31.81,52.79-46.99,18.04-15.17,36.52-29.83,55.63-43.66,19.1-13.84,38.78-26.92,59.21-38.79,1.26-.77,2.55-1.49,3.84-2.2l3.88-2.15,7.75-4.3c2.61-1.38,5.26-2.71,7.88-4.06,2.64-1.33,5.24-2.74,7.91-4l8.04-3.76,4.02-1.88c1.33-.64,2.77-1.21,4.13-1.78,5.53-2.23,11.11-4.21,16.74-6.07,22.52-7.4,45.77-12.43,69.27-15.43,11.75-1.52,23.59-2.36,35.43-2.7,2.96-.08,5.92-.19,8.89-.14,2.96.03,5.93,0,8.89.07l8.89.34c1.48.04,2.96.14,4.44.26l4.44.33,4.44.33c1.48.13,2.95.32,4.42.47,2.95.34,5.9.64,8.84,1.02,5.86.91,11.75,1.68,17.56,2.91l4.37.84,2.18.42,2.17.51,8.66,2.05c1.45.32,2.88.73,4.3,1.14l4.28,1.21c2.85.83,5.73,1.56,8.53,2.55l8.45,2.81c1.42.44,2.8.99,4.18,1.52l4.16,1.6,4.16,1.6,2.08.8,2.04.9,8.15,3.59c2.74,1.14,5.36,2.55,8.02,3.86l3.98,2,1.99,1c.68.37,1.25.56,2.16,1.16,1.29.86,2.43,1.63,3.66,2.4,1.21.76,2.44,1.5,3.69,2.21,2.49,1.42,5.04,2.73,7.65,3.94,21.04,9.6,44.31,14.22,67.5,14.13,11.61-.01,23.21-1.22,34.66-3.3,11.44-2.14,22.7-5.24,33.7-9.09,22.02-7.71,42.96-18.41,62.72-30.93,4.9-3.14,9.97-6.26,15-9.38,2.49-1.61,5.1-3.01,7.68-4.46,2.6-1.43,5.15-2.94,7.78-4.3,5.32-2.61,10.54-5.43,16.03-7.71l4.07-1.79,2.03-.9c.68-.29,1.38-.54,2.07-.81l8.31-3.18c11.19-3.94,22.65-7.15,34.32-9.36,11.7-2.07,23.57-3.15,35.44-3.14,11.87,0,23.73,1.1,35.39,3.25,11.66,2.14,23.11,5.37,34.24,9.39,22.28,8.05,43.2,19.41,62.87,32.4,9.85,6.49,19.39,13.43,28.76,20.57l14.02,10.72c4.64,3.64,9.37,7.03,14.36,10.09,9.95,6.1,20.92,10.59,32.38,12.76,11.45,2.19,23.34,1.91,34.73-.65,11.41-2.52,22.27-7.25,32.24-13.34,9.99-6.1,19.06-13.62,27.35-21.89,4.15-4.14,8.07-8.49,11.69-13.08l10.66-14.06c7.18-9.35,14.68-18.45,22.46-27.31l2.89-3.34,3-3.25,6.01-6.49c1.97-2.2,4.09-4.25,6.16-6.35l6.23-6.28c2.1-2.07,4.29-4.05,6.43-6.08,2.17-2,4.26-4.08,6.5-6.01l6.67-5.83c1.12-.96,2.21-1.96,3.35-2.9l3.44-2.79,6.88-5.58,7.08-5.33,3.54-2.67,3.63-2.54,7.28-5.06c9.87-6.52,20.03-12.58,30.51-18.08,21.02-10.86,43.34-19.38,66.51-24.56,2.89-.68,5.81-1.19,8.72-1.79,2.93-.47,5.84-1.05,8.79-1.43,5.87-.89,11.78-1.49,17.71-1.91,2.96-.22,5.93-.35,8.88-.47l4.41-.15c1.51-.04,2.79-.11,4.31-.22l8.84-.59,4.42-.29,4.43-.19,8.85-.37,8.85-.18c5.9-.17,11.81-.07,17.71-.08,11.8.18,23.6.54,35.38,1.29,11.78.73,23.54,1.7,35.28,2.97,5.87.64,11.73,1.34,17.58,2.16,2.93.41,5.85.84,8.79,1.33.74.14,1.54.28,2.26.43l2.15.46,4.3.88c5.73,1.13,11.48,2.14,17.24,2.78,1.44.16,2.87.29,4.32.39l4.36.2c2.91.12,5.81.33,8.73.24l4.37-.03c1.46-.02,2.91.02,4.37-.09l8.74-.47c5.81-.53,11.64-1,17.42-1.88,5.81-.7,11.56-1.81,17.32-2.8,5.73-1.18,11.48-2.29,17.17-3.69,5.72-1.26,11.37-2.85,17.04-4.32,5.63-1.64,11.29-3.19,16.87-5.01,5.61-1.7,11.16-3.63,16.72-5.49l8.29-2.96,4.14-1.49,4.12-1.56c11-4.11,21.86-8.6,32.64-13.26,10.79-4.64,21.43-9.64,32.02-14.73,10.59-5.1,21.06-10.45,31.4-16.03,10.35-5.58,20.58-11.38,30.63-17.48,10.03-6.12,19.99-12.4,29.32-19.55l.31.39Z"/>
      <path class="cls-1" d="m2042.16,41.61c-9.27,7.39-19.08,14.07-29.05,20.45-9.98,6.38-20.15,12.47-30.44,18.34-10.28,5.88-20.72,11.49-31.26,16.91-10.53,5.44-21.2,10.59-31.99,15.51-5.37,2.5-10.82,4.83-16.25,7.22-5.47,2.29-10.92,4.63-16.44,6.79-5.49,2.25-11.06,4.29-16.6,6.4-5.59,1.98-11.15,4.05-16.8,5.88-2.82.92-5.62,1.92-8.46,2.77l-8.51,2.62c-2.84.86-5.71,1.62-8.57,2.43l-4.29,1.2-4.32,1.09c-2.89.7-5.75,1.5-8.66,2.13l-8.71,1.91c-2.91.6-5.85,1.1-8.77,1.66-1.47.26-2.92.57-4.39.78l-4.42.66c-11.77,1.77-23.67,2.95-35.63,2.96-2.99.13-5.98-.09-8.97-.16-1.5-.06-2.99-.08-4.49-.17-1.5-.09-3-.23-4.5-.38-5.98-.62-11.88-1.6-17.72-2.77-2.92-.54-5.86-1.31-8.63-1.69-2.89-.45-5.81-.86-8.73-1.23-5.84-.78-11.71-1.42-17.57-2.03-11.74-1.19-23.51-2.08-35.29-2.72-23.56-1.27-47.19-1.45-70.73-.28-2.95.1-5.88.33-8.82.54l-8.83.62-1.22.05-1.13.02-2.22.03-4.4.08c-2.93.1-5.85.24-8.77.46-11.68.86-23.27,2.8-34.68,5.52-11.41,2.74-22.62,6.33-33.56,10.61-10.93,4.31-21.57,9.37-31.9,14.99l-3.87,2.12-1.93,1.06-1.89,1.13-7.58,4.53c-2.5,1.55-4.94,3.2-7.42,4.79l-3.7,2.41-3.61,2.54-7.21,5.1-7.03,5.36-3.51,2.68-3.42,2.81-6.83,5.61c-17.94,15.31-34.52,32.22-49.88,50.16l-5.74,6.75c-1.9,2.26-3.68,4.62-5.53,6.92l-5.5,6.95c-.93,1.15-1.81,2.33-2.68,3.52l-2.63,3.56-5.27,7.13c-1.76,2.36-3.48,4.8-5.33,7.14-3.68,4.68-7.68,9.1-11.89,13.3-8.41,8.39-17.78,15.89-28.06,21.91-10.27,6.01-21.46,10.56-33.18,12.88-11.71,2.32-23.9,2.25-35.58-.27-11.71-2.47-22.76-7.44-32.85-13.76-5.06-3.16-9.77-6.83-14.48-10.39-4.71-3.58-9.42-7.16-14.16-10.69-9.51-7.02-19.21-13.76-29.18-20.08-19.93-12.62-41.05-23.48-63.38-30.94-22.3-7.44-45.79-11.5-69.27-10.86-11.73.29-23.41,1.65-34.91,3.95l-8.59,1.88-8.49,2.32-2.12.58c-.7.21-1.39.46-2.09.68l-4.18,1.38-4.18,1.38c-1.39.45-2.74,1.04-4.12,1.55-2.73,1.07-5.48,2.1-8.2,3.2l-8.04,3.58c-2.71,1.14-5.31,2.5-7.93,3.82l-3.93,1.98c-1.31.67-2.64,1.29-3.9,2.04-5.1,2.93-10.31,5.65-15.23,8.87l-7.48,4.67-7.53,4.79c-20.2,12.56-41.61,23.39-64.23,31.11-22.59,7.68-46.4,12.33-70.42,12.24-6-.05-11.99-.35-17.97-.96-5.97-.63-11.91-1.57-17.79-2.82-11.76-2.52-23.24-6.23-34.17-11.46-2.72-1.33-5.4-2.75-8.01-4.31-1.31-.78-2.6-1.59-3.86-2.43l-.93-.62-.35-.23c.07.02-.24-.12-.36-.19l-1.97-.97c-5.27-2.57-10.46-5.31-15.89-7.55-2.69-1.16-5.36-2.38-8.07-3.5l-8.22-3.14-4.11-1.56-4.18-1.38-8.35-2.75-8.47-2.37-4.24-1.18-4.28-1c-2.86-.66-5.71-1.35-8.57-1.97l-8.65-1.63c-11.55-2.01-23.21-3.52-34.93-4.18-23.43-1.56-47.01-.4-70.27,2.91-11.63,1.67-23.18,3.91-34.6,6.72-11.4,2.83-22.71,6.09-33.76,10.06-1.38.49-2.76.99-4.13,1.51-1.38.51-2.74,1.03-4.1,1.58-2.71,1.08-5.46,2.18-8.03,3.41l-7.91,3.91c-2.63,1.32-5.3,2.56-7.87,4l-7.77,4.2-3.88,2.11-3.82,2.22c-5.09,2.97-10.22,5.88-15.19,9.05-20.06,12.39-39.42,25.96-58.23,40.23-37.6,28.6-73.25,59.77-107.41,92.48-34.13,32.74-67.11,66.74-98.34,102.29l-.38-.32c15.25-18.12,31.13-35.69,47.3-52.98,16.17-17.3,32.73-34.24,49.67-50.79,16.93-16.56,34.26-32.73,52.03-48.42,17.77-15.68,35.96-30.9,54.78-45.34,18.8-14.45,38.17-28.21,58.3-40.82,4.99-3.23,10.14-6.19,15.25-9.22l3.84-2.27,3.9-2.15,7.82-4.29c2.58-1.47,5.27-2.75,7.93-4.1l7.98-4.01c2.76-1.34,5.51-2.46,8.28-3.58,1.38-.56,2.78-1.11,4.17-1.63,1.39-.54,2.79-1.06,4.19-1.56,22.43-8.11,45.67-13.84,69.25-17.31,23.58-3.43,47.52-4.67,71.34-3.16,23.83,1.39,47.46,5.75,70.35,12.56l8.51,2.8,4.25,1.4,4.19,1.59,8.37,3.2c2.76,1.14,5.48,2.38,8.22,3.56,5.52,2.28,10.8,5.09,16.15,7.72l2,1c.2.11.25.1.62.33.31.19.38.25.58.38l.91.61c1.2.8,2.41,1.57,3.64,2.31,2.46,1.48,5.01,2.85,7.6,4.13,10.41,5.03,21.6,8.7,32.96,11.17,5.69,1.23,11.45,2.17,17.25,2.8,5.8.61,11.63.92,17.47.99,23.38.17,46.68-4.27,68.89-11.74,22.25-7.48,43.37-18.12,63.42-30.41l7.48-4.7,7.61-4.68c5.01-3.22,10.32-5.96,15.5-8.89,1.29-.75,2.65-1.37,3.97-2.04l4-1.99c2.67-1.33,5.32-2.69,8.08-3.83l8.19-3.59c2.77-1.1,5.57-2.13,8.36-3.2,1.4-.51,2.77-1.1,4.2-1.55l4.26-1.38,4.26-1.38c.71-.23,1.42-.47,2.13-.68l2.16-.58,8.65-2.31,8.76-1.86c11.73-2.24,23.64-3.51,35.58-3.69,23.9-.42,47.72,3.93,70.2,11.68,22.53,7.74,43.73,18.87,63.66,31.72,9.98,6.43,19.65,13.29,29.14,20.39,4.74,3.56,9.44,7.15,14.14,10.74,4.72,3.59,9.35,7.21,14.33,10.34,9.93,6.25,20.77,11.18,32.26,13.63,11.46,2.51,23.41,2.61,34.93.37,11.54-2.22,22.57-6.74,32.69-12.7,10.14-5.97,19.39-13.39,27.7-21.72,4.16-4.16,8.1-8.56,11.7-13.2,1.81-2.32,3.48-4.73,5.24-7.12l5.24-7.18,2.62-3.59c.87-1.2,1.74-2.4,2.67-3.55l5.47-7.01c1.84-2.32,3.61-4.7,5.51-6.98l5.7-6.83c15.23-18.17,31.72-35.34,49.63-50.94l6.82-5.73,3.41-2.86,3.51-2.74,7.04-5.47c2.39-1.76,4.82-3.48,7.23-5.22l3.62-2.6,3.71-2.47c2.48-1.63,4.94-3.32,7.45-4.91l7.61-4.66,1.9-1.16,1.95-1.09,3.89-2.19c10.4-5.79,21.12-11.02,32.16-15.5,11.06-4.44,22.39-8.25,33.99-11.08,11.6-2.83,23.4-4.87,35.33-5.81,2.98-.23,5.97-.4,8.96-.52l4.47-.11,2.21-.04,1.09-.02,1-.04,8.88-.63c2.96-.21,5.93-.45,8.89-.55,23.73-1.21,47.51-1.07,71.2.3,11.85.67,23.68,1.59,35.49,2.82,5.9.63,11.8,1.3,17.69,2.09,2.95.39,5.88.8,8.84,1.27.73.11,1.48.23,2.27.38.8.14,1.46.31,2.2.46l4.32.9c5.76,1.16,11.53,2.16,17.33,2.79,1.45.15,2.9.29,4.34.39,1.45.09,2.92.12,4.38.19,2.92.08,5.84.32,8.78.2,11.72.06,23.45-1.04,35.08-2.72l4.36-.63c1.46-.2,2.9-.5,4.35-.75,2.89-.53,5.8-1.01,8.68-1.59l8.64-1.84c2.88-.59,5.73-1.36,8.6-2.03l4.3-1.04,4.27-1.15c2.84-.78,5.7-1.51,8.53-2.33l8.48-2.52c2.83-.82,5.62-1.78,8.44-2.67,5.63-1.76,11.18-3.77,16.76-5.68,5.54-2.05,11.1-4.03,16.58-6.22,5.52-2.1,10.97-4.38,16.44-6.61,5.43-2.33,10.88-4.6,16.26-7.04,5.41-2.37,10.76-4.89,16.12-7.38,5.32-2.57,10.67-5.08,15.95-7.73,10.59-5.25,21.09-10.69,31.43-16.41,10.35-5.71,20.59-11.63,30.64-17.85,10.05-6.23,19.99-12.66,29.36-19.86l.31.39Z"/>
      <path class="cls-1" d="m2044.94,44.36c-9.32,7.44-19.11,14.25-29.09,20.75-9.99,6.5-20.16,12.71-30.45,18.71-20.63,11.93-41.71,23.11-63.32,33.17-10.79,5.08-21.71,9.87-32.74,14.4-11.02,4.57-22.19,8.77-33.47,12.67-11.27,3.94-22.71,7.4-34.26,10.48-11.54,3.13-23.26,5.6-35.09,7.49-11.83,1.86-23.78,3.16-35.82,3.23-.75.02-1.5.05-2.25.05l-2.26-.06-4.51-.12c-3-.04-6.03-.22-9.04-.54-6.01-.61-11.96-1.6-17.84-2.79l-4.4-.93c-.36-.07-.75-.18-1.07-.22l-1-.16-2.18-.33c-2.92-.42-5.86-.81-8.8-1.18-5.88-.74-11.78-1.38-17.69-1.96-11.81-1.16-23.65-2.01-35.51-2.58-5.92-.34-11.86-.47-17.79-.68l-8.9-.14-4.45-.07h-4.45s-8.9.04-8.9.04l-8.89.21c-5.93.08-11.85.47-17.77.73-2.96.12-5.91.42-8.87.62l-4.43.33-2.22.17c-.38.03-.7.06-1.2.07h-.68s-.56,0-.56,0c-5.92-.1-11.75.07-17.62.6-5.86.52-11.69,1.37-17.49,2.39-2.89.59-5.79,1.08-8.65,1.79l-4.31,1-4.28,1.13c-22.8,6.11-44.64,15.68-65.09,27.57-2.58,1.45-5.05,3.08-7.59,4.61l-3.78,2.33-3.69,2.47c-2.45,1.66-4.93,3.28-7.37,4.96l-7.19,5.22c-1.19.88-2.41,1.72-3.58,2.64l-3.49,2.75-6.98,5.5-6.78,5.75-3.39,2.88c-1.13.96-2.2,1.99-3.3,2.98-17.63,15.87-33.91,33.26-48.93,51.66-1.87,2.31-3.8,4.57-5.62,6.92l-5.4,7.09-5.4,7.09-5.17,7.26-5.17,7.26c-1.72,2.42-3.44,4.9-5.29,7.25-3.68,4.73-7.69,9.19-11.93,13.41-8.49,8.42-18.02,15.85-28.46,21.73-10.43,5.87-21.83,10.14-33.67,12.14-11.83,2.01-24.09,1.57-35.75-1.3-11.68-2.84-22.73-7.98-32.7-14.61-2.53-1.61-4.92-3.42-7.35-5.17l-7.12-5.39c-4.74-3.6-9.49-7.18-14.29-10.67-9.62-6.97-19.44-13.67-29.54-19.91-20.18-12.47-41.58-23.09-64.15-30.25-22.54-7.18-46.24-10.71-69.84-9.89-11.8.42-23.53,2.01-35.06,4.47l-4.32.94c-.72.16-1.44.3-2.16.48l-2.13.58-8.54,2.33c-5.6,1.87-11.26,3.56-16.72,5.81-5.56,2-10.91,4.52-16.31,6.89-2.68,1.24-5.29,2.62-7.94,3.93l-3.96,1.98c-1.32.67-2.59,1.43-3.88,2.14l-7.74,4.33c-2.55,1.49-5.04,3.09-7.56,4.63-5.02,3.07-10.08,6.32-15.16,9.47-20.46,12.41-42.14,22.99-64.96,30.53-22.78,7.54-46.79,11.93-70.93,11.59-12.06-.14-24.12-1.49-35.92-4.14-11.79-2.67-23.33-6.52-34.2-12.05-2.71-1.39-5.37-2.89-7.97-4.54-.65-.41-1.3-.84-1.93-1.27l-.43-.29c.23.12-.15-.08-.26-.12l-.99-.49-3.97-1.95-7.94-3.9-8.11-3.53-4.06-1.76c-1.35-.59-2.75-1.06-4.12-1.6l-8.27-3.14c-2.76-1.03-5.6-1.86-8.39-2.8-2.81-.9-5.59-1.89-8.45-2.62l-8.53-2.36c-1.41-.42-2.86-.71-4.3-1.05l-4.31-.99c-5.72-1.43-11.56-2.33-17.35-3.44-11.66-1.8-23.4-3.11-35.19-3.68-11.79-.51-23.61-.45-35.4.25-11.79.74-23.54,2.12-35.19,4.06-11.65,1.95-23.21,4.49-34.61,7.6-11.4,3.11-22.66,6.77-33.63,11.11-2.74,1.08-5.46,2.22-8.15,3.4-1.33.6-2.69,1.2-3.94,1.84l-3.92,2.08-7.84,4.16c-1.32.67-2.6,1.42-3.88,2.16l-3.85,2.22-7.69,4.44-7.56,4.68c-2.51,1.58-5.07,3.07-7.53,4.72l-7.43,4.89c-19.76,13.13-38.81,27.35-57.34,42.22-37.03,29.78-72.15,61.96-105.87,95.51-33.7,33.58-66.3,68.31-97.26,104.46l-.38-.32c15.11-18.41,30.82-36.32,46.81-53.96,15.98-17.66,32.33-34.99,49.05-51.95,33.46-33.91,68.21-66.63,105.21-96.76,18.51-15.05,37.55-29.46,57.37-42.8l7.45-4.97c2.47-1.68,5.04-3.2,7.56-4.81l7.59-4.77,7.74-4.53,3.87-2.26c1.29-.76,2.58-1.52,3.9-2.21l7.91-4.26,3.95-2.13c1.4-.72,2.76-1.33,4.13-1.96,2.75-1.24,5.52-2.41,8.3-3.53,22.28-8.96,45.54-15.23,69.17-19.29,11.82-2,23.74-3.44,35.71-4.22,11.97-.74,23.98-.84,35.98-.36,12,.53,23.94,1.9,35.8,3.73,5.9,1.13,11.84,2.05,17.66,3.51l4.39,1.01c1.46.35,2.93.64,4.37,1.07l8.68,2.41c2.91.74,5.74,1.75,8.6,2.67,2.84.96,5.73,1.81,8.54,2.86l8.42,3.2c1.4.55,2.82,1.04,4.2,1.63l4.13,1.8,8.26,3.6,8.07,3.99,4.03,2,1.01.5c.22.12.19.06.72.4l.49.34c.6.41,1.19.8,1.79,1.19,2.42,1.55,4.94,2.99,7.52,4.32,10.34,5.31,21.54,9.1,32.94,11.72,11.42,2.6,23.14,3.96,34.88,4.14,23.51.41,47-3.79,69.4-11.11,22.45-7.31,43.84-17.71,64.14-29.84,5.05-3.1,10.02-6.25,15.18-9.36,2.57-1.54,5.09-3.15,7.69-4.64l7.87-4.34c1.32-.71,2.61-1.47,3.95-2.14l4.03-1.99c2.7-1.31,5.36-2.69,8.09-3.93,5.51-2.37,10.95-4.89,16.61-6.9,5.57-2.24,11.33-3.94,17.03-5.8l8.7-2.32,2.17-.58c.73-.17,1.47-.32,2.2-.48l4.4-.93c11.76-2.4,23.72-3.89,35.72-4.21,24.02-.61,48.04,3.21,70.78,10.69,22.78,7.43,44.26,18.33,64.45,31.03,10.11,6.35,19.91,13.16,29.51,20.22,4.81,3.52,9.56,7.12,14.29,10.73l7.1,5.41c2.39,1.74,4.74,3.54,7.23,5.13,9.81,6.57,20.67,11.64,32.13,14.47,11.44,2.85,23.46,3.32,35.11,1.38,11.66-1.91,22.88-6.14,33.17-11.96,10.29-5.83,19.69-13.19,28.08-21.54,4.19-4.18,8.13-8.61,11.73-13.3,1.82-2.34,3.47-4.76,5.19-7.21l5.14-7.31,5.14-7.32,5.38-7.14,5.38-7.14c1.81-2.37,3.72-4.66,5.58-6.99,14.89-18.62,31.07-36.26,48.66-52.43,1.1-1.01,2.17-2.06,3.29-3.04l3.39-2.93,6.77-5.87,6.98-5.62,3.5-2.8c1.16-.94,2.39-1.79,3.58-2.69l7.2-5.34c2.44-1.73,4.93-3.39,7.39-5.09l3.71-2.53,3.8-2.39c2.54-1.57,5.03-3.24,7.63-4.73,20.57-12.22,42.6-22.2,65.77-28.57l4.35-1.17,4.38-1.04c2.91-.74,5.88-1.25,8.82-1.87,5.92-1.07,11.87-1.97,17.87-2.53,5.98-.57,12.07-.8,18.05-.7h.55s.44,0,.44,0c.24.01.66-.03,1.02-.06l2.23-.17,4.47-.34c2.98-.2,5.96-.5,8.94-.63,23.86-1.33,47.78-1.37,71.62-.06,11.92.6,23.83,1.49,35.71,2.69,5.94.6,11.87,1.26,17.8,2.01,2.96.38,5.92.78,8.89,1.22l2.23.34,1.2.21c.41.07.74.16,1.11.23l4.33.93c5.78,1.18,11.59,2.2,17.41,2.81,2.91.32,5.82.51,8.77.57l4.41.14,2.21.07c.74,0,1.47-.03,2.21-.04,11.79,0,23.57-1.21,35.26-2.99,11.69-1.79,23.3-4.21,34.77-7.18,11.48-2.95,22.87-6.27,34.11-10.09,11.25-3.77,22.41-7.85,33.42-12.29,11.03-4.41,21.96-9.07,32.76-14.04,10.81-4.93,21.51-10.11,32.11-15.49,10.6-5.38,21.1-10.97,31.47-16.78,10.36-5.84,20.6-11.88,30.66-18.22,10.06-6.34,19.98-12.91,29.41-20.16l.31.39Z"/>
      <path class="cls-1" d="m2047.71,47.1c-8.44,6.77-17.29,13-26.27,19.03-8.98,6.03-18.15,11.77-27.4,17.36-18.54,11.15-37.5,21.59-56.84,31.29-19.33,9.71-39.07,18.66-59.22,26.6-10.07,3.98-20.25,7.69-30.54,11.09-10.28,3.41-20.68,6.49-31.2,9.14-21.01,5.3-42.57,9.04-64.4,9.36-5.45.09-10.91-.08-16.36-.53-2.73-.19-5.44-.54-8.16-.87-2.71-.42-5.42-.82-8.1-1.4l-2.02-.4-2-.48-3.94-.96c-2.6-.61-5.22-1.18-7.86-1.71-5.26-1.07-10.56-2-15.87-2.83-21.25-3.33-42.76-5.07-64.25-5.19-21.48-.07-42.99,1.62-64.04,5.72l-.3.06-.36-.03c-2.55-.21-5.37-.23-8.08-.17-2.74.06-5.48.21-8.22.44-5.48.45-10.94,1.21-16.37,2.18-10.85,1.98-21.54,4.88-31.98,8.52-20.91,7.23-40.76,17.4-59.38,29.42-9.32,6-18.32,12.52-27,19.44-8.69,6.91-17.08,14.2-25.14,21.86-16.14,15.29-31.07,31.86-44.94,49.27-6.92,8.72-13.58,17.65-19.99,26.76-3.24,4.53-6.32,9.17-9.44,13.79-3.12,4.68-6.59,9.12-10.3,13.33-7.43,8.42-15.92,15.9-25.23,22.19-9.3,6.28-19.49,11.31-30.28,14.51-10.77,3.22-22.14,4.49-33.36,3.61-11.22-.88-22.25-3.94-32.42-8.72-5.1-2.36-10-5.14-14.69-8.23-4.72-3.07-9.11-6.56-13.55-9.91-8.88-6.73-17.87-13.33-27.06-19.62-18.38-12.56-37.69-23.83-58.1-32.64-20.38-8.82-41.91-15.08-63.93-17.66-22-2.63-44.41-1.52-66.04,3.13-5.41,1.17-10.78,2.49-16.09,4.07-5.32,1.53-10.56,3.3-15.76,5.2-10.38,3.86-20.51,8.37-30.35,13.48-4.9,2.58-9.77,5.24-14.53,8.08-2.38,1.41-4.77,2.83-7.1,4.32l-7.08,4.45c-9.5,5.96-19.23,11.57-29.23,16.67-20.01,10.17-41.08,18.47-63.01,23.7-10.96,2.61-22.12,4.45-33.37,5.39-11.25.9-22.6.89-33.86-.21-11.26-1.11-22.43-3.28-33.26-6.68-5.42-1.69-10.73-3.71-15.92-6.04-2.59-1.17-5.15-2.43-7.66-3.8-1.26-.68-2.5-1.4-3.73-2.14-1.25-.76-2.41-1.49-3.71-2.42l.46.27c-26.57-12.3-54.74-21.13-83.6-26.03-28.86-4.92-58.36-5.92-87.53-3.34-29.16,2.62-58.07,8.78-85.66,18.55-3.44,1.23-6.87,2.52-10.25,3.89-1.69.68-3.37,1.39-5.04,2.12l-2.48,1.11-.61.28c-.19.09-.33.15-.54.27l-1.19.66c-6.38,3.47-12.73,7.24-18.99,11.04-12.49,7.72-24.69,15.93-36.6,24.57-11.92,8.61-23.57,17.62-35.01,26.88-11.45,9.25-22.67,18.8-33.72,28.54-22.12,19.46-43.57,39.69-64.49,60.46-20.92,20.78-41.28,42.11-61.27,63.8-19.95,21.72-39.5,43.83-58.39,66.48l-.39-.31c18.47-23.03,37.75-45.39,57.4-67.42,19.65-22.03,39.88-43.55,60.6-64.59,41.49-41.99,85.03-82.23,132.71-117.35,11.92-8.77,24.16-17.12,36.72-25,6.32-3.9,12.64-7.7,19.19-11.32l1.22-.69c.18-.11.46-.24.69-.35l.64-.31,2.56-1.17c1.71-.76,3.43-1.49,5.15-2.2,3.45-1.42,6.92-2.75,10.42-4.03,27.99-10.07,57.26-16.35,86.85-19.11,14.8-1.36,29.69-1.81,44.55-1.28,14.86.53,29.68,2.08,44.34,4.57,29.32,4.99,57.97,13.95,84.89,26.58l.23.11.23.17c.97.7,2.16,1.47,3.29,2.16,1.15.7,2.33,1.38,3.52,2.03,2.38,1.31,4.83,2.52,7.31,3.66,4.97,2.26,10.1,4.23,15.33,5.88,10.46,3.32,21.29,5.47,32.23,6.59,10.94,1.12,22,1.17,32.99.33,10.99-.87,21.92-2.63,32.67-5.16,21.52-5.05,42.29-13.16,62.09-23.1,9.91-4.97,19.56-10.46,29-16.3l7.12-4.41c2.37-1.5,4.8-2.91,7.22-4.33,4.84-2.84,9.79-5.51,14.77-8.09,10-5.11,20.32-9.63,30.88-13.48,10.57-3.83,21.42-6.93,32.44-9.16,22.04-4.52,44.82-5.43,67.11-2.54,5.58.69,11.12,1.64,16.61,2.8,5.49,1.16,10.95,2.49,16.34,4.06,10.77,3.14,21.33,7,31.57,11.55,20.52,9.03,39.8,20.6,58.2,33.26,9.21,6.33,18.2,12.98,27.07,19.75,4.45,3.38,8.79,6.85,13.43,9.89,4.62,3.06,9.44,5.82,14.46,8.16,10,4.74,20.82,7.77,31.85,8.67,11.03.93,22.2-.4,32.8-3.57,10.61-3.17,20.65-8.15,29.82-14.37,9.17-6.23,17.49-13.69,24.78-22.04,3.64-4.18,7.02-8.58,10.06-13.2,3.09-4.64,6.16-9.32,9.35-13.91,6.33-9.21,12.91-18.25,19.76-27.09,13.73-17.65,28.55-34.49,44.64-50.08,8.04-7.8,16.42-15.25,25.12-22.33,8.69-7.08,17.71-13.77,27.09-19.95,18.71-12.39,38.85-22.77,60.09-30.27,10.63-3.72,21.53-6.69,32.63-8.73,5.55-1.01,11.15-1.79,16.79-2.26,2.82-.24,5.65-.4,8.49-.45,2.87-.05,5.64-.04,8.64.22l-.66.03c21.4-4.1,43.19-5.75,64.92-5.62,21.73.15,43.41,2.11,64.84,5.57,5.36.88,10.7,1.85,16.02,2.96,2.66.55,5.31,1.14,7.97,1.78l3.93.98,1.94.48,1.96.4c2.6.58,5.23.96,7.86,1.4,2.65.33,5.29.7,7.95.9,5.32.48,10.67.69,16.02.63,21.43-.17,42.8-3.7,63.69-8.81,10.45-2.56,20.81-5.55,31.06-8.87,10.26-3.31,20.41-6.93,30.47-10.83,20.12-7.78,39.85-16.55,59.26-26,19.39-9.47,38.44-19.68,57.06-30.61,9.31-5.47,18.5-11.13,27.56-17.01,9.05-5.89,17.97-11.98,26.49-18.61l.31.39Z"/>
    </g>
  </g>
</svg>