<?xml version="1.0" encoding="utf-8"?>
<!-- Generator: Adobe Illustrator 27.3.1, SVG Export Plug-In . SVG Version: 6.00 Build 0)  -->
<svg version="1.1" id="Calque_1" xmlns="http://www.w3.org/2000/svg" xmlns:xlink="http://www.w3.org/1999/xlink" x="0px" y="0px"
	 viewBox="0 0 2097 164.5" style="enable-background:new 0 0 2097 164.5;" xml:space="preserve">
<style type="text/css">
	.st0{fill:none;stroke:#000000;stroke-width:3;stroke-linecap:square;stroke-linejoin:bevel;}
</style>
<polyline class="st0" points="451,160.6 438,122.6 417.1,60 397.8,2.2 340.4,60 277.8,122.6 239.8,160.6 227.2,122.6 206.2,60 
	187.3,2.2 130.4,58.8 67.8,121.8 27,162.6 "/>
<polyline class="st0" points="2094.8,3.2 2037.4,61 1975.1,123.3 1936.9,161.6 1924.2,123.6 1903.2,61 1882.7,2.2 1880.8,2.2 
	1823.4,60 1761.1,122.3 1722.9,160.6 1710.2,122.6 1689.2,60 1669.7,2.2 1612.3,60 1549.7,122.6 1511.7,160.6 1499.4,122.6 
	1478.4,60 1459.2,2.2 1456.3,2.2 1398.8,60 1336.5,122.3 1298.3,160.6 1285.7,122.6 1264.7,60 1245.2,2.2 "/>
<line class="st0" x1="161.6" y1="2.2" x2="1.5" y2="162.1"/>
<line class="st0" x1="234.5" y1="141.1" x2="373.3" y2="2.2"/>
<line class="st0" x1="1293.2" y1="141.1" x2="1432.1" y2="2.2"/>
<line class="st0" x1="1507.8" y1="143.1" x2="1648.6" y2="2.2"/>
<line class="st0" x1="1718.8" y1="143.1" x2="1859.6" y2="2.2"/>
<line class="st0" x1="1932.8" y1="144.1" x2="2073.6" y2="3.2"/>
<g>
	<path d="M623.6,126.9V40.1h-19.2v-2.4h40.8v2.4h-19.2v86.9H623.6z"/>
	<path d="M658.3,126.9V37.7h32.1v2.4h-29.6V78h19.3v2.4h-19.3v44.2h31.1v2.4H658.3z"/>
	<path d="M710.7,101c0.1,0-6.1,26.1-6.1,26.1h-2.4l21.5-89.7h2.9l21.5,89.7h-2.5l-6.3-26.1H710.7z M738.6,98.5
		c0.1,0-13.6-57.9-13.6-57.9l-13.6,57.9H738.6z"/>
	<path d="M777.6,128.1c-9.1,0-15.3-5-19.1-16.1l2.3-0.7c3.5,9.8,8.7,14.6,16.7,14.6c9.3,0,15.9-6.4,15.9-18.3c0-10.2-4-17.3-17-26.7
		c-12.9-9.3-16.9-15.3-16.9-25.2c0-11.1,6.5-19.1,17.6-19.1c9.9,0,15,6,18.1,13.5l-2.3,0.9c-2.9-6.5-7.1-12.1-15.8-12.1
		c-9.7,0-15.1,7-15.1,16.7c0,9.2,4.2,14.8,15.8,23.2c14.3,10.4,18,17.7,18,28.7C796,121.1,788,128.1,777.6,128.1z"/>
	<path d="M812.1,126.9V37.7h32.1v2.4h-29.6V78h19.3v2.4h-19.3v44.2h31.1v2.4H812.1z"/>
	<path d="M858.8,126.9V37.7h14c14.1,0,23.3,5.8,23.3,22.4c0,13.4-6.5,20.4-16.1,22.7l16.1,44.2h-2.8l-15.9-43.8
		c-1,0.2-3.5,0.5-5.3,0.5h-10.7v43.2H858.8L858.8,126.9z M861.3,81.3H872c12.7,0,21.6-5.9,21.6-21.1s-8.2-20-20.8-20h-11.5v41.1
		H861.3z"/>
	<path d="M950,128.1c-10.6,0-16.3-6.9-18.5-20.6l2.4-0.2c2,12.8,7.4,18.6,16.1,18.6c10.5,0,15.7-7.6,15.7-24.3v-64h2.5v64.1
		C968.3,119.5,962,128.1,950,128.1L950,128.1z"/>
	<path d="M986.1,126.9V37.7h14c14.1,0,23.3,5.7,23.3,23.2s-9.9,24.4-24.1,24.4h-10.7v41.8h-2.6V126.9z M988.7,82.8h10.7
		c12.7,0,21.6-5.9,21.6-22s-8.2-20.8-20.8-20.8h-11.5C988.7,40.1,988.7,82.8,988.7,82.8z"/>
	<path d="M1058.4,128.1c-14.4,0-23.4-13.9-23.4-45.9s9.1-45.8,23.4-45.8c14.4,0,23.4,13.9,23.4,45.8S1072.9,128.1,1058.4,128.1z
		 M1058.4,125.8c13.2,0,20.9-13.6,20.9-43.5s-7.7-43.5-20.9-43.5c-13.2,0-20.9,13.6-20.9,43.5S1045.3,125.8,1058.4,125.8z"/>
</g>
</svg>
