<?xml version="1.0" encoding="utf-8"?>
<!-- Generator: Adobe Illustrator 27.3.1, SVG Export Plug-In . SVG Version: 6.00 Build 0)  -->
<svg version="1.1" id="Calque_1" xmlns="http://www.w3.org/2000/svg" xmlns:xlink="http://www.w3.org/1999/xlink" x="0px" y="0px"
	 viewBox="0 0 2097 164.5" style="enable-background:new 0 0 2097 164.5;" xml:space="preserve">
<style type="text/css">
	.st0{fill:none;stroke:#000000;stroke-width:3;stroke-linecap:square;stroke-linejoin:bevel;}
</style>
<polyline class="st0" points="240.1,160.4 227.5,122.4 206.6,59.8 187.6,2.1 130.7,58.7 68.1,121.6 27.3,162.4 "/>
<polyline class="st0" points="2095.1,3.1 2037.7,60.8 1975.4,123.2 1937.2,161.4 1924.5,123.4 1903.6,60.8 1883,2.1 1881.1,2.1 
	1823.7,59.8 1761.4,122.2 1723.2,160.4 1710.5,122.4 1689.6,59.8 1670,2.1 1612.6,59.8 1550,122.4 1512,160.4 1499.7,122.4 
	1478.7,59.8 1459.5,2.1 1456.6,2.1 1399.2,59.8 1336.8,122.2 1298.6,160.4 1286,122.4 1265,59.8 1245.5,2.1 1188,59.8 1125.4,122.4 
	1087.5,160.4 1075.2,122.4 1054.2,59.8 1034.9,2.1 "/>
<line class="st0" x1="161.9" y1="2.1" x2="1.8" y2="161.9"/>
<line class="st0" x1="1082.6" y1="140.9" x2="1221.4" y2="2.1"/>
<line class="st0" x1="1293.6" y1="140.9" x2="1432.4" y2="2.1"/>
<line class="st0" x1="1508.1" y1="142.9" x2="1648.9" y2="2.1"/>
<line class="st0" x1="1719.1" y1="142.9" x2="1859.9" y2="2.1"/>
<line class="st0" x1="1933.1" y1="143.9" x2="2073.9" y2="3.1"/>
<g>
	<path d="M388.1,126.9V37.6h2.5v87H419v2.4H388.1L388.1,126.9z"/>
	<path d="M431.3,126.9V37.6h32.1V40h-29.6v37.9h19.3v2.5h-19.3v44.2H465v2.4H431.3z"/>
	<path d="M483.8,100.9c0.1,0-6.2,26.1-6.2,26.1h-2.4l21.5-89.8h2.9l21.5,89.8h-2.5l-6.2-26.1H483.8L483.8,100.9z M511.7,98.5
		c0.1,0-13.7-58-13.7-58l-13.7,58H511.7z"/>
	<path d="M536.5,126.9V37.6h2.5l35.6,83.4V37.6h2.3v89.4h-2.2l-36-84.2v84.2H536.5z"/>
	<path d="M601,100.9c0.1,0-6.2,26.1-6.2,26.1h-2.4l21.5-89.8h2.9l21.5,89.8h-2.5l-6.2-26.1H601z M629,98.5c0.1,0-13.7-58-13.7-58
		l-13.7,58H629z"/>
	<path d="M678.6,126.9V37.6h32V40h-29.5v39.3h19.6v2.4h-19.6v45.3H678.6L678.6,126.9z"/>
	<path d="M742.1,128.1c-14.4,0-23.4-13.9-23.4-45.8s9-45.9,23.4-45.9s23.4,13.9,23.4,45.9S756.6,128.1,742.1,128.1z M742.1,125.8
		c13.2,0,20.9-13.7,20.9-43.5s-7.7-43.5-20.9-43.5s-20.9,13.7-20.9,43.5S728.9,125.8,742.1,125.8z"/>
	<path d="M781.8,126.9V37.6h2.5l35.6,83.4V37.6h2.3v89.4h-2.1l-36-84.2v84.2H781.8z"/>
	<path d="M854.4,126.9V40h-19.2v-2.4h40.8V40H857v87H854.4z"/>
</g>
</svg>
