<?xml version="1.0" encoding="utf-8"?>
<!-- Generator: Adobe Illustrator 27.3.1, SVG Export Plug-In . SVG Version: 6.00 Build 0)  -->
<svg version="1.1" id="Calque_1" xmlns="http://www.w3.org/2000/svg" xmlns:xlink="http://www.w3.org/1999/xlink" x="0px" y="0px"
	 viewBox="0 0 1257.6 58.6" style="enable-background:new 0 0 1257.6 58.6;" xml:space="preserve">
<style type="text/css">
	.st0{fill:none;stroke:#000000;stroke-width:2;stroke-linecap:square;stroke-linejoin:bevel;}
</style>
<polyline class="st0" points="65.7,13.3 68.3,21.1 75.8,43.3 80.4,57.2 "/>
<polyline class="st0" points="139.3,13.2 142,21.5 149.3,43.3 153.8,56.7 "/>
<line class="st0" x1="204.4" y1="1.4" x2="164.1" y2="41.8"/>
<line class="st0" x1="90.4" y1="41.2" x2="130.2" y2="1.4"/>
<line class="st0" x1="57.2" y1="1.4" x2="1.4" y2="57.1"/>
<polyline class="st0" points="213.3,13.3 215.9,21.1 223.3,43.3 227.9,57.2 "/>
<polyline class="st0" points="286.8,13.2 289.6,21.5 296.9,43.3 301.3,56.7 "/>
<line class="st0" x1="352" y1="1.4" x2="311.6" y2="41.8"/>
<line class="st0" x1="237.9" y1="41.2" x2="277.8" y2="1.4"/>
<polyline class="st0" points="360.8,13.3 363.4,21.1 370.8,43.3 375.4,57.2 "/>
<polyline class="st0" points="434.3,13.2 437.1,21.5 444.4,43.3 448.8,56.7 "/>
<line class="st0" x1="498.8" y1="1.4" x2="458.4" y2="41.8"/>
<line class="st0" x1="384.7" y1="41.2" x2="424.6" y2="1.4"/>
<polyline class="st0" points="508.6,13.3 511.2,21.1 518.6,43.3 523.2,57.2 "/>
<polyline class="st0" points="582.1,13.2 584.9,21.5 592.1,43.3 596.6,56.7 "/>
<line class="st0" x1="647.3" y1="1.4" x2="606.9" y2="41.8"/>
<line class="st0" x1="533.2" y1="41.2" x2="573.1" y2="1.4"/>
<polyline class="st0" points="656,13.3 658.7,21.1 666,43.3 670.7,57.2 "/>
<polyline class="st0" points="729.6,13.2 732.3,21.5 739.6,43.3 744.1,56.7 "/>
<line class="st0" x1="794.7" y1="1.4" x2="754.3" y2="41.8"/>
<line class="st0" x1="680.7" y1="41.2" x2="720.5" y2="1.4"/>
<polyline class="st0" points="803.6,13.3 806.2,21.1 813.6,43.3 818.2,57.2 "/>
<polyline class="st0" points="877.1,13.2 879.9,21.5 887.2,43.3 891.6,56.7 "/>
<line class="st0" x1="942.3" y1="1.4" x2="901.9" y2="41.8"/>
<line class="st0" x1="828.2" y1="41.2" x2="868.1" y2="1.4"/>
<polyline class="st0" points="951.1,13.3 953.7,21.1 961.1,43.3 965.7,57.2 "/>
<polyline class="st0" points="1024.6,13.2 1027.4,21.5 1034.7,43.3 1039.1,56.7 "/>
<line class="st0" x1="1089.1" y1="1.4" x2="1048.7" y2="41.8"/>
<line class="st0" x1="975" y1="41.2" x2="1014.9" y2="1.4"/>
<polyline class="st0" points="1098.9,13.3 1101.5,21.1 1108.9,43.3 1113.5,57.2 "/>
<polyline class="st0" points="1172.4,13.2 1175.2,21.5 1182.4,43.3 1186.9,56.7 "/>
<line class="st0" x1="1237.6" y1="1.4" x2="1197.2" y2="41.8"/>
<polyline class="st0" points="1256.2,1.4 1236.2,21.5 1214.5,43.2 1201.2,56.5 1196.8,43.3 1189.4,21.5 1182.7,1.4 1162.7,21.5 
	1140.9,43.3 1127.7,56.5 1123.4,43.3 1116.1,21.5 1109.4,1.4 1108.4,1.4 1088.4,21.5 1066.7,43.2 1053.4,56.5 1049,43.3 
	1041.7,21.5 1034.9,1.4 1014.9,21.5 993.1,43.3 980,56.5 975.6,43.3 968.3,21.5 961.6,1.4 960.9,1.4 940.9,21.5 919.2,43.2 
	905.9,56.5 901.5,43.3 894.2,21.5 887.5,1.4 867.4,21.5 845.6,43.3 832.5,56.5 828.1,43.3 820.8,21.5 814.1,1.4 813.4,1.4 
	793.4,21.5 771.6,43.2 758.4,56.5 754,43.3 746.6,21.5 739.9,1.4 719.9,21.5 698,43.3 684.9,56.5 680.5,43.3 673.2,21.5 667,1.4 
	665.9,1.4 645.9,21.5 624.2,43.2 610.9,56.5 606.5,43.3 599.2,21.5 592.4,1.4 572.4,21.5 550.6,43.3 537.4,56.5 533.1,43.3 
	525.8,21.5 519.1,1.4 518.1,1.4 498.1,21.5 476.4,43.2 463.1,56.5 458.7,43.3 451.4,21.5 444.6,1.4 424.6,21.5 402.8,43.3 
	389.6,56.5 385.3,43.3 378,21.5 371.3,1.4 370.6,1.4 350.6,21.5 328.9,43.2 315.6,56.5 311.2,43.3 303.9,21.5 297.1,1.4 277.1,21.5 
	255.3,43.3 242.2,56.5 237.8,43.3 230.5,21.5 223.8,1.4 223.1,1.4 203.1,21.5 181.3,43.2 168.1,56.5 163.6,43.3 156.3,21.5 
	149.6,1.4 129.6,21.5 107.8,43.3 94.6,56.5 90.2,43.3 82.9,21.5 76.3,1.4 56.5,21.1 34.7,43 20.5,57.2 "/>
<line class="st0" x1="1123.5" y1="41.2" x2="1163.4" y2="1.4"/>
</svg>
