<svg id="Calque_1" data-name="Calque 1" xmlns="http://www.w3.org/2000/svg" viewBox="0 0 242.06 69.53"><defs><style>.cls-1{fill:none;stroke:#1d1d1b;stroke-linecap:square;stroke-linejoin:bevel;stroke-width:2px;}.cls-2{fill:#fff;}</style></defs><polyline class="cls-1" points="76.84 19.09 79.46 26.94 86.86 49.14 91.47 62.98"/><polyline class="cls-1" points="150.39 18.99 153.15 27.27 160.42 49.14 165.31 63.86"/><line class="cls-1" x1="216.02" y1="6.76" x2="175.16" y2="47.64"/><polyline class="cls-1" points="236.12 5.31 214.17 27.27 192.44 49.01 179.17 62.29 174.76 49.14 167.43 27.27 160.71 7.24 140.68 27.29 118.86 49.14 105.72 62.29 101.34 49.14 94.05 27.27 87.37 7.24 67.66 26.94 45.77 48.83 31.62 62.98"/><polyline class="cls-1" points="68.85 6.69 48.24 27.29 26.61 48.9 12.52 62.98"/><line class="cls-1" x1="101.49" y1="47.06" x2="141.89" y2="6.69"/><rect class="cls-2" x="60.31" width="181.75" height="6.55"/><rect class="cls-2" y="62.98" width="181.75" height="6.55"/></svg>