<?xml version="1.0" encoding="utf-8"?>
<!-- Generator: Adobe Illustrator 27.3.1, SVG Export Plug-In . SVG Version: 6.00 Build 0)  -->
<svg version="1.1" id="Calque_1" xmlns="http://www.w3.org/2000/svg" xmlns:xlink="http://www.w3.org/1999/xlink" x="0px" y="0px"
	 viewBox="0 0 2097 164.5" style="enable-background:new 0 0 2097 164.5;" xml:space="preserve">
<style type="text/css">
	.st0{fill:none;stroke:#000000;stroke-width:3;stroke-linecap:square;stroke-linejoin:bevel;}
</style>
<polyline class="st0" points="611.6,2.9 554.1,60.7 491.5,123.3 453.6,161.2 451.3,160.7 438.3,122.8 417.4,60.2 398.1,2.5 
	340.7,60.2 278.1,122.8 240.1,160.7 227.5,122.8 206.6,60.2 187.6,2.5 130.7,59 68.1,121.9 27.3,162.7 "/>
<polyline class="st0" points="2095.1,3.5 2037.7,61.2 1975.4,123.5 1937.2,161.7 1924.5,123.8 1903.6,61.2 1883,2.5 1881.1,2.5 
	1823.7,60.2 1761.4,122.5 1723.2,160.7 1710.5,122.8 1689.6,60.2 1670,2.5 1612.6,60.2 1550,122.8 1512,160.7 1499.7,122.8 
	1478.7,60.2 1459.5,2.5 1456.6,2.5 1399.2,60.2 1336.8,122.5 1298.6,160.7 1286,122.8 1265,60.2 1245.5,2.5 "/>
<line class="st0" x1="161.9" y1="2.5" x2="1.8" y2="162.2"/>
<line class="st0" x1="234.8" y1="141.3" x2="373.6" y2="2.5"/>
<path class="st0" d="M1221.4,2.5"/>
<path class="st0" d="M1081.6,142.3"/>
<line class="st0" x1="1293.6" y1="141.3" x2="1432.4" y2="2.5"/>
<line class="st0" x1="1508.1" y1="143.3" x2="1648.9" y2="2.5"/>
<line class="st0" x1="1719.1" y1="143.3" x2="1859.9" y2="2.5"/>
<line class="st0" x1="1933.1" y1="144.3" x2="2073.9" y2="3.5"/>
<g>
	<g>
		<path d="M765.1,127.7l-23.4-84.2v83.3h-2.3V37.4h2.9l23.2,83.4l23.2-83.4h2.9v89.4h-2.3V43.5l-23.6,84.2H765.1L765.1,127.7z"/>
		<path d="M810.8,126.9V37.5h2.5V127L810.8,126.9L810.8,126.9z"/>
		<path d="M832.2,126.9V37.5h2.5l35.6,83.5V37.5h2.3V127h-2.2l-36-84.3V127L832.2,126.9L832.2,126.9z"/>
		<path d="M891.8,126.9V37.5h2.5V127L891.8,126.9L891.8,126.9z"/>
		<path d="M953.9,128.1c-9.1,0-15.4-5-19-16l2.3-0.8c3.4,9.9,8.7,14.6,16.7,14.6c9.3,0,16-6.4,16-18.4c0-10.3-4-17.2-17-26.7
			c-12.9-9.3-16.8-15.4-16.8-25.3c0-11.2,6.6-19,17.7-19c10,0,15,6,18.1,13.5l-2.3,0.9c-2.9-6.6-7.1-12.1-15.9-12.1
			c-9.7,0-15.1,6.9-15.1,16.7c0,9.2,4.2,14.8,15.9,23.2c14.3,10.4,18,17.7,18,28.8C972.4,121.1,964.4,128.1,953.9,128.1L953.9,128.1
			z"/>
		<path d="M989.2,126.9V37.5h2.5V127L989.2,126.9L989.2,126.9z"/>
		<path d="M1024.4,126.9V39.8h-19.2v-2.4h40.9v2.4H1027v87.1H1024.4L1024.4,126.9z"/>
		<path d="M1059.4,126.9V37.5h32.2v2.4h-29.7v38h19.4v2.4h-19.4v44.2h31.2v2.4L1059.4,126.9L1059.4,126.9z"/>
	</g>
</g>
<line class="st0" x1="447.3" y1="142.8" x2="587.1" y2="3"/>
</svg>
