<?xml version="1.0" encoding="utf-8"?>
<!-- Generator: Adobe Illustrator 27.3.1, SVG Export Plug-In . SVG Version: 6.00 Build 0)  -->
<svg version="1.1" id="Calque_1" xmlns="http://www.w3.org/2000/svg" xmlns:xlink="http://www.w3.org/1999/xlink" x="0px" y="0px"
	 viewBox="0 0 2097 164.5" style="enable-background:new 0 0 2097 164.5;" xml:space="preserve">
<style type="text/css">
	.st0{fill:none;stroke:#000000;stroke-width:3;stroke-linecap:square;stroke-linejoin:bevel;}
</style>
<polyline class="st0" points="609.3,2.1 551.8,59.8 489.2,122.2 451.3,160.4 438.3,122.4 417.4,59.8 398.1,2.1 340.7,59.8 
	278.1,122.4 240.1,160.4 227.5,122.4 206.6,59.8 187.6,2.1 130.7,58.7 68.1,121.6 27.3,162.4 "/>
<polyline class="st0" points="2095.1,3.1 2037.7,60.8 1975.4,123.2 1937.2,161.4 1924.5,123.4 1903.6,60.8 1883,2.1 1881.1,2.1 
	1823.7,59.8 1761.4,122.2 1723.2,160.4 1710.5,122.4 1689.6,59.8 1670,2.1 1612.6,59.8 1550,122.4 1512,160.4 1499.7,122.4 
	1478.7,59.8 1459.5,2.1 1456.6,2.1 1399.2,59.8 1336.8,122.2 1298.6,160.4 1286,122.4 1265,59.8 1245.5,2.1 1188,59.8 1125.4,122.4 
	1087.5,160.4 "/>
<line class="st0" x1="161.9" y1="2.1" x2="1.8" y2="161.9"/>
<line class="st0" x1="234.8" y1="140.9" x2="373.6" y2="2.1"/>
<line class="st0" x1="445.8" y1="140.9" x2="584.6" y2="2.1"/>
<line class="st0" x1="1063.1" y1="160.4" x2="1221.4" y2="2.1"/>
<line class="st0" x1="1293.6" y1="140.9" x2="1432.4" y2="2.1"/>
<line class="st0" x1="1508.1" y1="142.9" x2="1648.9" y2="2.1"/>
<line class="st0" x1="1719.1" y1="142.9" x2="1859.9" y2="2.1"/>
<line class="st0" x1="1933.1" y1="143.9" x2="2073.9" y2="3.1"/>
<g>
	<path d="M692.8,127V37.6h14.1c14.2,0,23.4,5.7,23.4,23.2s-10,24.4-24.1,24.4h-10.8V127H692.8L692.8,127z M695.3,82.8h10.8
		c12.6,0,21.5-5.9,21.5-22S719.4,40,706.9,40h-11.4C695.3,40,695.3,82.8,695.3,82.8z"/>
	<path d="M743.8,127V37.6h2.6v40.8h35.7V37.6h2.6V127h-2.6V80.8h-35.7v46h-2.6V127z"/>
	<path d="M824.3,128.1c-14.4,0-23.5-13.9-23.5-45.8s9.1-45.8,23.5-45.8s23.5,13.9,23.5,45.8S838.7,128.1,824.3,128.1z M824.3,125.8
		c13.1,0,21-13.6,21-43.5s-7.8-43.5-21-43.5s-21,13.6-21,43.5S811.1,125.8,824.3,125.8z"/>
	<path d="M874.4,127V40h-19.2v-2.4H896V40h-19.2V127H874.4z"/>
	<path d="M927.2,128.1c-14.4,0-23.5-13.9-23.5-45.8s9.1-45.8,23.5-45.8s23.5,13.9,23.5,45.8S941.6,128.1,927.2,128.1z M927.2,125.8
		c13.1,0,21-13.6,21-43.5s-7.8-43.5-21-43.5s-21,13.6-21,43.5S914.1,125.8,927.2,125.8z"/>
	<path d="M981.6,128.1c-9.1,0-15.3-5-19-16.1l2.3-0.8c3.4,9.9,8.7,14.5,16.7,14.5c9.3,0,16-6.3,16-18.4c0-10.2-4-17.2-17-26.6
		c-12.9-9.3-16.9-15.3-16.9-25.3c0-11.1,6.5-19,17.6-19c10,0,15,6,18.1,13.5l-2.3,0.9c-2.9-6.5-7.1-12.1-15.9-12.1
		c-9.7,0-15.1,7-15.1,16.7c0,9.2,4.2,14.8,15.9,23.2c14.3,10.3,18,17.7,18,28.7C1000.1,121.1,992.1,128.1,981.6,128.1z"/>
</g>
</svg>
