<?xml version="1.0" encoding="UTF-8"?>
<svg xmlns="http://www.w3.org/2000/svg" version="1.1" viewBox="0 0 2097 164.5">
  <defs>
    <style>
      .cls-1 {
        fill: none;
        stroke: #000;
        stroke-linecap: square;
        stroke-linejoin: bevel;
        stroke-width: 3px;
      }
    </style>
  </defs>
  <!-- Generator: Adobe Illustrator 28.7.8, SVG Export Plug-In . SVG Version: 1.2.0 Build 200)  -->
  <g>
    <g id="Calque_1">
      <line class="cls-1" x1="161.9" y1="2.5" x2="1.8" y2="162.2"/>
      <line class="cls-1" x1="234.8" y1="141.3" x2="373.6" y2="2.5"/>
      <line class="cls-1" x1="1293.3" y1="141.6" x2="1432.4" y2="2.5"/>
      <line class="cls-1" x1="1508.1" y1="143.3" x2="1648.9" y2="2.5"/>
      <line class="cls-1" x1="1719.1" y1="143.3" x2="1859.9" y2="2.5"/>
      <line class="cls-1" x1="1933.1" y1="144.3" x2="2073.9" y2="3.5"/>
      <line class="cls-1" x1="447.3" y1="142.8" x2="587.1" y2="3"/>
      <polyline class="cls-1" points="667.3 160.7 654.3 122.8 633.4 60.2 614.1 2.5 611.6 2.9 554.1 60.7 491.5 123.3 453.6 161.2 451.3 160.7 438.3 122.8 417.4 60.2 398.1 2.5 340.7 60.2 278.1 122.8 240.1 160.7 227.5 122.8 206.6 60.2 187.6 2.5 130.7 59 68.1 121.9 27.3 162.7"/>
      <g>
        <path d="M795.3,80.1v44.7h-2.5V36.4h17.6c12.3,0,19.8,7,19.8,21.3s-5.3,19.4-13.5,21.3c9.6,2.3,12.7,9.2,12.7,22.3v4.4c0,7,.4,15.3,1,19h-2.7c-.5-4-.9-12.5-.9-19v-4.3c0-16.8-5.7-21.3-17.8-21.3h-13.7ZM795.3,77.9h14.2c10.9,0,18.2-5.9,18.2-20.2s-5.1-19.1-17.4-19.1h-14.9v39.3Z"/>
        <path d="M851.9,89.6l-8.7,35.2h-2.5c0-.1,22.1-88.3,22.1-88.4h3.1l22.8,88.4h-2.7l-8.8-35.2h-25.3ZM876.6,87.4c-7.8-30.5-11.2-43.1-12.3-48.5h-.1c-.8,5.3-6.1,25.8-11.7,48.5h24.1Z"/>
        <path d="M939.2,103.4c-1,6.9-3.6,22.6-20.2,22.6s-22.6-19.7-22.6-45.1,7.2-45.7,23.1-45.7,18.8,13.5,19.4,22h-2.4c-.8-8.4-3.9-19.6-16.9-19.6s-20.6,12.5-20.6,43.2,4.4,42.8,20.1,42.8,16.6-14,17.5-20.2h2.6Z"/>
        <path d="M955.1,36.4v88.4h-2.5V36.4h2.5Z"/>
        <path d="M974.1,124.8V36.4h3.7c32.1,74.3,34.8,80.2,36.8,85.1h.1c-.4-9.4-.3-25.7-.3-40v-45.1h2.5v88.4h-3.5c-32.8-75.5-35.1-81.2-37.1-85.8h-.1c.4,11.1.4,25,.4,41.2v44.6h-2.5Z"/>
        <path d="M1068.7,78.8h-30.2v43.7h33.3l-.5,2.3h-35.3V36.4h34.6v2.3h-32.1v37.9h30.2v2.3Z"/>
        <path d="M1082.3,104.2c.4,11.9,7,19.5,17.6,19.5s17.1-7.7,17.1-20.1-4.7-18.1-16.9-24.3c-11.9-6-17.5-11.2-17.5-23.9s5.5-20.2,17.6-20.2,17.4,8.6,17.5,20.3h-2.4c-.3-11.8-5.7-18.1-15.3-18.1s-14.9,8.4-14.9,17.7,4,15.7,15.8,21.7c13.8,7,18.6,13.8,18.6,26.7s-5.2,22.4-19.8,22.4-19.6-11.3-20-21.7h2.5Z"/>
      </g>
      <polyline class="cls-1" points="2095.1 3.5 2037.7 61.2 1975.4 123.5 1937.2 161.7 1924.5 123.8 1903.6 61.2 1883 2.5 1881.1 2.5 1823.7 60.2 1761.4 122.5 1723.2 160.7 1710.5 122.8 1689.6 60.2 1670 2.5 1612.6 60.2 1550 122.8 1512 160.7 1499.7 122.8 1478.7 60.2 1459.5 2.5 1456.6 2.5 1399.2 60.2 1336.8 122.5 1298.6 160.7 1298.2 160.7 1285.9 122.8 1264.9 60.2 1245.7 2.5"/>
    </g>
  </g>
</svg>