<?xml version="1.0" encoding="UTF-8"?>
<svg xmlns="http://www.w3.org/2000/svg" version="1.1" viewBox="0 0 2097 164.5">
  <!-- Generator: Adobe Illustrator 28.7.8, SVG Export Plug-In . SVG Version: 1.2.0 Build 200)  -->
  <g>
    <g id="Calque_1">
      <g>
        <path d="M597.8,127.3V44.1c-2.9,2.6-9.6,5.8-13.4,6.8v-2.4c5-1.4,10.9-5,13.9-7.9h2v86.7h-2.5Z"/>
        <path d="M636.9,127.3v-.3c0-10.2,8.5-23.5,21.2-38.1,10.7-12.4,13-18.9,13-27s-2.6-19.5-14.7-19.5-14.9,8.6-15.4,21h-2.4c.3-13.4,5.4-23.4,17.8-23.4s17.2,10.3,17.2,21.8-6.4,20.1-13.7,28.6c-12.2,14.2-19.2,24.6-20.3,34.6h36.8l-.7,2.3h-38.9Z"/>
        <path d="M708.8,59.9c.2-7.2,2.9-19.8,16.6-19.8s15.9,9,15.9,20-4.7,18.2-11.1,19.8h0c6.6,2,13.9,6.7,13.9,22.9s-4.4,25.7-19.1,25.7-17.8-13.6-18.2-20.5h2.4c.5,7.8,3.3,18.1,15.9,18.1s16.4-7,16.4-23.3-7.1-21.5-18.4-21.5h-2.4v-2.4h2.6c11.2,0,15.5-6.5,15.5-18.9s-2.9-17.5-13.5-17.5-13.5,11.9-14.1,17.4h-2.4Z"/>
        <path d="M751.1,139.6c3.1-6.8,5.3-15.7,5.4-24.5h2.4c-.1,10.8-3.1,19.5-5.6,24.5h-2.2Z"/>
        <path d="M797.3,38.9h16.7c14.1,0,20.7,9.9,20.7,22.2s-6.3,24.1-22.3,24.1h-12.6v42.1h-2.5V38.9ZM799.8,83h12.6c13.4,0,19.6-7.5,19.6-21.8s-5.2-20.1-18.4-20.1h-13.8v41.9Z"/>
        <path d="M851.2,82.6v44.7h-2.5V38.9h17.6c12.3,0,19.8,7,19.8,21.3s-5.3,19.4-13.5,21.3c9.6,2.3,12.7,9.2,12.7,22.3v4.4c0,7,.4,15.3,1,19h-2.7c-.5-4-.9-12.5-.9-19v-4.3c0-16.8-5.7-21.3-17.8-21.3h-13.7ZM851.2,80.4h14.2c10.9,0,18.2-5.9,18.2-20.2s-5.1-19.1-17.4-19.1h-14.9v39.3Z"/>
        <path d="M944.2,82.4c0,29.2-5.5,46.1-22.5,46.1s-22.3-14.1-22.3-46,8.1-44.8,22.7-44.8,22.1,12.7,22.1,44.7ZM901.9,82.3c0,31,6.4,43.8,19.8,43.8s19.9-17.1,19.9-43.7-5.7-42.4-19.8-42.4-19.9,11.8-19.9,42.3Z"/>
        <path d="M965.7,112.1c0,13.5-5.2,16.3-11.8,16.3s-2.6,0-4.2-.3v-2.4c1.2.3,2.8.4,4.2.4,6.4,0,9.3-3.4,9.3-14.7V38.9h2.5v73.3Z"/>
        <path d="M1017.4,81.3h-30.2v43.7h33.3l-.5,2.3h-35.3V38.9h34.6v2.3h-32.1v37.9h30.2v2.3Z"/>
        <path d="M1046,41.1h-20.2v-2.3h43v2.3h-20.2v86.2h-2.5V41.1Z"/>
        <path d="M1106.6,101.5c0-.7-.2-45.3-.2-46.5v-16.1h2.5v62.6h-2.4ZM1106.5,127.3v-12.1h2.5v12.1h-2.5Z"/>
      </g>
    </g>
  </g>
</svg>