<?xml version="1.0" encoding="utf-8"?>
<!-- Generator: Adobe Illustrator 27.3.1, SVG Export Plug-In . SVG Version: 6.00 Build 0)  -->
<svg version="1.1" id="Calque_1" xmlns="http://www.w3.org/2000/svg" xmlns:xlink="http://www.w3.org/1999/xlink" x="0px" y="0px"
	 viewBox="0 0 2097.6 164.5" style="enable-background:new 0 0 2097.6 164.5;" xml:space="preserve">
<g>
	<path d="M331.9,127V37.6h15c11.9,0,19.8,6,19.8,20.6c0,12.8-7.4,19.5-15.3,20.6c7.9,0.5,18.6,5.5,18.6,23.5
		c0,17-8.4,24.8-22.8,24.8L331.9,127L331.9,127L331.9,127z M334.3,77.6H346c12.6,0,18.1-8.7,18.1-19.4c0-13-6.9-18.1-17.2-18.1
		h-12.6V77.6z M334.3,124.5h12.9c12.8,0,20.2-6.9,20.2-22.3S360,80,345.7,80h-11.4V124.5z"/>
	<path d="M389,100.8c0.2,0-6.2,26.1-6.2,26.1h-2.4l21.5-89.8h2.9l21.5,89.8h-2.6l-6.2-26.1C417.6,100.9,389,100.9,389,100.8
		L389,100.8z M417,98.4c0.2,0-13.7-58-13.7-58l-13.7,58H417L417,98.4z"/>
	<path d="M455.9,128c-9.1,0-15.3-5-19-16.1l2.3-0.8c3.5,9.8,8.7,14.6,16.8,14.6c9.3,0,15.9-6.4,15.9-18.4c0-10.2-4-17.2-17-26.7
		C442,71.2,438,65.2,438,55.3c0-11.1,6.5-19,17.7-19c10,0,15,6,18.1,13.5l-2.3,0.9c-2.9-6.5-7.1-12.1-15.9-12.1
		c-9.7,0-15.1,7.1-15.1,16.8c0,9.2,4.2,14.8,15.9,23.2c14.3,10.4,18,17.7,18,28.7C474.5,121.1,466.4,128,455.9,128L455.9,128z"/>
	<path d="M491.2,127V37.6h2.6V127H491.2z"/>
	<path d="M533.2,128c-14.2,0-22.8-14.3-22.8-45.8s8.9-45.8,23-45.8c8.9,0,14.4,6.5,17,16.8l-2.4,0.7c-2.3-9.3-6.9-15.2-14.6-15.2
		c-12.8,0-20.4,14.2-20.4,43.6s7.5,43.6,20.3,43.6c7.8,0,12.3-6.2,15.2-15.9l2.4,0.7C547.8,120.9,542.7,128,533.2,128L533.2,128z"/>
	<path d="M591.9,127V37.6h2.6V127H591.9z"/>
	<path d="M613.3,127V37.6h2.6l35.6,83.4V37.6h2.3V127h-2.2l-36-84.3v84.2L613.3,127L613.3,127L613.3,127z"/>
	<path d="M687.8,128c-9.1,0-15.3-5-19-16.1l2.3-0.8c3.5,9.8,8.7,14.6,16.8,14.6c9.3,0,15.9-6.4,15.9-18.4c0-10.2-4-17.2-17-26.7
		C673.9,71.4,670,65.4,670,55.4c0-11.1,6.5-19,17.7-19c10,0,15,6,18.1,13.5l-2.3,0.9c-2.9-6.5-7.1-12.1-15.9-12.1
		c-9.7,0-15.1,7.1-15.1,16.8c0,9.2,4.2,14.8,15.9,23.2c14.3,10.4,18,17.7,18,28.7C706.4,121.1,698.3,128,687.8,128L687.8,128z"/>
	<path d="M734.3,127V40h-19.2v-2.4H756V40h-19.2v87H734.3z"/>
	<path d="M769.9,127V37.6h2.6V127H769.9z"/>
	<path d="M791.3,127V37.6h2.6l35.6,83.4V37.6h2.3V127h-2.2l-36-84.3v84.2L791.3,127L791.3,127L791.3,127z"/>
	<path d="M870.8,128c-14.2,0-22.8-14.3-22.8-45.8s8.9-45.8,23-45.8c8.9,0,14.4,6.5,17,16.8l-2.4,0.7c-2.3-9.3-6.9-15.2-14.6-15.2
		c-12.8,0-20.4,14.2-20.4,43.6s7.5,43.6,20.3,43.6c7.8,0,12.3-6.2,15.2-15.9l2.4,0.7C885.4,120.9,880.3,128,870.8,128L870.8,128z"/>
	<path d="M916.1,127V40H897v-2.4h40.9V40h-19.2v87H916.1L916.1,127z"/>
</g>
</svg>
