<?xml version="1.0" encoding="utf-8"?>
<!-- Generator: Adobe Illustrator 27.4.1, SVG Export Plug-In . SVG Version: 6.00 Build 0)  -->
<svg version="1.1" id="Calque_1" xmlns="http://www.w3.org/2000/svg" xmlns:xlink="http://www.w3.org/1999/xlink" x="0px" y="0px"
	 viewBox="0 0 2097 164.5" style="enable-background:new 0 0 2097 164.5;" xml:space="preserve">
<style type="text/css">
	.st0{fill:none;stroke:#000000;stroke-width:3;stroke-linecap:square;stroke-linejoin:bevel;}
</style>
<polyline class="st0" points="397.8,2.2 340.4,60 277.8,122.6 239.8,160.6 227.2,122.6 206.2,60 187.3,2.2 130.4,58.8 67.8,121.8 
	27,162.6 "/>
<polyline class="st0" points="2094.8,3.2 2037.4,61 1975.1,123.3 1936.9,161.6 1924.2,123.6 1903.2,61 1882.7,2.2 1880.8,2.2 
	1823.4,60 1761.1,122.3 1722.9,160.6 1710.2,122.6 1689.2,60 1669.7,2.2 1612.3,60 1549.7,122.6 1511.7,160.6 1499.4,122.6 
	1478.4,60 1459.2,2.2 1456.3,2.2 1398.8,60 1336.5,122.3 1298.3,160.6 1285.7,122.6 1264.7,60 1245.2,2.2 "/>
<line class="st0" x1="161.6" y1="2.2" x2="1.5" y2="162.1"/>
<line class="st0" x1="234.5" y1="141.1" x2="373.3" y2="2.2"/>
<line class="st0" x1="1293.2" y1="141.1" x2="1432.1" y2="2.2"/>
<line class="st0" x1="1507.8" y1="143.1" x2="1648.6" y2="2.2"/>
<line class="st0" x1="1718.8" y1="143.1" x2="1859.6" y2="2.2"/>
<line class="st0" x1="1932.8" y1="144.1" x2="2073.6" y2="3.2"/>
<g>
	<path d="M528,126.9V40.1h-19.1v-2.6h40.8V40h-19.1v86.9H528L528,126.9z"/>
	<path d="M563,126.9V37.4h2.6v40.8h35.7V37.4h2.6v89.4h-2.6V80.7h-35.8v46.1L563,126.9L563,126.9z"/>
	<path d="M622.1,126.9V37.4h32.1V40h-29.6v37.9h19.2v2.5h-19.2v44.1h31.2v2.5L622.1,126.9L622.1,126.9z"/>
	<path d="M709.2,128.1c-9.1,0-15.3-4.9-19-16.1l2.2-0.8c3.5,9.8,8.7,14.5,16.7,14.5c9.3,0,16-6.4,16-18.3c0-10.2-4-17.1-16.9-26.7
		c-13-9.3-16.8-15.3-16.8-25.3c0-11.1,6.5-19,17.7-19c10,0,15,6,18.1,13.5l-2.2,0.9c-2.9-6.5-7.2-12.1-15.9-12.1
		c-9.6,0-15.1,7-15.1,16.7c0,9.2,4.2,14.8,15.9,23.2c14.3,10.4,18,17.8,18,28.6C727.8,120.9,719.7,128.1,709.2,128.1L709.2,128.1z"
		/>
	<path d="M743.9,126.9V37.4H776V40h-29.6v37.9h19.2v2.5h-19.2v44.1h31.2v2.5L743.9,126.9L743.9,126.9z"/>
	<path d="M808.8,128.1c-14.1,0-22.7-14.3-22.7-45.7S795,36.7,809,36.7c8.9,0,14.4,6.5,16.9,16.8l-2.5,0.6
		c-2.2-9.3-6.9-15.2-14.5-15.2c-12.9-0.1-20.5,14-20.5,43.4s7.5,43.5,20.2,43.5c7.7,0,12.2-6.3,15.2-15.9l2.5,0.6
		C823.4,120.9,818.3,128.1,808.8,128.1L808.8,128.1z"/>
	<path d="M854.2,126.9V40.1H835v-2.6h40.8V40h-19.1v86.9H854.2L854.2,126.9z"/>
	<path d="M927.6,126.9V40.1h-19.1v-2.6h40.8V40h-19.1v86.9h-2.5l0,0H927.6z"/>
	<path d="M960.8,100.8c0.1,0-6.1,26-6.1,26h-2.5l21.4-89.7h2.9l21.4,89.7h-2.6l-6.1-26H960.8L960.8,100.8z M988.7,98.3
		c0.1,0-13.6-57.9-13.6-57.9l-13.6,57.9H988.7z"/>
	<path d="M1013.5,126.9V37.4h2.6v86.9h28.3v2.5C1044.5,126.8,1013.5,126.8,1013.5,126.9z"/>
	<path d="M1059.3,88.8l31.6-51.2h2.7L1072,72.5l23.6,54.4h-2.7L1070.4,75l-11.2,18v34h-2.6V37.4h2.6L1059.3,88.8L1059.3,88.8z"/>
</g>
</svg>
