<?xml version="1.0" encoding="utf-8"?>
<!-- Generator: Adobe Illustrator 27.3.1, SVG Export Plug-In . SVG Version: 6.00 Build 0)  -->
<svg version="1.1" id="Calque_1" xmlns="http://www.w3.org/2000/svg" xmlns:xlink="http://www.w3.org/1999/xlink" x="0px" y="0px"
	 viewBox="0 0 2097 164.5" style="enable-background:new 0 0 2097 164.5;" xml:space="preserve">
<g>
	<path d="M686.6,126.9V37.6h2.6v87h28.4v2.4L686.6,126.9L686.6,126.9L686.6,126.9z"/>
	<path d="M735.6,100.9c0.1,0-6.1,26.1-6.1,26.1H727l21.5-89.8h2.9l21.5,89.8h-2.6l-6.1-26.1H735.6L735.6,100.9z M763.5,98.5
		c0.1,0-13.7-58-13.7-58l-13.7,58H763.5L763.5,98.5z"/>
	<path d="M813.2,126.9V37.6h32.1V40h-29.5v39.2h19.5v2.4h-19.5V127L813.2,126.9L813.2,126.9L813.2,126.9z"/>
	<path d="M858,126.9V37.6h32.2V40h-29.6v37.9h19.3v2.4h-19.3v44.2h31.2v2.4L858,126.9L858,126.9z"/>
	<path d="M904.8,126.9V37.6h14c14.2,0,23.4,5.7,23.4,22.5c0,13.4-6.5,20.4-16.1,22.7l16.1,44.2h-2.8l-16-43.8
		c-1,0.3-3.4,0.5-5.4,0.5h-10.7v43.3H904.8L904.8,126.9L904.8,126.9z M907.3,81.2h10.7c12.6,0,21.6-5.9,21.6-21.2s-8.2-20-20.8-20
		h-11.5V81.2L907.3,81.2z"/>
	<path d="M983.7,127.7l-23.4-84v83.3H958V37.6h2.9l23.1,83.3l23.2-83.3h2.9v89.4h-2.3V43.7l-23.5,84H983.7L983.7,127.7z"/>
	<path d="M1028.7,126.9V37.6h32.2V40h-29.6v37.9h19.3v2.4h-19.3v44.2h31.2v2.4L1028.7,126.9L1028.7,126.9z"/>
	<path d="M1100.3,126.9V37.6h14.2c18.5,0,27.5,12.8,27.5,44.6s-9.2,44.8-27.7,44.8H1100.3L1100.3,126.9L1100.3,126.9z M1102.9,124.5
		h11.4c17.2,0,25.2-12,25.2-42.4s-7.7-42.1-24.9-42.1h-11.6L1102.9,124.5L1102.9,124.5L1102.9,124.5z"/>
	<path d="M1158.1,126.9V37.6h32.2V40h-29.6v37.9h19.3v2.4h-19.3v44.2h31.2v2.4L1158.1,126.9L1158.1,126.9z"/>
	<path d="M1219.7,128.1c-9.1,0-15.3-5-19-16.1l2.3-0.8c3.4,9.8,8.7,14.6,16.7,14.6c9.3,0,16-6.4,16-18.4c0-10.2-4-17.2-17-26.7
		c-12.9-9.3-16.9-15.3-16.9-25.3c0-11.1,6.5-19,17.6-19c10,0,14.9,6,18.1,13.5l-2.3,0.9c-2.9-6.5-7.1-12.1-15.8-12.1
		c-9.7,0-15.1,7-15.1,16.7c0,9.2,4.2,14.8,15.8,23.2c14.3,10.3,18,17.8,18,28.7C1238.2,121.1,1230.2,128.1,1219.7,128.1
		L1219.7,128.1z"/>
	<path d="M1284.8,100.9c0.1,0-6.1,26.1-6.1,26.1h-2.4l21.5-89.8h2.9l21.5,89.8h-2.6l-6.1-26.1H1284.8L1284.8,100.9z M1312.8,98.5
		c0.1,0-13.7-58-13.7-58l-13.7,58H1312.8L1312.8,98.5L1312.8,98.5z"/>
	<path d="M1337.6,126.9V37.6h2.6l35.6,83.4V37.6h2.3v89.4h-2.2l-36-84.2v84.2C1339.9,126.9,1337.6,126.9,1337.6,126.9z"/>
	<path d="M1397.1,126.9V37.6h2.6v89.4C1399.7,126.9,1397.1,126.9,1397.1,126.9z"/>
	<path d="M1444.2,127.7l-23.4-84v83.3h-2.3V37.6h2.9l23.1,83.3l23.2-83.3h2.9v89.4h-2.3V43.7l-23.5,84H1444.2L1444.2,127.7
		L1444.2,127.7z"/>
	<path d="M1494.8,100.9c0.1,0-6.1,26.1-6.1,26.1h-2.4l21.5-89.8h2.9l21.5,89.8h-2.6l-6.1-26.1H1494.8L1494.8,100.9z M1522.8,98.5
		c0.1,0-13.7-58-13.7-58l-13.7,58H1522.8L1522.8,98.5L1522.8,98.5z"/>
	<path d="M1565.9,128.1c-13.4,0-20.7-8.4-20.7-24.9V37.6h2.6v65.6c0,15.1,6.4,22.6,18.1,22.6s18-7.5,18-22.6V37.6h2.6v65.6
		C1586.5,119.7,1579.4,128.1,1565.9,128.1L1565.9,128.1z"/>
	<path d="M1599.8,126.9l19.3-46l-18-43.4h2.6l16.7,40.4l17-40.4h2.3l-18,43l19.3,46.4h-2.6l-18.1-43.3l-18.1,43.3L1599.8,126.9
		L1599.8,126.9z"/>
</g>
</svg>
