<?xml version="1.0" encoding="utf-8"?>
<!-- Generator: Adobe Illustrator 27.3.1, SVG Export Plug-In . SVG Version: 6.00 Build 0)  -->
<svg version="1.1" id="Calque_1" xmlns="http://www.w3.org/2000/svg" xmlns:xlink="http://www.w3.org/1999/xlink" x="0px" y="0px"
	 viewBox="0 0 2097 164.5" style="enable-background:new 0 0 2097 164.5;" xml:space="preserve">
<g>
	<path d="M803.2,128.1c-14.7,0-23.2-14.4-23.2-45.9s8.8-45.8,22.9-45.8c9.1,0,14.6,5.6,18.1,17.6l-2.3,1
		c-3.6-11.9-8.6-16.3-15.8-16.3c-12.3,0-20.3,13.5-20.3,43.6s7.6,43.6,20.7,43.6c11.3,0,17.7-10.4,17.7-31.8v-6.7H806v-2.6h17.6v8.9
		C823.7,116.3,816.4,128.1,803.2,128.1L803.2,128.1z"/>
	<path d="M839.3,126.9V37.4h14.1c14.2,0,23.4,5.6,23.4,23.3s-9.9,24.5-24.2,24.5h-10.7v41.8C841.9,126.9,839.3,126.9,839.3,126.9z
		 M841.9,82.6h10.7c12.7,0,21.6-5.8,21.6-22s-8.2-20.8-20.8-20.8h-11.5V82.6z"/>
	<path d="M889.7,100.9c0.1,0-6.1,26-6.1,26h-2.5L902.6,37h3l21.5,89.9h-2.6l-6.1-26H889.7z M917.6,98.4c0.1,0-13.7-58-13.7-58
		l-13.7,58H917.6z"/>
	<path d="M961,128.1c-14.2,0-22.8-14.4-22.8-45.9s8.9-45.8,23-45.8c8.9,0,14.5,6.5,17,16.8l-2.5,0.6c-2.3-9.3-6.9-15.3-14.6-15.3
		c-12.8,0-20.5,14.2-20.5,43.6s7.5,43.6,20.3,43.6c7.8,0,12.3-6.2,15.3-15.8l2.5,0.6C975.6,120.9,970.5,128.1,961,128.1L961,128.1z"
		/>
</g>
</svg>
