<?xml version="1.0" encoding="utf-8"?>
<!-- Generator: Adobe Illustrator 27.3.1, SVG Export Plug-In . SVG Version: 6.00 Build 0)  -->
<svg version="1.1" id="Calque_1" xmlns="http://www.w3.org/2000/svg" xmlns:xlink="http://www.w3.org/1999/xlink" x="0px" y="0px"
	 viewBox="0 0 1257.6 58.6" style="enable-background:new 0 0 1257.6 58.6;" xml:space="preserve">
<style type="text/css">
	.st0{fill:none;stroke:#000000;stroke-width:2;stroke-linecap:square;stroke-linejoin:bevel;}
	.st1{enable-background:new    ;}
</style>
<polyline class="st0" points="65.7,13.3 68.3,21.1 75.8,43.3 80.4,57.2 "/>
<polyline class="st0" points="139.3,13.2 142,21.5 149.3,43.3 153.8,56.7 "/>
<line class="st0" x1="204.4" y1="1.4" x2="164.1" y2="41.8"/>
<line class="st0" x1="90.4" y1="41.2" x2="130.2" y2="1.4"/>
<line class="st0" x1="57.2" y1="1.4" x2="1.4" y2="57.1"/>
<line class="st0" x1="498.8" y1="1.4" x2="458.4" y2="41.8"/>
<polyline class="st0" points="508.6,13.3 511.2,21.1 518.6,43.3 523.2,57.2 "/>
<polyline class="st0" points="582.1,13.2 584.9,21.5 592.1,43.3 596.6,56.7 "/>
<line class="st0" x1="647.3" y1="1.4" x2="606.9" y2="41.8"/>
<line class="st0" x1="533.2" y1="41.2" x2="573.1" y2="1.4"/>
<polyline class="st0" points="656,13.3 658.7,21.1 666,43.3 670.7,57.2 "/>
<polyline class="st0" points="729.6,13.2 732.3,21.5 739.6,43.3 744.1,56.7 "/>
<line class="st0" x1="794.7" y1="1.4" x2="754.3" y2="41.8"/>
<line class="st0" x1="680.7" y1="41.2" x2="720.5" y2="1.4"/>
<polyline class="st0" points="803.6,13.3 806.2,21.1 813.6,43.3 818.2,57.2 "/>
<polyline class="st0" points="877.1,13.2 879.9,21.5 887.2,43.3 891.6,56.7 "/>
<line class="st0" x1="942.3" y1="1.4" x2="901.9" y2="41.8"/>
<line class="st0" x1="828.2" y1="41.2" x2="868.1" y2="1.4"/>
<polyline class="st0" points="951.1,13.3 953.7,21.1 961.1,43.3 965.7,57.2 "/>
<polyline class="st0" points="1024.6,13.2 1027.4,21.5 1034.7,43.3 1039.1,56.7 "/>
<line class="st0" x1="1089.1" y1="1.4" x2="1048.7" y2="41.8"/>
<line class="st0" x1="975" y1="41.2" x2="1014.9" y2="1.4"/>
<polyline class="st0" points="1098.9,13.3 1101.5,21.1 1108.9,43.3 1113.5,57.2 "/>
<polyline class="st0" points="1172.4,13.2 1175.2,21.5 1182.4,43.3 1186.9,56.7 "/>
<line class="st0" x1="1237.6" y1="1.4" x2="1197.2" y2="41.8"/>
<polyline class="st0" points="223.8,1.4 223.1,1.4 203.1,21.5 181.3,43.2 168.1,56.5 163.6,43.3 156.3,21.5 149.6,1.4 129.6,21.5 
	107.8,43.3 94.6,56.5 90.2,43.3 82.9,21.5 76.3,1.4 56.5,21.1 34.7,43 20.5,57.2 "/>
<polyline class="st0" points="1256.2,1.4 1236.2,21.5 1214.5,43.2 1201.2,56.5 1196.8,43.3 1189.4,21.5 1182.7,1.4 1162.7,21.5 
	1140.9,43.3 1127.7,56.5 1123.4,43.3 1116.1,21.5 1109.4,1.4 1108.4,1.4 1088.4,21.5 1066.7,43.2 1053.4,56.5 1049,43.3 
	1041.7,21.5 1034.9,1.4 1014.9,21.5 993.1,43.3 980,56.5 975.6,43.3 968.3,21.5 961.6,1.4 960.9,1.4 940.9,21.5 919.2,43.2 
	905.9,56.5 901.5,43.3 894.2,21.5 887.5,1.4 867.4,21.5 845.6,43.3 832.5,56.5 828.1,43.3 820.8,21.5 814.1,1.4 813.4,1.4 
	793.4,21.5 771.6,43.2 758.4,56.5 754,43.3 746.6,21.5 739.9,1.4 719.9,21.5 698,43.3 684.9,56.5 680.5,43.3 673.2,21.5 667,1.4 
	665.9,1.4 645.9,21.5 624.2,43.2 610.9,56.5 606.5,43.3 599.2,21.5 592.4,1.4 572.4,21.5 550.6,43.3 537.4,56.5 533.1,43.3 
	525.8,21.5 519.1,1.4 518.1,1.4 498.1,21.5 476.4,43.2 463.1,56.5 458.7,43.3 "/>
<line class="st0" x1="1123.5" y1="41.2" x2="1163.4" y2="1.4"/>
<g class="st1">
	<path d="M293.2,45.8c-2-0.9-4-2.4-6-4.4c-0.2-0.2-0.3-0.5-0.3-0.8c0-0.3,0.1-0.6,0.4-0.9c0.3-0.3,0.5-0.4,0.8-0.4
		c0.3,0,0.6,0.2,0.9,0.5c1.4,1.7,3.1,3,5.1,3.9c2,0.9,4,1.3,6.2,1.3c2.8,0,5.2-0.7,7-2c1.8-1.4,2.8-3.2,2.8-5.4
		c0-1.8-0.5-3.2-1.4-4.3c-0.9-1.1-2-2-3.4-2.7c-1.3-0.7-3.2-1.4-5.5-2.3c-2.5-1-4.5-1.8-5.9-2.5c-1.4-0.7-2.6-1.8-3.6-3.1
		c-1-1.4-1.5-3.1-1.5-5.3c0-1.8,0.5-3.4,1.5-4.9c1-1.5,2.4-2.6,4.2-3.5c1.8-0.8,4-1.3,6.4-1.3c2.2,0,4.2,0.4,6.2,1.2
		c1.9,0.8,3.5,1.9,4.6,3.3c0.4,0.5,0.5,0.9,0.5,1.2c0,0.3-0.1,0.6-0.4,0.8c-0.3,0.2-0.6,0.4-0.9,0.4c-0.3,0-0.5-0.1-0.7-0.3
		c-1-1.3-2.3-2.4-4-3.1c-1.6-0.8-3.4-1.2-5.3-1.2c-2.8,0-5.1,0.7-7,2c-1.9,1.3-2.8,3.1-2.8,5.4c0,1.6,0.4,2.9,1.3,4
		c0.9,1.1,2,2,3.4,2.7c1.4,0.7,3,1.4,5.1,2.1c2.6,0.9,4.6,1.8,6.1,2.5c1.5,0.8,2.8,1.9,3.9,3.4c1.1,1.5,1.6,3.4,1.6,5.8
		c0,1.7-0.5,3.3-1.5,4.7c-1,1.5-2.4,2.6-4.3,3.5c-1.9,0.9-4,1.3-6.4,1.3C297.6,47.2,295.2,46.8,293.2,45.8z"/>
	<path d="M322.6,46.4c-0.2,0.2-0.5,0.3-0.8,0.3c-0.4,0-0.7-0.1-0.9-0.3c-0.2-0.2-0.3-0.5-0.3-0.8V9.4c0-0.3,0.1-0.6,0.3-0.8
		c0.2-0.2,0.5-0.3,0.8-0.3c0.3,0,0.6,0.1,0.8,0.3S323,9,323,9.4v36.2C323,45.9,322.8,46.2,322.6,46.4z"/>
	<path d="M359,8.5c0.2,0.2,0.3,0.4,0.3,0.7c0,0.3-0.1,0.6-0.3,0.8c-0.2,0.2-0.5,0.3-0.8,0.3H346v35.3c0,0.3-0.1,0.5-0.3,0.8
		c-0.2,0.2-0.5,0.3-0.8,0.3c-0.3,0-0.6-0.1-0.8-0.3c-0.2-0.2-0.3-0.5-0.3-0.8V10.3h-12.3c-0.3,0-0.5-0.1-0.8-0.3
		c-0.2-0.2-0.3-0.4-0.3-0.7c0-0.3,0.1-0.5,0.3-0.7c0.2-0.2,0.5-0.3,0.8-0.3h26.7C358.5,8.2,358.8,8.3,359,8.5z"/>
	<path d="M389.4,44.8c0.2,0.2,0.3,0.5,0.3,0.8c0,0.3-0.1,0.6-0.3,0.8c-0.2,0.2-0.5,0.3-0.8,0.3h-20.7c-0.3,0-0.6-0.1-0.8-0.3
		c-0.2-0.2-0.3-0.5-0.3-0.8V9.3c0-0.3,0.1-0.5,0.3-0.8c0.2-0.2,0.5-0.3,0.8-0.3h20.7c0.3,0,0.5,0.1,0.8,0.3s0.3,0.5,0.3,0.8
		c0,0.3-0.1,0.6-0.3,0.8c-0.2,0.2-0.5,0.3-0.8,0.3h-19.5v15.3h17c0.3,0,0.6,0.1,0.8,0.3c0.2,0.2,0.3,0.5,0.3,0.8
		c0,0.3-0.1,0.6-0.3,0.8c-0.2,0.2-0.5,0.3-0.8,0.3h-17v16.6h19.5C388.9,44.5,389.2,44.6,389.4,44.8z"/>
</g>
</svg>
