<?xml version="1.0" encoding="utf-8"?>
<!-- Generator: Adobe Illustrator 27.3.1, SVG Export Plug-In . SVG Version: 6.00 Build 0)  -->
<svg version="1.1" id="Calque_1" xmlns="http://www.w3.org/2000/svg" xmlns:xlink="http://www.w3.org/1999/xlink" x="0px" y="0px"
	 viewBox="0 0 2097 164.5" style="enable-background:new 0 0 2097 164.5;" xml:space="preserve">
<g>
	<path d="M623.5,126.9V40.1h-19.2v-2.4h40.8v2.4H626v86.9H623.5z"/>
	<path d="M658.3,126.9V37.7h32.1v2.4h-29.6V78h19.3v2.4h-19.3v44.2h31.1v2.4H658.3L658.3,126.9z"/>
	<path d="M710.6,101c0.1,0-6.1,26.1-6.1,26.1h-2.4l21.5-89.7h2.9l21.5,89.7h-2.5l-6.3-26.1H710.6z M738.6,98.5
		c0.1,0-13.6-57.9-13.6-57.9l-13.6,57.9H738.6z"/>
	<path d="M777.5,128.1c-9.1,0-15.3-5-19.1-16.1l2.3-0.7c3.5,9.8,8.7,14.6,16.7,14.6c9.3,0,15.9-6.4,15.9-18.3c0-10.2-4-17.3-17-26.7
		c-12.9-9.3-16.9-15.3-16.9-25.2c0-11.1,6.5-19.1,17.6-19.1c9.9,0,15,6,18.1,13.5L793,51c-2.9-6.5-7.1-12.1-15.8-12.1
		c-9.7,0-15.1,7-15.1,16.7c0,9.2,4.2,14.8,15.8,23.2c14.3,10.4,18,17.7,18,28.7C795.9,121.1,788,128.1,777.5,128.1z"/>
	<path d="M812.1,126.9V37.7h32.1v2.4h-29.6V78h19.3v2.4h-19.3v44.2h31.1v2.4H812.1L812.1,126.9z"/>
	<path d="M858.7,126.9V37.7h14c14.1,0,23.3,5.8,23.3,22.4c0,13.4-6.5,20.4-16.1,22.7l16.1,44.2h-2.8l-15.9-43.8
		c-1,0.2-3.5,0.5-5.3,0.5h-10.7v43.2H858.7z M861.3,81.3h10.7c12.7,0,21.6-5.9,21.6-21.1s-8.2-20-20.8-20h-11.5v41.1L861.3,81.3
		L861.3,81.3z"/>
	<path d="M949.9,128.1c-10.6,0-16.3-6.9-18.5-20.6l2.4-0.2c2,12.8,7.4,18.6,16.1,18.6c10.5,0,15.7-7.6,15.7-24.3v-64h2.5v64.1
		C968.2,119.5,962,128.1,949.9,128.1C949.9,128.1,949.9,128.1,949.9,128.1z"/>
	<path d="M986,126.9V37.7h14c14.1,0,23.3,5.7,23.3,23.2s-9.9,24.4-24.1,24.4h-10.7v41.8H986V126.9z M988.7,82.8h10.7
		c12.7,0,21.6-5.9,21.6-22s-8.2-20.8-20.8-20.8h-11.5C988.7,40.1,988.7,82.8,988.7,82.8L988.7,82.8z"/>
	<path d="M1058.4,128.1c-14.4,0-23.4-13.9-23.4-45.8s9.1-45.8,23.4-45.8s23.4,13.9,23.4,45.8S1072.8,128.1,1058.4,128.1z
		 M1058.4,125.8c13.2,0,20.9-13.6,20.9-43.5s-7.7-43.5-20.9-43.5s-20.9,13.6-20.9,43.5S1045.3,125.8,1058.4,125.8z"/>
</g>
</svg>
