<?xml version="1.0" encoding="UTF-8"?>
<svg xmlns="http://www.w3.org/2000/svg" version="1.1" viewBox="0 0 2097 164.5">
  <!-- Generator: Adobe Illustrator 28.7.8, SVG Export Plug-In . SVG Version: 1.2.0 Build 200)  -->
  <g>
    <g id="Calque_1">
      <g>
        <path d="M644.6,83.2c0-18.1,0-34.3.4-42.6h-.1c-1.7,7.2-15,56.6-23.3,86.3h-3.1c-7.5-30-19.1-71.9-22.3-86.1h-.1c.4,8.8.4,30.9.4,46v40.1h-2.4V38.5h3.8c9.9,37.2,21.2,79.5,22.2,85.3h.1c1-5.2,13.4-50.2,23-85.3h3.9v88.4h-2.5v-43.7Z"/>
        <path d="M669.9,91.7l-8.7,35.2h-2.5c0-.1,22.1-88.3,22.1-88.4h3.1l22.8,88.4h-2.7l-8.8-35.2h-25.3ZM694.6,89.5c-7.8-30.5-11.2-43.1-12.3-48.5h-.1c-.8,5.3-6.1,25.8-11.7,48.5h24.1Z"/>
        <path d="M758.1,126.9h-2.2c-.1-1.8-.2-4.4-.2-15.5-2.7,11.9-8.9,16.7-18.8,16.7-19.9,0-22.4-24.3-22.4-44.5s2.7-46.3,24.1-46.3,19.3,14.5,19.8,21.8h-2.5c-.5-4.5-1.7-19.4-17.5-19.4s-21.3,20.2-21.3,43.8,6.4,42.3,20.1,42.3,18.6-15.7,18.6-34.1v-7.3h-19.6v-2.3h22v44.9Z"/>
        <path d="M775.1,126.9V38.5h3.7c32.1,74.3,34.8,80.2,36.8,85.1h.1c-.4-9.4-.3-25.7-.3-40v-45.1h2.5v88.4h-3.5c-32.8-75.5-35.1-81.2-37.1-85.8h-.1c.4,11.1.4,25,.4,41.2v44.6h-2.5Z"/>
        <path d="M869.8,80.9h-30.2v43.7h33.3l-.5,2.3h-35.3V38.5h34.6v2.3h-32.1v37.9h30.2v2.3Z"/>
        <path d="M901.1,92.3v2.4h-23.5v-2.4h23.5Z"/>
        <path d="M919,40.7h-20.2v-2.3h43v2.3h-20.2v86.2h-2.5V40.7Z"/>
        <path d="M989.3,82c0,29.2-5.5,46.1-22.5,46.1s-22.3-14.1-22.3-46,8.1-44.8,22.7-44.8,22.1,12.7,22.1,44.7ZM947.1,81.9c0,31,6.4,43.8,19.8,43.8s19.9-17.1,19.9-43.7-5.7-42.4-19.8-42.4-19.9,11.8-19.9,42.3Z"/>
        <path d="M1007.7,38.5v88.4h-2.5V38.5h2.5Z"/>
        <path d="M1050.2,38.5h2.5v86.2h32.3l-.7,2.3h-34.2V38.5Z"/>
        <path d="M1128.3,80.9h-30.2v43.7h33.3l-.5,2.3h-35.3V38.5h34.6v2.3h-32.1v37.9h30.2v2.3Z"/>
        <path d="M1166.9,38.5h2.5v48.3c7.4-9.9,24.3-33.2,35.3-48.3h3l-27.3,37.2,29.3,51.2h-3l-27.9-49.1-9.4,12.5v36.6h-2.5V38.5Z"/>
        <path d="M1218.1,38.5h2.5v40.2h36v-40.2h2.5v88.4h-2.5v-46h-36v46h-2.5V38.5Z"/>
        <path d="M1280.7,38.5v88.4h-2.5V38.5h2.5Z"/>
        <path d="M1328.6,101.1c0-.7-.2-45.3-.2-46.5v-16.1h2.5v62.6h-2.4ZM1328.4,126.9v-12.1h2.5v12.1h-2.5Z"/>
      </g>
    </g>
  </g>
</svg>