<?xml version="1.0" encoding="utf-8"?>
<!-- Generator: Adobe Illustrator 27.3.1, SVG Export Plug-In . SVG Version: 6.00 Build 0)  -->
<svg version="1.1" id="Calque_1" xmlns="http://www.w3.org/2000/svg" xmlns:xlink="http://www.w3.org/1999/xlink" x="0px" y="0px"
	 viewBox="0 0 2097 164.5" style="enable-background:new 0 0 2097 164.5;" xml:space="preserve">
<g>
	<path d="M388.1,126.9V37.6h2.6v87H419v2.4L388.1,126.9L388.1,126.9z"/>
	<path d="M431.4,126.9V37.6h32.2V40h-29.6v37.9h19.3v2.4h-19.3v44.2h31.2v2.4L431.4,126.9L431.4,126.9z"/>
	<path d="M483.7,100.9c0.1,0-6.1,26.1-6.1,26.1h-2.4l21.5-89.8h2.9l21.5,89.8h-2.6l-6.1-26.1H483.7L483.7,100.9L483.7,100.9z
		 M511.7,98.5c0.1,0-13.7-58-13.7-58l-13.7,58H511.7L511.7,98.5z"/>
	<path d="M536.5,126.9V37.6h2.6l35.6,83.4V37.6h2.3v89.4h-2.2l-36-84.2v84.2H536.5z"/>
	<path d="M601,100.9c0.1,0-6.1,26.1-6.1,26.1h-2.4l21.5-89.8h2.9l21.5,89.8h-2.6l-6.1-26.1H601z M629,98.5c0.1,0-13.7-58-13.7-58
		l-13.7,58H629L629,98.5z"/>
	<path d="M678.6,126.9V37.6h32.1V40h-29.5v39.2h19.5v2.4h-19.5V127L678.6,126.9L678.6,126.9L678.6,126.9z"/>
	<path d="M742.1,128.1c-14.4,0-23.5-13.9-23.5-45.9s9.1-45.8,23.5-45.8c14.4,0,23.5,13.9,23.5,45.8S756.5,128.1,742.1,128.1z
		 M742.1,125.8c13.2,0,20.9-13.7,20.9-43.5s-7.8-43.5-20.9-43.5s-20.9,13.7-20.9,43.5S729,125.8,742.1,125.8z"/>
	<path d="M781.8,126.9V37.6h2.6L820,121V37.6h2.3v89.4h-2.2l-36-84.2v84.2H781.8z"/>
	<path d="M854.5,126.9V40h-19.2v-2.4h40.9V40h-19.2v87L854.5,126.9L854.5,126.9z"/>
</g>
</svg>
