<?xml version="1.0" encoding="utf-8"?>
<!-- Generator: Adobe Illustrator 27.3.1, SVG Export Plug-In . SVG Version: 6.00 Build 0)  -->
<svg version="1.1" id="Calque_1" xmlns="http://www.w3.org/2000/svg" xmlns:xlink="http://www.w3.org/1999/xlink" x="0px" y="0px"
	 viewBox="0 0 2097.6 164.5" style="enable-background:new 0 0 2097.6 164.5;" xml:space="preserve">
<g>
	<path d="M765.4,127.7L742,43.5v83.3h-2.3V37.4h2.9l23.2,83.4L789,37.4h2.9v89.4h-2.3V43.5L766,127.7H765.4z"/>
	<path d="M811.1,126.9V37.5h2.5V127L811.1,126.9L811.1,126.9L811.1,126.9z"/>
	<path d="M832.5,126.9V37.5h2.5l35.6,83.5V37.5h2.3V127h-2.2l-36-84.3V127L832.5,126.9L832.5,126.9L832.5,126.9z"/>
	<path d="M892.1,126.9V37.5h2.5V127L892.1,126.9L892.1,126.9L892.1,126.9z"/>
	<path d="M954.2,128.1c-9.1,0-15.4-5-19-16l2.3-0.8c3.4,9.9,8.7,14.6,16.7,14.6c9.3,0,16-6.4,16-18.4c0-10.3-4-17.2-17-26.7
		c-12.9-9.3-16.8-15.4-16.8-25.3c0-11.2,6.6-19,17.7-19c10,0,15,6,18.1,13.5l-2.3,0.9c-2.9-6.6-7.1-12.1-15.9-12.1
		c-9.7,0-15.1,6.9-15.1,16.7c0,9.2,4.2,14.8,15.9,23.2c14.3,10.4,18,17.7,18,28.8C972.7,121.1,964.7,128.1,954.2,128.1L954.2,128.1
		L954.2,128.1z"/>
	<path d="M989.5,126.9V37.5h2.5V127L989.5,126.9L989.5,126.9L989.5,126.9z"/>
	<path d="M1024.7,126.9V39.8h-19.2v-2.4h40.9v2.4h-19.2v87.1H1024.7L1024.7,126.9z"/>
	<path d="M1059.7,126.9V37.5h32.2v2.4h-29.7v38h19.4v2.4h-19.4v44.2h31.2v2.4L1059.7,126.9L1059.7,126.9L1059.7,126.9z"/>
</g>
</svg>
