<?xml version="1.0" encoding="utf-8"?>
<!-- Generator: Adobe Illustrator 27.3.1, SVG Export Plug-In . SVG Version: 6.00 Build 0)  -->
<svg version="1.1" id="Calque_1" xmlns="http://www.w3.org/2000/svg" xmlns:xlink="http://www.w3.org/1999/xlink" x="0px" y="0px"
	 viewBox="0 0 2097 164.5" style="enable-background:new 0 0 2097 164.5;" xml:space="preserve">
<g>
	<path d="M692.8,127V37.6h14.1c14.2,0,23.4,5.7,23.4,23.2s-10,24.4-24.1,24.4h-10.8V127H692.8z M695.3,82.8h10.8
		c12.6,0,21.5-5.9,21.5-22S719.4,40,706.9,40h-11.4C695.3,40,695.3,82.8,695.3,82.8L695.3,82.8z"/>
	<path d="M743.8,127V37.6h2.6v40.8h35.7V37.6h2.6V127h-2.6V80.8h-35.7v46h-2.6V127z"/>
	<path d="M824.3,128.1c-14.4,0-23.5-13.9-23.5-45.8s9.1-45.8,23.5-45.8s23.5,13.9,23.5,45.8S838.7,128.1,824.3,128.1z M824.3,125.8
		c13.1,0,21-13.6,21-43.5s-7.8-43.5-21-43.5s-21,13.6-21,43.5S811.1,125.8,824.3,125.8z"/>
	<path d="M874.4,127V40h-19.2v-2.4H896V40h-19.2V127H874.4L874.4,127z"/>
	<path d="M927.2,128.1c-14.4,0-23.5-13.9-23.5-45.8s9.1-45.8,23.5-45.8c14.4,0,23.5,13.9,23.5,45.8S941.6,128.1,927.2,128.1z
		 M927.2,125.8c13.1,0,21-13.6,21-43.5s-7.8-43.5-21-43.5c-13.1,0-21,13.6-21,43.5S914.1,125.8,927.2,125.8z"/>
	<path d="M981.6,128.1c-9.1,0-15.3-5-19-16.1l2.3-0.8c3.4,9.9,8.7,14.5,16.7,14.5c9.3,0,16-6.3,16-18.4c0-10.2-4-17.2-17-26.6
		c-12.9-9.3-16.9-15.3-16.9-25.3c0-11.1,6.5-19,17.6-19c10,0,15,6,18.1,13.5l-2.3,0.9c-2.9-6.5-7.1-12.1-15.9-12.1
		c-9.7,0-15.1,7-15.1,16.7s4.2,14.8,15.9,23.2c14.3,10.3,18,17.7,18,28.7C1000.1,121.1,992.1,128.1,981.6,128.1L981.6,128.1z"/>
</g>
</svg>
