<?xml version="1.0" encoding="utf-8"?>
<!-- Generator: Adobe Illustrator 28.3.0, SVG Export Plug-In . SVG Version: 6.00 Build 0)  -->
<svg version="1.1" id="Calque_1" xmlns="http://www.w3.org/2000/svg" xmlns:xlink="http://www.w3.org/1999/xlink" x="0px" y="0px"
	 viewBox="0 0 2097 164.5" style="enable-background:new 0 0 2097 164.5;" xml:space="preserve">
<g>
	<g>
		<path d="M442.8,37.6h16.9c14.3,0,21,10,21,22.6c0,14.4-6.4,24.5-22.6,24.5h-12.8v42.7h-2.6V37.6z M445.3,82.4h12.8
			c13.6,0,19.9-7.6,19.9-22.1c0-10.8-5.3-20.4-18.7-20.4h-14.1V82.4z"/>
		<path d="M537,81.8c0,29.6-5.6,46.8-22.8,46.8c-15.9,0-22.6-14.4-22.6-46.7c0-32.6,8.2-45.5,23.1-45.5
			C529.4,36.4,537,49.3,537,81.8z M494.1,81.8c0,31.5,6.5,44.4,20.1,44.4c15.8,0,20.2-17.4,20.2-44.3c0-28.9-5.8-43-20.1-43
			C501.4,38.8,494.1,50.8,494.1,81.8z"/>
		<path d="M555.5,82v45.4H553V37.6h17.9c12.5,0,20.1,7.1,20.1,21.7c0,12.4-5.3,19.7-13.7,21.6c9.7,2.3,12.9,9.4,12.9,22.7v4.5
			c0,7.1,0.4,15.5,1,19.3h-2.7c-0.5-4-0.9-12.7-0.9-19.3v-4.4c0-17-5.8-21.7-18.1-21.7H555.5z M555.5,79.8h14.4
			c11.1,0,18.4-6,18.4-20.5c0-11.5-5.2-19.3-17.7-19.3h-15.1V79.8z"/>
		<path d="M617.7,39.9h-20.5v-2.3h43.6v2.3h-20.5v87.5h-2.6V39.9z"/>
		<path d="M652.6,82v45.4H650V37.6h17.9c12.5,0,20.1,7.1,20.1,21.7c0,12.4-5.3,19.7-13.7,21.6c9.7,2.3,12.9,9.4,12.9,22.7v4.5
			c0,7.1,0.4,15.5,1,19.3h-2.7c-0.5-4-0.9-12.7-0.9-19.3v-4.4c0-17-5.8-21.7-18.1-21.7H652.6z M652.6,79.8h14.4
			c11.1,0,18.4-6,18.4-20.5c0-11.5-5.2-19.3-17.7-19.3h-15.1V79.8z"/>
		<path d="M708.4,91.7l-8.8,35.7H697c0-0.1,22.4-89.7,22.5-89.8h3.1l23.2,89.8h-2.7l-8.9-35.7H708.4z M733.5,89.4
			c-7.9-31-11.4-43.8-12.5-49.2h-0.1c-0.8,5.4-6.2,26.2-11.9,49.2H733.5z"/>
		<path d="M760.1,37.6v89.8h-2.6V37.6H760.1z"/>
		<path d="M789.8,39.9h-20.5v-2.3h43.6v2.3h-20.5v87.5h-2.6V39.9z"/>
		<path d="M818.6,106.5c0.4,12,7.1,19.8,17.9,19.8c11.3,0,17.4-7.8,17.4-20.4c0-12-4.8-18.4-17.2-24.7C824.6,75.1,819,69.8,819,56.9
			c0-11.2,5.6-20.5,17.9-20.5c12.4,0,17.7,8.7,17.8,20.6h-2.5c-0.3-11.9-5.7-18.3-15.5-18.3c-11.1,0-15.1,8.5-15.1,18
			c0,11.4,4.1,16,16,22c14,7.1,18.9,14,18.9,27.1c0,12-5.3,22.8-20.1,22.8c-15,0-19.9-11.5-20.3-22.1H818.6z"/>
		<path d="M894.7,37.6h16.9c14.3,0,21,10,21,22.6c0,14.4-6.4,24.5-22.6,24.5h-12.8v42.7h-2.6V37.6z M897.3,82.4h12.8
			c13.6,0,19.9-7.6,19.9-22.1c0-10.8-5.3-20.4-18.7-20.4h-14.1V82.4z"/>
		<path d="M949.4,82v45.4h-2.6V37.6h17.9c12.5,0,20.1,7.1,20.1,21.7c0,12.4-5.3,19.7-13.7,21.6c9.7,2.3,12.9,9.4,12.9,22.7v4.5
			c0,7.1,0.4,15.5,1,19.3h-2.7c-0.5-4-0.9-12.7-0.9-19.3v-4.4c0-17-5.8-21.7-18.1-21.7H949.4z M949.4,79.8h14.4
			c11.1,0,18.4-6,18.4-20.5c0-11.5-5.2-19.3-17.7-19.3h-15.1V79.8z"/>
		<path d="M1034.5,80.7h-30.7v44.4h33.8l-0.5,2.3h-35.8V37.6h35.1v2.3h-32.6v38.5h30.7V80.7z"/>
		<path d="M1046.4,106.5c0.4,12,7.1,19.8,17.9,19.8c11.3,0,17.4-7.8,17.4-20.4c0-12-4.8-18.4-17.2-24.7
			c-12.1-6.1-17.7-11.4-17.7-24.3c0-11.2,5.6-20.5,17.9-20.5c12.4,0,17.7,8.7,17.8,20.6h-2.5c-0.3-11.9-5.7-18.3-15.5-18.3
			c-11.1,0-15.1,8.5-15.1,18c0,11.4,4.1,16,16,22c14,7.1,18.9,14,18.9,27.1c0,12-5.3,22.8-20.1,22.8c-15,0-19.9-11.5-20.3-22.1
			H1046.4z"/>
		<path d="M1095.3,106.5c0.4,12,7.1,19.8,17.9,19.8c11.3,0,17.4-7.8,17.4-20.4c0-12-4.8-18.4-17.2-24.7
			c-12.1-6.1-17.7-11.4-17.7-24.3c0-11.2,5.6-20.5,17.9-20.5c12.4,0,17.7,8.7,17.8,20.6h-2.5c-0.3-11.9-5.7-18.3-15.5-18.3
			c-11.1,0-15.1,8.5-15.1,18c0,11.4,4.1,16,16,22c14,7.1,18.9,14,18.9,27.1c0,12-5.3,22.8-20.1,22.8c-15,0-19.9-11.5-20.3-22.1
			H1095.3z"/>
		<path d="M1180.9,80.7h-30.7v44.4h33.8l-0.5,2.3h-35.8V37.6h35.1v2.3h-32.6v38.5h30.7V80.7z"/>
	</g>
</g>
</svg>
