<?xml version="1.0" encoding="utf-8"?>
<!-- Generator: Adobe Illustrator 27.3.1, SVG Export Plug-In . SVG Version: 6.00 Build 0)  -->
<svg version="1.1" id="Calque_1" xmlns="http://www.w3.org/2000/svg" xmlns:xlink="http://www.w3.org/1999/xlink" x="0px" y="0px"
	 viewBox="0 0 2097 164.5" style="enable-background:new 0 0 2097 164.5;" xml:space="preserve">
<g>
	<path d="M527.8,127V40h-19.1v-2.5h40.8V40h-19.1v87H527.8L527.8,127z"/>
	<path d="M562.7,127V37.5h2.6v40.8H601V37.5h2.6V127H601V80.8h-35.8V127L562.7,127L562.7,127z"/>
	<path d="M622,126.9V37.5h32.2V40h-29.6v37.9h19.2v2.5h-19.2v44.2h31.2v2.5L622,126.9L622,126.9L622,126.9z"/>
	<path d="M709.2,128.1c-9.1,0-15.3-5-19-16.1l2.3-0.8c3.5,9.8,8.7,14.5,16.8,14.5c9.3,0,16-6.4,16-18.3c0-10.2-3.9-17.2-17-26.7
		c-12.9-9.3-16.9-15.3-16.9-25.3c0-11.1,6.5-19,17.7-19c10,0,15,6,18.1,13.5l-2.3,0.9c-2.9-6.5-7.2-12.2-15.9-12.2
		c-9.7,0-15.1,7-15.1,16.8c0,9.2,4.2,14.9,15.9,23.3c14.3,10.4,18,17.8,18,28.7C727.7,121,719.6,128.1,709.2,128.1L709.2,128.1
		L709.2,128.1z"/>
	<path d="M743.8,126.9V37.5H776V40h-29.6v37.9h19.2v2.5h-19.2v44.2h31.2v2.5L743.8,126.9L743.8,126.9L743.8,126.9z"/>
	<path d="M808.8,128c-14.2,0-22.7-14.3-22.7-45.8s8.9-45.8,23-45.8c8.9,0,14.4,6.5,17,16.9l-2.5,0.7c-2.3-9.3-6.9-15.2-14.5-15.2
		c-12.8,0-20.5,14.2-20.5,43.5s7.5,43.5,20.3,43.5c7.8,0,12.3-6.3,15.2-15.9l2.5,0.7C823.5,120.8,818.3,128,808.8,128L808.8,128
		L808.8,128z"/>
	<path d="M854.2,127V40H835v-2.5h40.8V40h-19.1v87H854.2L854.2,127z"/>
	<path d="M927.7,127V40h-19.1v-2.5h40.8V40h-19.1v87H927.7L927.7,127z"/>
	<path d="M960.9,101c0.1,0-6.1,26.1-6.1,26.1h-2.5l21.5-89.8h2.9l21.5,89.8h-2.6l-6.1-26.1H960.9L960.9,101z M988.9,98.6
		c0.1,0-13.6-57.9-13.6-57.9l-13.6,57.9H988.9L988.9,98.6z"/>
	<path d="M1013.7,127V37.5h2.6v87h28.4v2.5L1013.7,127L1013.7,127z"/>
	<path d="M1059.6,88.8l31.6-51.3h2.7l-21.7,35l23.6,54.4h-2.7l-22.5-51.9L1059.5,93v34h-2.6V37.5h2.6v51.3L1059.6,88.8L1059.6,88.8z
		"/>
</g>
</svg>
