<?xml version="1.0" encoding="utf-8"?>
<!-- Generator: Adobe Illustrator 28.2.0, SVG Export Plug-In . SVG Version: 6.00 Build 0)  -->
<svg version="1.1" id="Calque_1" xmlns="http://www.w3.org/2000/svg" xmlns:xlink="http://www.w3.org/1999/xlink" x="0px" y="0px"
	 viewBox="0 0 2097 164.5" style="enable-background:new 0 0 2097 164.5;" xml:space="preserve">
<style type="text/css">
	.st0{fill:none;stroke:#000000;stroke-width:3;stroke-linecap:square;stroke-linejoin:bevel;}
	.st1{fill:none;stroke:#000000;stroke-width:3;stroke-miterlimit:10;}
</style>
<line class="st0" x1="161.6" y1="2.2" x2="1.5" y2="162.1"/>
<line class="st0" x1="234.5" y1="141.1" x2="373.3" y2="2.2"/>
<line class="st0" x1="1293.2" y1="141.1" x2="1432.1" y2="2.2"/>
<line class="st0" x1="1507.8" y1="143.1" x2="1648.6" y2="2.2"/>
<line class="st0" x1="1718.8" y1="143.1" x2="1859.6" y2="2.2"/>
<line class="st0" x1="1932.8" y1="144.1" x2="2073.6" y2="3.2"/>
<path d="M658.6,127.2c-13.4,0-20.7-8.5-20.7-24.9V36.6h2.5v65.7c0,15.1,6.4,22.6,18.1,22.6s18-7.5,18-22.6V36.6h2.5v65.7
	C679.1,118.8,672,127.2,658.6,127.2z"/>
<path d="M604.2,127.7c-9.1,0-15.3-4.9-19-16.1l2.2-0.8c3.5,9.8,8.7,14.5,16.7,14.5c9.3,0,16-6.4,16-18.3c0-10.2-4-17.1-16.9-26.7
	C590.2,71,586.4,65,586.4,55c0-11.1,6.5-19,17.7-19c10,0,15,6,18.1,13.5l-2.2,0.9c-2.9-6.5-7.2-12.1-15.9-12.1
	c-9.6,0-15.1,7-15.1,16.7c0,9.2,4.2,14.8,15.9,23.2c14.3,10.4,18,17.8,18,28.6C622.8,120.5,614.7,127.7,604.2,127.7L604.2,127.7z"/>
<path d="M697.3,127V37.6h14c14.1,0,23.3,5.8,23.3,22.5c0,13.4-6.5,20.4-16.1,22.7l16.1,44.2h-2.8l-16-43.8c-1,0.2-3.5,0.5-5.3,0.5
	h-10.7v43.4L697.3,127L697.3,127z M699.8,81.3h10.7c12.7,0,21.5-5.9,21.5-21.2S723.9,40,711.2,40h-11.5L699.8,81.3L699.8,81.3
	L699.8,81.3z"/>
<path d="M751.8,127V37.6h14c14.1,0,23.3,5.8,23.3,22.5c0,13.4-6.5,20.4-16.1,22.7l16.1,44.2h-2.8l-16-43.8c-1,0.2-3.5,0.5-5.3,0.5
	h-10.7v43.4L751.8,127L751.8,127z M754.3,81.3H765c12.7,0,21.5-5.9,21.5-21.2S778.4,40,765.7,40h-11.5L754.3,81.3L754.3,81.3
	L754.3,81.3z"/>
<path d="M804.9,126.9V37.4H837V40h-29.6v37.9h19.2v2.5h-19.2v44.1h31.2v2.5L804.9,126.9L804.9,126.9z"/>
<path d="M849.9,126.9V37.4H882V40h-29.6v37.9h19.2v2.5h-19.2v44.1h31.2v2.5L849.9,126.9L849.9,126.9z"/>
<path d="M898,126.9V37.4h2.6v86.9h28.3v2.5C929,126.8,898,126.8,898,126.9z"/>
<polyline class="st0" points="2094.8,3.2 2037.4,61 1975.1,123.3 1936.9,161.6 1924.2,123.6 1903.2,61 1882.7,2.2 1880.8,2.2 
	1823.4,60 1761.1,122.3 1722.9,160.6 1710.2,122.6 1689.2,60 1669.7,2.2 1612.3,60 1549.7,122.6 1511.7,160.6 1499.4,122.6 
	1478.4,60 1459.2,2.2 1456.3,2.2 1398.8,60 1336.5,122.3 1298.3,160.6 1285.7,122.6 1264.7,60 1245.2,2.2 1242.3,2.2 1184.8,60 
	1122.5,122.3 1084.3,160.6 1071.7,122.6 1050.7,60 1031.2,2.2 "/>
<line class="st0" x1="1079.2" y1="141.1" x2="1218.1" y2="2.2"/>
<polyline class="st0" points="451.3,160.6 438.7,122.6 417.7,60 397.8,2.2 340.4,60 277.8,122.6 239.8,160.6 227.2,122.6 206.2,60 
	187.3,2.2 130.4,58.8 67.8,121.8 27,162.6 "/>
<line class="st1" x1="811.9" y1="27.8" x2="827" y2="21.4"/>
</svg>
