<?xml version="1.0" encoding="utf-8"?>
<!-- Generator: Adobe Illustrator 27.3.1, SVG Export Plug-In . SVG Version: 6.00 Build 0)  -->
<svg version="1.1" id="Calque_1" xmlns="http://www.w3.org/2000/svg" xmlns:xlink="http://www.w3.org/1999/xlink" x="0px" y="0px"
	 viewBox="0 0 2097 164.5" style="enable-background:new 0 0 2097 164.5;" xml:space="preserve">
<g>
	<g>
		<path d="M496.8,128.1c-9.1,0-15.3-5-19-16.1l2.4-0.8c3.4,9.8,8.7,14.6,16.8,14.6c9.3,0,16-6.4,16-18.4c0-10.2-4-17.2-16.9-26.6
			c-13-9.4-16.9-15.3-16.9-25.3c0-11.1,6.6-19,17.6-19c10,0,15,6,18.1,13.5l-2.4,0.9c-2.9-6.6-7.2-12.1-15.9-12.1
			c-9.7,0-15.1,7-15.1,16.8c0,9.2,4.2,14.8,15.9,23.2c14.3,10.4,18,17.7,18,28.7C515.3,121,507.3,128.1,496.8,128.1z"/>
		<path d="M531.4,126.9V37.6h32.1V40h-29.6v37.9h19.3v2.4h-19.3v44.2h31.2v2.4L531.4,126.9L531.4,126.9L531.4,126.9z"/>
		<path d="M578.1,126.9V37.6h2.5l35.6,83.4V37.6h2.4v89.3h-2.2l-36-84.2v84.2L578.1,126.9L578.1,126.9z"/>
		<path d="M652.5,128.1c-9.1,0-15.3-5-19-16.1l2.4-0.8c3.4,9.8,8.7,14.6,16.8,14.6c9.3,0,16-6.4,16-18.4c0-10.2-4-17.2-16.9-26.6
			c-12.9-9.3-16.9-15.3-16.9-25.3c0-11.1,6.6-19,17.6-19c10,0,15,6,18.1,13.5l-2.4,0.9c-2.9-6.6-7.2-12.1-15.9-12.1
			c-9.7,0-15.1,7-15.1,16.8c0,9.2,4.2,14.8,15.9,23.2c14.3,10.4,18,17.7,18,28.7C671.1,121,663,128.1,652.5,128.1L652.5,128.1z"/>
		<path d="M687.1,126.9V37.6h32.1V40h-29.6v37.9H709v2.4h-19.3v44.2h31.2v2.4L687.1,126.9L687.1,126.9L687.1,126.9z"/>
		<path d="M780.1,128.1c-14.4,0-23.5-13.9-23.5-45.9s9.1-45.8,23.5-45.8s23.5,13.9,23.5,45.8S794.5,128.1,780.1,128.1z M780.1,125.8
			c13.1,0,21-13.7,21-43.6s-7.8-43.6-21-43.6c-13.1,0-21,13.7-21,43.6S767,125.8,780.1,125.8z"/>
		<path d="M819.8,126.9V37.6h32V40h-29.5v39.2h19.5v2.4h-19.5v45.3L819.8,126.9L819.8,126.9z"/>
	</g>
	<g>
		<path d="M901,127.1l-14.3-89.7h2.4l13.1,84.5l15.9-84.5h2.4l16,84.5l13-84.5h2.4l-14.3,89.7h-2.4l-15.9-84.3l-15.9,84.3H901
			L901,127.1z"/>
	</g>
	<g>
		<path d="M987.1,128.1c-14.4,0-23.5-13.9-23.5-45.9s9.1-45.8,23.5-45.8s23.5,13.9,23.5,45.8S1001.6,128.1,987.1,128.1z
			 M987.1,125.8c13.1,0,21-13.7,21-43.6s-7.8-43.6-21-43.6c-13.1,0-21,13.7-21,43.6C966.2,112.1,974,125.8,987.1,125.8z"/>
		<path d="M1026.9,126.9V37.6h2.5l35.6,83.4V37.6h2.4v89.3h-2.2l-36-84.2v84.2L1026.9,126.9L1026.9,126.9z"/>
		<path d="M1085.8,126.9V37.6h14.2c18.5,0,27.4,12.7,27.4,44.6s-9.2,44.9-27.7,44.9L1085.8,126.9L1085.8,126.9z M1088.3,124.6h11.4
			c17.2,0,25.2-12.1,25.2-42.3s-7.6-42.1-24.9-42.1h-11.7L1088.3,124.6L1088.3,124.6L1088.3,124.6z"/>
		<path d="M1143.6,126.9V37.6h32.1V40h-29.6v37.9h19.3v2.4h-19.3v44.2h31.2v2.4L1143.6,126.9L1143.6,126.9L1143.6,126.9z"/>
		<path d="M1190.3,126.9V37.6h14c14.2,0,23.3,5.8,23.3,22.4c0,13.3-6.6,20.5-16.1,22.7l16.1,44.2h-2.7l-16-43.8
			c-1.1,0.2-3.4,0.5-5.3,0.5h-10.8v43.3C1192.9,126.9,1190.3,126.9,1190.3,126.9z M1192.9,81.2h10.8c12.6,0,21.6-5.9,21.6-21.2
			s-8.2-20.1-20.8-20.1H1193L1192.9,81.2L1192.9,81.2L1192.9,81.2z"/>
	</g>
</g>
</svg>
